G04 #@! TF.GenerationSoftware,KiCad,Pcbnew,(5.1.5-0-10_14)*
G04 #@! TF.CreationDate,2020-05-22T11:47:55+02:00*
G04 #@! TF.ProjectId,version2,76657273-696f-46e3-922e-6b696361645f,rev?*
G04 #@! TF.SameCoordinates,Original*
G04 #@! TF.FileFunction,Legend,Top*
G04 #@! TF.FilePolarity,Positive*
%FSLAX46Y46*%
G04 Gerber Fmt 4.6, Leading zero omitted, Abs format (unit mm)*
G04 Created by KiCad (PCBNEW (5.1.5-0-10_14)) date 2020-05-22 11:47:55*
%MOMM*%
%LPD*%
G04 APERTURE LIST*
%ADD10C,0.150000*%
%ADD11C,0.120000*%
G04 APERTURE END LIST*
D10*
X57697619Y-66818333D02*
X57697619Y-66627857D01*
X57650000Y-66532619D01*
X57602380Y-66485000D01*
X57459523Y-66389761D01*
X57269047Y-66342142D01*
X56888095Y-66342142D01*
X56792857Y-66389761D01*
X56745238Y-66437380D01*
X56697619Y-66532619D01*
X56697619Y-66723095D01*
X56745238Y-66818333D01*
X56792857Y-66865952D01*
X56888095Y-66913571D01*
X57126190Y-66913571D01*
X57221428Y-66865952D01*
X57269047Y-66818333D01*
X57316666Y-66723095D01*
X57316666Y-66532619D01*
X57269047Y-66437380D01*
X57221428Y-66389761D01*
X57126190Y-66342142D01*
X57602380Y-67294523D02*
X57650000Y-67342142D01*
X57697619Y-67437380D01*
X57697619Y-67675476D01*
X57650000Y-67770714D01*
X57602380Y-67818333D01*
X57507142Y-67865952D01*
X57411904Y-67865952D01*
X57269047Y-67818333D01*
X56697619Y-67246904D01*
X56697619Y-67865952D01*
X56792857Y-68294523D02*
X56745238Y-68342142D01*
X56697619Y-68294523D01*
X56745238Y-68246904D01*
X56792857Y-68294523D01*
X56697619Y-68294523D01*
X57602380Y-68723095D02*
X57650000Y-68770714D01*
X57697619Y-68865952D01*
X57697619Y-69104047D01*
X57650000Y-69199285D01*
X57602380Y-69246904D01*
X57507142Y-69294523D01*
X57411904Y-69294523D01*
X57269047Y-69246904D01*
X56697619Y-68675476D01*
X56697619Y-69294523D01*
X57697619Y-69627857D02*
X57697619Y-70246904D01*
X57316666Y-69913571D01*
X57316666Y-70056428D01*
X57269047Y-70151666D01*
X57221428Y-70199285D01*
X57126190Y-70246904D01*
X56888095Y-70246904D01*
X56792857Y-70199285D01*
X56745238Y-70151666D01*
X56697619Y-70056428D01*
X56697619Y-69770714D01*
X56745238Y-69675476D01*
X56792857Y-69627857D01*
X57697619Y-70865952D02*
X57697619Y-70961190D01*
X57650000Y-71056428D01*
X57602380Y-71104047D01*
X57507142Y-71151666D01*
X57316666Y-71199285D01*
X57078571Y-71199285D01*
X56888095Y-71151666D01*
X56792857Y-71104047D01*
X56745238Y-71056428D01*
X56697619Y-70961190D01*
X56697619Y-70865952D01*
X56745238Y-70770714D01*
X56792857Y-70723095D01*
X56888095Y-70675476D01*
X57078571Y-70627857D01*
X57316666Y-70627857D01*
X57507142Y-70675476D01*
X57602380Y-70723095D01*
X57650000Y-70770714D01*
X57697619Y-70865952D01*
X56697619Y-72389761D02*
X57364285Y-72389761D01*
X57269047Y-72389761D02*
X57316666Y-72437380D01*
X57364285Y-72532619D01*
X57364285Y-72675476D01*
X57316666Y-72770714D01*
X57221428Y-72818333D01*
X56697619Y-72818333D01*
X57221428Y-72818333D02*
X57316666Y-72865952D01*
X57364285Y-72961190D01*
X57364285Y-73104047D01*
X57316666Y-73199285D01*
X57221428Y-73246904D01*
X56697619Y-73246904D01*
X56697619Y-73723095D02*
X57364285Y-73723095D01*
X57269047Y-73723095D02*
X57316666Y-73770714D01*
X57364285Y-73865952D01*
X57364285Y-74008809D01*
X57316666Y-74104047D01*
X57221428Y-74151666D01*
X56697619Y-74151666D01*
X57221428Y-74151666D02*
X57316666Y-74199285D01*
X57364285Y-74294523D01*
X57364285Y-74437380D01*
X57316666Y-74532619D01*
X57221428Y-74580238D01*
X56697619Y-74580238D01*
D11*
X58420000Y-39370000D02*
X58420000Y-101600000D01*
X58420000Y-39370000D02*
X57833579Y-39370000D01*
X58420000Y-101600000D02*
X57833579Y-101600000D01*
X58420000Y-101600000D02*
X57833579Y-100473496D01*
X58420000Y-101600000D02*
X59006421Y-100473496D01*
X58420000Y-39370000D02*
X57833579Y-40496504D01*
X58420000Y-39370000D02*
X59006421Y-40496504D01*
D10*
X91694523Y-102322380D02*
X92361190Y-102322380D01*
X91932619Y-103322380D01*
X93170714Y-102655714D02*
X93170714Y-103322380D01*
X92932619Y-102274761D02*
X92694523Y-102989047D01*
X93313571Y-102989047D01*
X93694523Y-103227142D02*
X93742142Y-103274761D01*
X93694523Y-103322380D01*
X93646904Y-103274761D01*
X93694523Y-103227142D01*
X93694523Y-103322380D01*
X94218333Y-103322380D02*
X94408809Y-103322380D01*
X94504047Y-103274761D01*
X94551666Y-103227142D01*
X94646904Y-103084285D01*
X94694523Y-102893809D01*
X94694523Y-102512857D01*
X94646904Y-102417619D01*
X94599285Y-102370000D01*
X94504047Y-102322380D01*
X94313571Y-102322380D01*
X94218333Y-102370000D01*
X94170714Y-102417619D01*
X94123095Y-102512857D01*
X94123095Y-102750952D01*
X94170714Y-102846190D01*
X94218333Y-102893809D01*
X94313571Y-102941428D01*
X94504047Y-102941428D01*
X94599285Y-102893809D01*
X94646904Y-102846190D01*
X94694523Y-102750952D01*
X95027857Y-102322380D02*
X95646904Y-102322380D01*
X95313571Y-102703333D01*
X95456428Y-102703333D01*
X95551666Y-102750952D01*
X95599285Y-102798571D01*
X95646904Y-102893809D01*
X95646904Y-103131904D01*
X95599285Y-103227142D01*
X95551666Y-103274761D01*
X95456428Y-103322380D01*
X95170714Y-103322380D01*
X95075476Y-103274761D01*
X95027857Y-103227142D01*
X96265952Y-102322380D02*
X96361190Y-102322380D01*
X96456428Y-102370000D01*
X96504047Y-102417619D01*
X96551666Y-102512857D01*
X96599285Y-102703333D01*
X96599285Y-102941428D01*
X96551666Y-103131904D01*
X96504047Y-103227142D01*
X96456428Y-103274761D01*
X96361190Y-103322380D01*
X96265952Y-103322380D01*
X96170714Y-103274761D01*
X96123095Y-103227142D01*
X96075476Y-103131904D01*
X96027857Y-102941428D01*
X96027857Y-102703333D01*
X96075476Y-102512857D01*
X96123095Y-102417619D01*
X96170714Y-102370000D01*
X96265952Y-102322380D01*
X97789761Y-103322380D02*
X97789761Y-102655714D01*
X97789761Y-102750952D02*
X97837380Y-102703333D01*
X97932619Y-102655714D01*
X98075476Y-102655714D01*
X98170714Y-102703333D01*
X98218333Y-102798571D01*
X98218333Y-103322380D01*
X98218333Y-102798571D02*
X98265952Y-102703333D01*
X98361190Y-102655714D01*
X98504047Y-102655714D01*
X98599285Y-102703333D01*
X98646904Y-102798571D01*
X98646904Y-103322380D01*
X99123095Y-103322380D02*
X99123095Y-102655714D01*
X99123095Y-102750952D02*
X99170714Y-102703333D01*
X99265952Y-102655714D01*
X99408809Y-102655714D01*
X99504047Y-102703333D01*
X99551666Y-102798571D01*
X99551666Y-103322380D01*
X99551666Y-102798571D02*
X99599285Y-102703333D01*
X99694523Y-102655714D01*
X99837380Y-102655714D01*
X99932619Y-102703333D01*
X99980238Y-102798571D01*
X99980238Y-103322380D01*
D11*
X58420000Y-101600000D02*
X133350000Y-101600000D01*
X58420000Y-101600000D02*
X58420000Y-102186421D01*
X133350000Y-101600000D02*
X133350000Y-102186421D01*
X133350000Y-101600000D02*
X132223496Y-102186421D01*
X133350000Y-101600000D02*
X132223496Y-101013579D01*
X58420000Y-101600000D02*
X59546504Y-102186421D01*
X58420000Y-101600000D02*
X59546504Y-101013579D01*
X92075000Y-65405000D02*
X71120000Y-65405000D01*
X71120000Y-65405000D02*
X71120000Y-86360000D01*
X71120000Y-86360000D02*
X92075000Y-86360000D01*
X92075000Y-86360000D02*
X92075000Y-65405000D01*
X129600000Y-62290000D02*
X128270000Y-62290000D01*
X129600000Y-60960000D02*
X129600000Y-62290000D01*
X129600000Y-59690000D02*
X126940000Y-59690000D01*
X126940000Y-59690000D02*
X126940000Y-59630000D01*
X129600000Y-59690000D02*
X129600000Y-59630000D01*
X129600000Y-59630000D02*
X126940000Y-59630000D01*
X123130000Y-50860000D02*
X125790000Y-50860000D01*
X123130000Y-50800000D02*
X123130000Y-50860000D01*
X125790000Y-50800000D02*
X125790000Y-50860000D01*
X123130000Y-50800000D02*
X125790000Y-50800000D01*
X123130000Y-49530000D02*
X123130000Y-48200000D01*
X123130000Y-48200000D02*
X124460000Y-48200000D01*
D10*
X80518095Y-69302380D02*
X80518095Y-70111904D01*
X80565714Y-70207142D01*
X80613333Y-70254761D01*
X80708571Y-70302380D01*
X80899047Y-70302380D01*
X80994285Y-70254761D01*
X81041904Y-70207142D01*
X81089523Y-70111904D01*
X81089523Y-69302380D01*
X81470476Y-69302380D02*
X82089523Y-69302380D01*
X81756190Y-69683333D01*
X81899047Y-69683333D01*
X81994285Y-69730952D01*
X82041904Y-69778571D01*
X82089523Y-69873809D01*
X82089523Y-70111904D01*
X82041904Y-70207142D01*
X81994285Y-70254761D01*
X81899047Y-70302380D01*
X81613333Y-70302380D01*
X81518095Y-70254761D01*
X81470476Y-70207142D01*
X126508095Y-57221428D02*
X127270000Y-57221428D01*
X126889047Y-57602380D02*
X126889047Y-56840476D01*
X128222380Y-56602380D02*
X127746190Y-56602380D01*
X127698571Y-57078571D01*
X127746190Y-57030952D01*
X127841428Y-56983333D01*
X128079523Y-56983333D01*
X128174761Y-57030952D01*
X128222380Y-57078571D01*
X128270000Y-57173809D01*
X128270000Y-57411904D01*
X128222380Y-57507142D01*
X128174761Y-57554761D01*
X128079523Y-57602380D01*
X127841428Y-57602380D01*
X127746190Y-57554761D01*
X127698571Y-57507142D01*
X128555714Y-56602380D02*
X128889047Y-57602380D01*
X129222380Y-56602380D01*
X130079523Y-57602380D02*
X129508095Y-57602380D01*
X129793809Y-57602380D02*
X129793809Y-56602380D01*
X129698571Y-56745238D01*
X129603333Y-56840476D01*
X129508095Y-56888095D01*
X122221904Y-45172380D02*
X122555238Y-46172380D01*
X122888571Y-45172380D01*
X123412380Y-45172380D02*
X123602857Y-45172380D01*
X123698095Y-45220000D01*
X123793333Y-45315238D01*
X123840952Y-45505714D01*
X123840952Y-45839047D01*
X123793333Y-46029523D01*
X123698095Y-46124761D01*
X123602857Y-46172380D01*
X123412380Y-46172380D01*
X123317142Y-46124761D01*
X123221904Y-46029523D01*
X123174285Y-45839047D01*
X123174285Y-45505714D01*
X123221904Y-45315238D01*
X123317142Y-45220000D01*
X123412380Y-45172380D01*
X124269523Y-45172380D02*
X124269523Y-45981904D01*
X124317142Y-46077142D01*
X124364761Y-46124761D01*
X124460000Y-46172380D01*
X124650476Y-46172380D01*
X124745714Y-46124761D01*
X124793333Y-46077142D01*
X124840952Y-45981904D01*
X124840952Y-45172380D01*
X125174285Y-45172380D02*
X125745714Y-45172380D01*
X125460000Y-46172380D02*
X125460000Y-45172380D01*
X126602857Y-46172380D02*
X126031428Y-46172380D01*
X126317142Y-46172380D02*
X126317142Y-45172380D01*
X126221904Y-45315238D01*
X126126666Y-45410476D01*
X126031428Y-45458095D01*
M02*
