G04 #@! TF.GenerationSoftware,KiCad,Pcbnew,(5.1.5-0-10_14)*
G04 #@! TF.CreationDate,2020-05-22T11:47:55+02:00*
G04 #@! TF.ProjectId,version2,76657273-696f-46e3-922e-6b696361645f,rev?*
G04 #@! TF.SameCoordinates,Original*
G04 #@! TF.FileFunction,Legend,Bot*
G04 #@! TF.FilePolarity,Positive*
%FSLAX46Y46*%
G04 Gerber Fmt 4.6, Leading zero omitted, Abs format (unit mm)*
G04 Created by KiCad (PCBNEW (5.1.5-0-10_14)) date 2020-05-22 11:47:55*
%MOMM*%
%LPD*%
G04 APERTURE LIST*
%ADD10C,0.200000*%
%ADD11C,0.127000*%
%ADD12C,0.120000*%
%ADD13C,0.100000*%
%ADD14C,0.152400*%
%ADD15C,0.015000*%
%ADD16C,0.150000*%
G04 APERTURE END LIST*
D10*
X97935000Y-81915000D02*
G75*
G03X97935000Y-81915000I-100000J0D01*
G01*
D11*
X97810000Y-84360000D02*
X97810000Y-88360000D01*
X102850000Y-84360000D02*
X102850000Y-88360000D01*
D12*
X99727936Y-79100000D02*
X100932064Y-79100000D01*
X99727936Y-80920000D02*
X100932064Y-80920000D01*
X111400000Y-75597936D02*
X111400000Y-76802064D01*
X109580000Y-75597936D02*
X109580000Y-76802064D01*
X94890000Y-89567936D02*
X94890000Y-90772064D01*
X93070000Y-89567936D02*
X93070000Y-90772064D01*
X114375000Y-51176422D02*
X114375000Y-51693578D01*
X112955000Y-51176422D02*
X112955000Y-51693578D01*
X116480000Y-75597936D02*
X116480000Y-76802064D01*
X114660000Y-75597936D02*
X114660000Y-76802064D01*
X107675000Y-85822064D02*
X107675000Y-84617936D01*
X109495000Y-85822064D02*
X109495000Y-84617936D01*
D13*
X118414800Y-63449200D02*
G75*
G03X117805200Y-63449200I-304800J0D01*
G01*
D14*
X117805200Y-63449200D02*
X116738400Y-63449200D01*
X118414800Y-63449200D02*
X117805200Y-63449200D01*
X119481600Y-63449200D02*
X118414800Y-63449200D01*
X116738400Y-58470800D02*
X119481600Y-58470800D01*
D13*
X83870800Y-94284800D02*
G75*
G03X83870800Y-93675200I0J304800D01*
G01*
D14*
X83870800Y-93675200D02*
X83870800Y-92608400D01*
X83870800Y-94284800D02*
X83870800Y-93675200D01*
X83870800Y-95351600D02*
X83870800Y-94284800D01*
X88849200Y-92608400D02*
X88849200Y-95351600D01*
D13*
X68529200Y-75895200D02*
G75*
G03X68529200Y-76504800I0J-304800D01*
G01*
D14*
X68529200Y-76504800D02*
X68529200Y-77571600D01*
X68529200Y-75895200D02*
X68529200Y-76504800D01*
X68529200Y-74828400D02*
X68529200Y-75895200D01*
X63550800Y-77571600D02*
X63550800Y-74828400D01*
D12*
X110565000Y-51176422D02*
X110565000Y-51693578D01*
X109145000Y-51176422D02*
X109145000Y-51693578D01*
X89911422Y-58980000D02*
X90428578Y-58980000D01*
X89911422Y-60400000D02*
X90428578Y-60400000D01*
X105970000Y-63426078D02*
X105970000Y-62908922D01*
X107390000Y-63426078D02*
X107390000Y-62908922D01*
X103580000Y-60701422D02*
X103580000Y-61218578D01*
X102160000Y-60701422D02*
X102160000Y-61218578D01*
X79450000Y-77211422D02*
X79450000Y-77728578D01*
X78030000Y-77211422D02*
X78030000Y-77728578D01*
X83110000Y-77728578D02*
X83110000Y-77211422D01*
X84530000Y-77728578D02*
X84530000Y-77211422D01*
X104500000Y-51402064D02*
X104500000Y-50197936D01*
X106320000Y-51402064D02*
X106320000Y-50197936D01*
X67977936Y-84180000D02*
X69182064Y-84180000D01*
X67977936Y-86000000D02*
X69182064Y-86000000D01*
X130450000Y-85692064D02*
X130450000Y-84487936D01*
X128630000Y-85692064D02*
X128630000Y-84487936D01*
X123550000Y-85692064D02*
X123550000Y-84487936D01*
X125370000Y-85692064D02*
X125370000Y-84487936D01*
X122457936Y-80920000D02*
X123662064Y-80920000D01*
X122457936Y-79100000D02*
X123662064Y-79100000D01*
X113697936Y-89260000D02*
X114902064Y-89260000D01*
X113697936Y-91080000D02*
X114902064Y-91080000D01*
X117750000Y-85692064D02*
X117750000Y-84487936D01*
X115930000Y-85692064D02*
X115930000Y-84487936D01*
X112120000Y-85692064D02*
X112120000Y-84487936D01*
X113940000Y-85692064D02*
X113940000Y-84487936D01*
X80920000Y-92172064D02*
X80920000Y-90967936D01*
X79100000Y-92172064D02*
X79100000Y-90967936D01*
D15*
X97450380Y-84588809D02*
X96450380Y-84588809D01*
X97355142Y-85636428D02*
X97402761Y-85588809D01*
X97450380Y-85445952D01*
X97450380Y-85350714D01*
X97402761Y-85207857D01*
X97307523Y-85112619D01*
X97212285Y-85065000D01*
X97021809Y-85017380D01*
X96878952Y-85017380D01*
X96688476Y-85065000D01*
X96593238Y-85112619D01*
X96498000Y-85207857D01*
X96450380Y-85350714D01*
X96450380Y-85445952D01*
X96498000Y-85588809D01*
X96545619Y-85636428D01*
X97450380Y-86588809D02*
X97450380Y-86017380D01*
X97450380Y-86303095D02*
X96450380Y-86303095D01*
X96593238Y-86207857D01*
X96688476Y-86112619D01*
X96736095Y-86017380D01*
D16*
X100496666Y-82187142D02*
X100544285Y-82234761D01*
X100687142Y-82282380D01*
X100782380Y-82282380D01*
X100925238Y-82234761D01*
X101020476Y-82139523D01*
X101068095Y-82044285D01*
X101115714Y-81853809D01*
X101115714Y-81710952D01*
X101068095Y-81520476D01*
X101020476Y-81425238D01*
X100925238Y-81330000D01*
X100782380Y-81282380D01*
X100687142Y-81282380D01*
X100544285Y-81330000D01*
X100496666Y-81377619D01*
X99639523Y-81615714D02*
X99639523Y-82282380D01*
X99877619Y-81234761D02*
X100115714Y-81949047D01*
X99496666Y-81949047D01*
X109027142Y-76033333D02*
X109074761Y-75985714D01*
X109122380Y-75842857D01*
X109122380Y-75747619D01*
X109074761Y-75604761D01*
X108979523Y-75509523D01*
X108884285Y-75461904D01*
X108693809Y-75414285D01*
X108550952Y-75414285D01*
X108360476Y-75461904D01*
X108265238Y-75509523D01*
X108170000Y-75604761D01*
X108122380Y-75747619D01*
X108122380Y-75842857D01*
X108170000Y-75985714D01*
X108217619Y-76033333D01*
X108550952Y-76604761D02*
X108503333Y-76509523D01*
X108455714Y-76461904D01*
X108360476Y-76414285D01*
X108312857Y-76414285D01*
X108217619Y-76461904D01*
X108170000Y-76509523D01*
X108122380Y-76604761D01*
X108122380Y-76795238D01*
X108170000Y-76890476D01*
X108217619Y-76938095D01*
X108312857Y-76985714D01*
X108360476Y-76985714D01*
X108455714Y-76938095D01*
X108503333Y-76890476D01*
X108550952Y-76795238D01*
X108550952Y-76604761D01*
X108598571Y-76509523D01*
X108646190Y-76461904D01*
X108741428Y-76414285D01*
X108931904Y-76414285D01*
X109027142Y-76461904D01*
X109074761Y-76509523D01*
X109122380Y-76604761D01*
X109122380Y-76795238D01*
X109074761Y-76890476D01*
X109027142Y-76938095D01*
X108931904Y-76985714D01*
X108741428Y-76985714D01*
X108646190Y-76938095D01*
X108598571Y-76890476D01*
X108550952Y-76795238D01*
X92517142Y-90003333D02*
X92564761Y-89955714D01*
X92612380Y-89812857D01*
X92612380Y-89717619D01*
X92564761Y-89574761D01*
X92469523Y-89479523D01*
X92374285Y-89431904D01*
X92183809Y-89384285D01*
X92040952Y-89384285D01*
X91850476Y-89431904D01*
X91755238Y-89479523D01*
X91660000Y-89574761D01*
X91612380Y-89717619D01*
X91612380Y-89812857D01*
X91660000Y-89955714D01*
X91707619Y-90003333D01*
X91612380Y-90336666D02*
X91612380Y-91003333D01*
X92612380Y-90574761D01*
X112467380Y-51268333D02*
X111991190Y-50935000D01*
X112467380Y-50696904D02*
X111467380Y-50696904D01*
X111467380Y-51077857D01*
X111515000Y-51173095D01*
X111562619Y-51220714D01*
X111657857Y-51268333D01*
X111800714Y-51268333D01*
X111895952Y-51220714D01*
X111943571Y-51173095D01*
X111991190Y-51077857D01*
X111991190Y-50696904D01*
X111467380Y-51601666D02*
X111467380Y-52268333D01*
X112467380Y-51839761D01*
X114107142Y-76033333D02*
X114154761Y-75985714D01*
X114202380Y-75842857D01*
X114202380Y-75747619D01*
X114154761Y-75604761D01*
X114059523Y-75509523D01*
X113964285Y-75461904D01*
X113773809Y-75414285D01*
X113630952Y-75414285D01*
X113440476Y-75461904D01*
X113345238Y-75509523D01*
X113250000Y-75604761D01*
X113202380Y-75747619D01*
X113202380Y-75842857D01*
X113250000Y-75985714D01*
X113297619Y-76033333D01*
X113202380Y-76938095D02*
X113202380Y-76461904D01*
X113678571Y-76414285D01*
X113630952Y-76461904D01*
X113583333Y-76557142D01*
X113583333Y-76795238D01*
X113630952Y-76890476D01*
X113678571Y-76938095D01*
X113773809Y-76985714D01*
X114011904Y-76985714D01*
X114107142Y-76938095D01*
X114154761Y-76890476D01*
X114202380Y-76795238D01*
X114202380Y-76557142D01*
X114154761Y-76461904D01*
X114107142Y-76414285D01*
X110762142Y-85053333D02*
X110809761Y-85005714D01*
X110857380Y-84862857D01*
X110857380Y-84767619D01*
X110809761Y-84624761D01*
X110714523Y-84529523D01*
X110619285Y-84481904D01*
X110428809Y-84434285D01*
X110285952Y-84434285D01*
X110095476Y-84481904D01*
X110000238Y-84529523D01*
X109905000Y-84624761D01*
X109857380Y-84767619D01*
X109857380Y-84862857D01*
X109905000Y-85005714D01*
X109952619Y-85053333D01*
X109857380Y-85386666D02*
X109857380Y-86005714D01*
X110238333Y-85672380D01*
X110238333Y-85815238D01*
X110285952Y-85910476D01*
X110333571Y-85958095D01*
X110428809Y-86005714D01*
X110666904Y-86005714D01*
X110762142Y-85958095D01*
X110809761Y-85910476D01*
X110857380Y-85815238D01*
X110857380Y-85529523D01*
X110809761Y-85434285D01*
X110762142Y-85386666D01*
D15*
X119896093Y-64487759D02*
X119896093Y-65817736D01*
X119817859Y-65974204D01*
X119739625Y-66052438D01*
X119583157Y-66130672D01*
X119270221Y-66130672D01*
X119113753Y-66052438D01*
X119035519Y-65974204D01*
X118957285Y-65817736D01*
X118957285Y-64487759D01*
X117470840Y-65035397D02*
X117470840Y-66130672D01*
X117862010Y-64409525D02*
X118253180Y-65583034D01*
X117236138Y-65583034D01*
X92691743Y-95620309D02*
X92691743Y-96950286D01*
X92613509Y-97106754D01*
X92535275Y-97184988D01*
X92378807Y-97263222D01*
X92065871Y-97263222D01*
X91909403Y-97184988D01*
X91831169Y-97106754D01*
X91752935Y-96950286D01*
X91752935Y-95620309D01*
X91048830Y-95776777D02*
X90970596Y-95698543D01*
X90814128Y-95620309D01*
X90422958Y-95620309D01*
X90266490Y-95698543D01*
X90188256Y-95776777D01*
X90110022Y-95933245D01*
X90110022Y-96089713D01*
X90188256Y-96324415D01*
X91127064Y-97263222D01*
X90110022Y-97263222D01*
X67291743Y-67680309D02*
X67291743Y-69010286D01*
X67213509Y-69166754D01*
X67135275Y-69244988D01*
X66978807Y-69323222D01*
X66665871Y-69323222D01*
X66509403Y-69244988D01*
X66431169Y-69166754D01*
X66352935Y-69010286D01*
X66352935Y-67680309D01*
X64710022Y-69323222D02*
X65648830Y-69323222D01*
X65179426Y-69323222D02*
X65179426Y-67680309D01*
X65335894Y-67915011D01*
X65492362Y-68071479D01*
X65648830Y-68149713D01*
D16*
X108657380Y-51268333D02*
X108181190Y-50935000D01*
X108657380Y-50696904D02*
X107657380Y-50696904D01*
X107657380Y-51077857D01*
X107705000Y-51173095D01*
X107752619Y-51220714D01*
X107847857Y-51268333D01*
X107990714Y-51268333D01*
X108085952Y-51220714D01*
X108133571Y-51173095D01*
X108181190Y-51077857D01*
X108181190Y-50696904D01*
X107657380Y-52125476D02*
X107657380Y-51935000D01*
X107705000Y-51839761D01*
X107752619Y-51792142D01*
X107895476Y-51696904D01*
X108085952Y-51649285D01*
X108466904Y-51649285D01*
X108562142Y-51696904D01*
X108609761Y-51744523D01*
X108657380Y-51839761D01*
X108657380Y-52030238D01*
X108609761Y-52125476D01*
X108562142Y-52173095D01*
X108466904Y-52220714D01*
X108228809Y-52220714D01*
X108133571Y-52173095D01*
X108085952Y-52125476D01*
X108038333Y-52030238D01*
X108038333Y-51839761D01*
X108085952Y-51744523D01*
X108133571Y-51696904D01*
X108228809Y-51649285D01*
X90336666Y-61792380D02*
X90670000Y-61316190D01*
X90908095Y-61792380D02*
X90908095Y-60792380D01*
X90527142Y-60792380D01*
X90431904Y-60840000D01*
X90384285Y-60887619D01*
X90336666Y-60982857D01*
X90336666Y-61125714D01*
X90384285Y-61220952D01*
X90431904Y-61268571D01*
X90527142Y-61316190D01*
X90908095Y-61316190D01*
X89431904Y-60792380D02*
X89908095Y-60792380D01*
X89955714Y-61268571D01*
X89908095Y-61220952D01*
X89812857Y-61173333D01*
X89574761Y-61173333D01*
X89479523Y-61220952D01*
X89431904Y-61268571D01*
X89384285Y-61363809D01*
X89384285Y-61601904D01*
X89431904Y-61697142D01*
X89479523Y-61744761D01*
X89574761Y-61792380D01*
X89812857Y-61792380D01*
X89908095Y-61744761D01*
X89955714Y-61697142D01*
X108782380Y-63000833D02*
X108306190Y-62667500D01*
X108782380Y-62429404D02*
X107782380Y-62429404D01*
X107782380Y-62810357D01*
X107830000Y-62905595D01*
X107877619Y-62953214D01*
X107972857Y-63000833D01*
X108115714Y-63000833D01*
X108210952Y-62953214D01*
X108258571Y-62905595D01*
X108306190Y-62810357D01*
X108306190Y-62429404D01*
X108115714Y-63857976D02*
X108782380Y-63857976D01*
X107734761Y-63619880D02*
X108449047Y-63381785D01*
X108449047Y-64000833D01*
X101672380Y-60793333D02*
X101196190Y-60460000D01*
X101672380Y-60221904D02*
X100672380Y-60221904D01*
X100672380Y-60602857D01*
X100720000Y-60698095D01*
X100767619Y-60745714D01*
X100862857Y-60793333D01*
X101005714Y-60793333D01*
X101100952Y-60745714D01*
X101148571Y-60698095D01*
X101196190Y-60602857D01*
X101196190Y-60221904D01*
X100672380Y-61126666D02*
X100672380Y-61745714D01*
X101053333Y-61412380D01*
X101053333Y-61555238D01*
X101100952Y-61650476D01*
X101148571Y-61698095D01*
X101243809Y-61745714D01*
X101481904Y-61745714D01*
X101577142Y-61698095D01*
X101624761Y-61650476D01*
X101672380Y-61555238D01*
X101672380Y-61269523D01*
X101624761Y-61174285D01*
X101577142Y-61126666D01*
X77542380Y-77303333D02*
X77066190Y-76970000D01*
X77542380Y-76731904D02*
X76542380Y-76731904D01*
X76542380Y-77112857D01*
X76590000Y-77208095D01*
X76637619Y-77255714D01*
X76732857Y-77303333D01*
X76875714Y-77303333D01*
X76970952Y-77255714D01*
X77018571Y-77208095D01*
X77066190Y-77112857D01*
X77066190Y-76731904D01*
X76637619Y-77684285D02*
X76590000Y-77731904D01*
X76542380Y-77827142D01*
X76542380Y-78065238D01*
X76590000Y-78160476D01*
X76637619Y-78208095D01*
X76732857Y-78255714D01*
X76828095Y-78255714D01*
X76970952Y-78208095D01*
X77542380Y-77636666D01*
X77542380Y-78255714D01*
X85922380Y-77303333D02*
X85446190Y-76970000D01*
X85922380Y-76731904D02*
X84922380Y-76731904D01*
X84922380Y-77112857D01*
X84970000Y-77208095D01*
X85017619Y-77255714D01*
X85112857Y-77303333D01*
X85255714Y-77303333D01*
X85350952Y-77255714D01*
X85398571Y-77208095D01*
X85446190Y-77112857D01*
X85446190Y-76731904D01*
X85922380Y-78255714D02*
X85922380Y-77684285D01*
X85922380Y-77970000D02*
X84922380Y-77970000D01*
X85065238Y-77874761D01*
X85160476Y-77779523D01*
X85208095Y-77684285D01*
X107587142Y-50633333D02*
X107634761Y-50585714D01*
X107682380Y-50442857D01*
X107682380Y-50347619D01*
X107634761Y-50204761D01*
X107539523Y-50109523D01*
X107444285Y-50061904D01*
X107253809Y-50014285D01*
X107110952Y-50014285D01*
X106920476Y-50061904D01*
X106825238Y-50109523D01*
X106730000Y-50204761D01*
X106682380Y-50347619D01*
X106682380Y-50442857D01*
X106730000Y-50585714D01*
X106777619Y-50633333D01*
X106777619Y-51014285D02*
X106730000Y-51061904D01*
X106682380Y-51157142D01*
X106682380Y-51395238D01*
X106730000Y-51490476D01*
X106777619Y-51538095D01*
X106872857Y-51585714D01*
X106968095Y-51585714D01*
X107110952Y-51538095D01*
X107682380Y-50966666D01*
X107682380Y-51585714D01*
X68746666Y-87267142D02*
X68794285Y-87314761D01*
X68937142Y-87362380D01*
X69032380Y-87362380D01*
X69175238Y-87314761D01*
X69270476Y-87219523D01*
X69318095Y-87124285D01*
X69365714Y-86933809D01*
X69365714Y-86790952D01*
X69318095Y-86600476D01*
X69270476Y-86505238D01*
X69175238Y-86410000D01*
X69032380Y-86362380D01*
X68937142Y-86362380D01*
X68794285Y-86410000D01*
X68746666Y-86457619D01*
X67794285Y-87362380D02*
X68365714Y-87362380D01*
X68080000Y-87362380D02*
X68080000Y-86362380D01*
X68175238Y-86505238D01*
X68270476Y-86600476D01*
X68365714Y-86648095D01*
X131717142Y-84923333D02*
X131764761Y-84875714D01*
X131812380Y-84732857D01*
X131812380Y-84637619D01*
X131764761Y-84494761D01*
X131669523Y-84399523D01*
X131574285Y-84351904D01*
X131383809Y-84304285D01*
X131240952Y-84304285D01*
X131050476Y-84351904D01*
X130955238Y-84399523D01*
X130860000Y-84494761D01*
X130812380Y-84637619D01*
X130812380Y-84732857D01*
X130860000Y-84875714D01*
X130907619Y-84923333D01*
X131812380Y-85399523D02*
X131812380Y-85590000D01*
X131764761Y-85685238D01*
X131717142Y-85732857D01*
X131574285Y-85828095D01*
X131383809Y-85875714D01*
X131002857Y-85875714D01*
X130907619Y-85828095D01*
X130860000Y-85780476D01*
X130812380Y-85685238D01*
X130812380Y-85494761D01*
X130860000Y-85399523D01*
X130907619Y-85351904D01*
X131002857Y-85304285D01*
X131240952Y-85304285D01*
X131336190Y-85351904D01*
X131383809Y-85399523D01*
X131431428Y-85494761D01*
X131431428Y-85685238D01*
X131383809Y-85780476D01*
X131336190Y-85828095D01*
X131240952Y-85875714D01*
X126637142Y-84447142D02*
X126684761Y-84399523D01*
X126732380Y-84256666D01*
X126732380Y-84161428D01*
X126684761Y-84018571D01*
X126589523Y-83923333D01*
X126494285Y-83875714D01*
X126303809Y-83828095D01*
X126160952Y-83828095D01*
X125970476Y-83875714D01*
X125875238Y-83923333D01*
X125780000Y-84018571D01*
X125732380Y-84161428D01*
X125732380Y-84256666D01*
X125780000Y-84399523D01*
X125827619Y-84447142D01*
X126732380Y-85399523D02*
X126732380Y-84828095D01*
X126732380Y-85113809D02*
X125732380Y-85113809D01*
X125875238Y-85018571D01*
X125970476Y-84923333D01*
X126018095Y-84828095D01*
X125732380Y-86018571D02*
X125732380Y-86113809D01*
X125780000Y-86209047D01*
X125827619Y-86256666D01*
X125922857Y-86304285D01*
X126113333Y-86351904D01*
X126351428Y-86351904D01*
X126541904Y-86304285D01*
X126637142Y-86256666D01*
X126684761Y-86209047D01*
X126732380Y-86113809D01*
X126732380Y-86018571D01*
X126684761Y-85923333D01*
X126637142Y-85875714D01*
X126541904Y-85828095D01*
X126351428Y-85780476D01*
X126113333Y-85780476D01*
X125922857Y-85828095D01*
X125827619Y-85875714D01*
X125780000Y-85923333D01*
X125732380Y-86018571D01*
X123702857Y-82187142D02*
X123750476Y-82234761D01*
X123893333Y-82282380D01*
X123988571Y-82282380D01*
X124131428Y-82234761D01*
X124226666Y-82139523D01*
X124274285Y-82044285D01*
X124321904Y-81853809D01*
X124321904Y-81710952D01*
X124274285Y-81520476D01*
X124226666Y-81425238D01*
X124131428Y-81330000D01*
X123988571Y-81282380D01*
X123893333Y-81282380D01*
X123750476Y-81330000D01*
X123702857Y-81377619D01*
X122750476Y-82282380D02*
X123321904Y-82282380D01*
X123036190Y-82282380D02*
X123036190Y-81282380D01*
X123131428Y-81425238D01*
X123226666Y-81520476D01*
X123321904Y-81568095D01*
X121798095Y-82282380D02*
X122369523Y-82282380D01*
X122083809Y-82282380D02*
X122083809Y-81282380D01*
X122179047Y-81425238D01*
X122274285Y-81520476D01*
X122369523Y-81568095D01*
X114942857Y-92347142D02*
X114990476Y-92394761D01*
X115133333Y-92442380D01*
X115228571Y-92442380D01*
X115371428Y-92394761D01*
X115466666Y-92299523D01*
X115514285Y-92204285D01*
X115561904Y-92013809D01*
X115561904Y-91870952D01*
X115514285Y-91680476D01*
X115466666Y-91585238D01*
X115371428Y-91490000D01*
X115228571Y-91442380D01*
X115133333Y-91442380D01*
X114990476Y-91490000D01*
X114942857Y-91537619D01*
X113990476Y-92442380D02*
X114561904Y-92442380D01*
X114276190Y-92442380D02*
X114276190Y-91442380D01*
X114371428Y-91585238D01*
X114466666Y-91680476D01*
X114561904Y-91728095D01*
X113609523Y-91537619D02*
X113561904Y-91490000D01*
X113466666Y-91442380D01*
X113228571Y-91442380D01*
X113133333Y-91490000D01*
X113085714Y-91537619D01*
X113038095Y-91632857D01*
X113038095Y-91728095D01*
X113085714Y-91870952D01*
X113657142Y-92442380D01*
X113038095Y-92442380D01*
X119017142Y-84447142D02*
X119064761Y-84399523D01*
X119112380Y-84256666D01*
X119112380Y-84161428D01*
X119064761Y-84018571D01*
X118969523Y-83923333D01*
X118874285Y-83875714D01*
X118683809Y-83828095D01*
X118540952Y-83828095D01*
X118350476Y-83875714D01*
X118255238Y-83923333D01*
X118160000Y-84018571D01*
X118112380Y-84161428D01*
X118112380Y-84256666D01*
X118160000Y-84399523D01*
X118207619Y-84447142D01*
X119112380Y-85399523D02*
X119112380Y-84828095D01*
X119112380Y-85113809D02*
X118112380Y-85113809D01*
X118255238Y-85018571D01*
X118350476Y-84923333D01*
X118398095Y-84828095D01*
X118112380Y-85732857D02*
X118112380Y-86351904D01*
X118493333Y-86018571D01*
X118493333Y-86161428D01*
X118540952Y-86256666D01*
X118588571Y-86304285D01*
X118683809Y-86351904D01*
X118921904Y-86351904D01*
X119017142Y-86304285D01*
X119064761Y-86256666D01*
X119112380Y-86161428D01*
X119112380Y-85875714D01*
X119064761Y-85780476D01*
X119017142Y-85732857D01*
X115207142Y-84447142D02*
X115254761Y-84399523D01*
X115302380Y-84256666D01*
X115302380Y-84161428D01*
X115254761Y-84018571D01*
X115159523Y-83923333D01*
X115064285Y-83875714D01*
X114873809Y-83828095D01*
X114730952Y-83828095D01*
X114540476Y-83875714D01*
X114445238Y-83923333D01*
X114350000Y-84018571D01*
X114302380Y-84161428D01*
X114302380Y-84256666D01*
X114350000Y-84399523D01*
X114397619Y-84447142D01*
X115302380Y-85399523D02*
X115302380Y-84828095D01*
X115302380Y-85113809D02*
X114302380Y-85113809D01*
X114445238Y-85018571D01*
X114540476Y-84923333D01*
X114588095Y-84828095D01*
X114635714Y-86256666D02*
X115302380Y-86256666D01*
X114254761Y-86018571D02*
X114969047Y-85780476D01*
X114969047Y-86399523D01*
X82187142Y-90927142D02*
X82234761Y-90879523D01*
X82282380Y-90736666D01*
X82282380Y-90641428D01*
X82234761Y-90498571D01*
X82139523Y-90403333D01*
X82044285Y-90355714D01*
X81853809Y-90308095D01*
X81710952Y-90308095D01*
X81520476Y-90355714D01*
X81425238Y-90403333D01*
X81330000Y-90498571D01*
X81282380Y-90641428D01*
X81282380Y-90736666D01*
X81330000Y-90879523D01*
X81377619Y-90927142D01*
X82282380Y-91879523D02*
X82282380Y-91308095D01*
X82282380Y-91593809D02*
X81282380Y-91593809D01*
X81425238Y-91498571D01*
X81520476Y-91403333D01*
X81568095Y-91308095D01*
X81282380Y-92784285D02*
X81282380Y-92308095D01*
X81758571Y-92260476D01*
X81710952Y-92308095D01*
X81663333Y-92403333D01*
X81663333Y-92641428D01*
X81710952Y-92736666D01*
X81758571Y-92784285D01*
X81853809Y-92831904D01*
X82091904Y-92831904D01*
X82187142Y-92784285D01*
X82234761Y-92736666D01*
X82282380Y-92641428D01*
X82282380Y-92403333D01*
X82234761Y-92308095D01*
X82187142Y-92260476D01*
M02*
