G04 #@! TF.GenerationSoftware,KiCad,Pcbnew,(5.1.5-0-10_14)*
G04 #@! TF.CreationDate,2020-05-22T11:47:55+02:00*
G04 #@! TF.ProjectId,version2,76657273-696f-46e3-922e-6b696361645f,rev?*
G04 #@! TF.SameCoordinates,Original*
G04 #@! TF.FileFunction,Copper,L2,Bot*
G04 #@! TF.FilePolarity,Positive*
%FSLAX46Y46*%
G04 Gerber Fmt 4.6, Leading zero omitted, Abs format (unit mm)*
G04 Created by KiCad (PCBNEW (5.1.5-0-10_14)) date 2020-05-22 11:47:55*
%MOMM*%
%LPD*%
G04 APERTURE LIST*
%ADD10C,1.524000*%
%ADD11R,0.590000X1.970000*%
%ADD12R,1.700000X1.700000*%
%ADD13C,0.100000*%
%ADD14R,1.981200X0.558800*%
%ADD15R,0.558800X1.981200*%
%ADD16C,0.250000*%
%ADD17C,0.254000*%
G04 APERTURE END LIST*
D10*
X82590640Y-66776600D03*
X90413840Y-74914760D03*
X90444320Y-76814680D03*
X82519520Y-84861400D03*
X80523080Y-84825840D03*
X80467200Y-66746120D03*
D11*
X98425000Y-83885000D03*
X99695000Y-83885000D03*
X100965000Y-83885000D03*
X102235000Y-83885000D03*
X102235000Y-88835000D03*
X100965000Y-88835000D03*
X99695000Y-88835000D03*
X98425000Y-88835000D03*
D12*
X128270000Y-60960000D03*
G04 #@! TA.AperFunction,SMDPad,CuDef*
D13*
G36*
X102129504Y-79136204D02*
G01*
X102153773Y-79139804D01*
X102177571Y-79145765D01*
X102200671Y-79154030D01*
X102222849Y-79164520D01*
X102243893Y-79177133D01*
X102263598Y-79191747D01*
X102281777Y-79208223D01*
X102298253Y-79226402D01*
X102312867Y-79246107D01*
X102325480Y-79267151D01*
X102335970Y-79289329D01*
X102344235Y-79312429D01*
X102350196Y-79336227D01*
X102353796Y-79360496D01*
X102355000Y-79385000D01*
X102355000Y-80635000D01*
X102353796Y-80659504D01*
X102350196Y-80683773D01*
X102344235Y-80707571D01*
X102335970Y-80730671D01*
X102325480Y-80752849D01*
X102312867Y-80773893D01*
X102298253Y-80793598D01*
X102281777Y-80811777D01*
X102263598Y-80828253D01*
X102243893Y-80842867D01*
X102222849Y-80855480D01*
X102200671Y-80865970D01*
X102177571Y-80874235D01*
X102153773Y-80880196D01*
X102129504Y-80883796D01*
X102105000Y-80885000D01*
X101355000Y-80885000D01*
X101330496Y-80883796D01*
X101306227Y-80880196D01*
X101282429Y-80874235D01*
X101259329Y-80865970D01*
X101237151Y-80855480D01*
X101216107Y-80842867D01*
X101196402Y-80828253D01*
X101178223Y-80811777D01*
X101161747Y-80793598D01*
X101147133Y-80773893D01*
X101134520Y-80752849D01*
X101124030Y-80730671D01*
X101115765Y-80707571D01*
X101109804Y-80683773D01*
X101106204Y-80659504D01*
X101105000Y-80635000D01*
X101105000Y-79385000D01*
X101106204Y-79360496D01*
X101109804Y-79336227D01*
X101115765Y-79312429D01*
X101124030Y-79289329D01*
X101134520Y-79267151D01*
X101147133Y-79246107D01*
X101161747Y-79226402D01*
X101178223Y-79208223D01*
X101196402Y-79191747D01*
X101216107Y-79177133D01*
X101237151Y-79164520D01*
X101259329Y-79154030D01*
X101282429Y-79145765D01*
X101306227Y-79139804D01*
X101330496Y-79136204D01*
X101355000Y-79135000D01*
X102105000Y-79135000D01*
X102129504Y-79136204D01*
G37*
G04 #@! TD.AperFunction*
G04 #@! TA.AperFunction,SMDPad,CuDef*
G36*
X99329504Y-79136204D02*
G01*
X99353773Y-79139804D01*
X99377571Y-79145765D01*
X99400671Y-79154030D01*
X99422849Y-79164520D01*
X99443893Y-79177133D01*
X99463598Y-79191747D01*
X99481777Y-79208223D01*
X99498253Y-79226402D01*
X99512867Y-79246107D01*
X99525480Y-79267151D01*
X99535970Y-79289329D01*
X99544235Y-79312429D01*
X99550196Y-79336227D01*
X99553796Y-79360496D01*
X99555000Y-79385000D01*
X99555000Y-80635000D01*
X99553796Y-80659504D01*
X99550196Y-80683773D01*
X99544235Y-80707571D01*
X99535970Y-80730671D01*
X99525480Y-80752849D01*
X99512867Y-80773893D01*
X99498253Y-80793598D01*
X99481777Y-80811777D01*
X99463598Y-80828253D01*
X99443893Y-80842867D01*
X99422849Y-80855480D01*
X99400671Y-80865970D01*
X99377571Y-80874235D01*
X99353773Y-80880196D01*
X99329504Y-80883796D01*
X99305000Y-80885000D01*
X98555000Y-80885000D01*
X98530496Y-80883796D01*
X98506227Y-80880196D01*
X98482429Y-80874235D01*
X98459329Y-80865970D01*
X98437151Y-80855480D01*
X98416107Y-80842867D01*
X98396402Y-80828253D01*
X98378223Y-80811777D01*
X98361747Y-80793598D01*
X98347133Y-80773893D01*
X98334520Y-80752849D01*
X98324030Y-80730671D01*
X98315765Y-80707571D01*
X98309804Y-80683773D01*
X98306204Y-80659504D01*
X98305000Y-80635000D01*
X98305000Y-79385000D01*
X98306204Y-79360496D01*
X98309804Y-79336227D01*
X98315765Y-79312429D01*
X98324030Y-79289329D01*
X98334520Y-79267151D01*
X98347133Y-79246107D01*
X98361747Y-79226402D01*
X98378223Y-79208223D01*
X98396402Y-79191747D01*
X98416107Y-79177133D01*
X98437151Y-79164520D01*
X98459329Y-79154030D01*
X98482429Y-79145765D01*
X98506227Y-79139804D01*
X98530496Y-79136204D01*
X98555000Y-79135000D01*
X99305000Y-79135000D01*
X99329504Y-79136204D01*
G37*
G04 #@! TD.AperFunction*
G04 #@! TA.AperFunction,SMDPad,CuDef*
G36*
X111139504Y-76976204D02*
G01*
X111163773Y-76979804D01*
X111187571Y-76985765D01*
X111210671Y-76994030D01*
X111232849Y-77004520D01*
X111253893Y-77017133D01*
X111273598Y-77031747D01*
X111291777Y-77048223D01*
X111308253Y-77066402D01*
X111322867Y-77086107D01*
X111335480Y-77107151D01*
X111345970Y-77129329D01*
X111354235Y-77152429D01*
X111360196Y-77176227D01*
X111363796Y-77200496D01*
X111365000Y-77225000D01*
X111365000Y-77975000D01*
X111363796Y-77999504D01*
X111360196Y-78023773D01*
X111354235Y-78047571D01*
X111345970Y-78070671D01*
X111335480Y-78092849D01*
X111322867Y-78113893D01*
X111308253Y-78133598D01*
X111291777Y-78151777D01*
X111273598Y-78168253D01*
X111253893Y-78182867D01*
X111232849Y-78195480D01*
X111210671Y-78205970D01*
X111187571Y-78214235D01*
X111163773Y-78220196D01*
X111139504Y-78223796D01*
X111115000Y-78225000D01*
X109865000Y-78225000D01*
X109840496Y-78223796D01*
X109816227Y-78220196D01*
X109792429Y-78214235D01*
X109769329Y-78205970D01*
X109747151Y-78195480D01*
X109726107Y-78182867D01*
X109706402Y-78168253D01*
X109688223Y-78151777D01*
X109671747Y-78133598D01*
X109657133Y-78113893D01*
X109644520Y-78092849D01*
X109634030Y-78070671D01*
X109625765Y-78047571D01*
X109619804Y-78023773D01*
X109616204Y-77999504D01*
X109615000Y-77975000D01*
X109615000Y-77225000D01*
X109616204Y-77200496D01*
X109619804Y-77176227D01*
X109625765Y-77152429D01*
X109634030Y-77129329D01*
X109644520Y-77107151D01*
X109657133Y-77086107D01*
X109671747Y-77066402D01*
X109688223Y-77048223D01*
X109706402Y-77031747D01*
X109726107Y-77017133D01*
X109747151Y-77004520D01*
X109769329Y-76994030D01*
X109792429Y-76985765D01*
X109816227Y-76979804D01*
X109840496Y-76976204D01*
X109865000Y-76975000D01*
X111115000Y-76975000D01*
X111139504Y-76976204D01*
G37*
G04 #@! TD.AperFunction*
G04 #@! TA.AperFunction,SMDPad,CuDef*
G36*
X111139504Y-74176204D02*
G01*
X111163773Y-74179804D01*
X111187571Y-74185765D01*
X111210671Y-74194030D01*
X111232849Y-74204520D01*
X111253893Y-74217133D01*
X111273598Y-74231747D01*
X111291777Y-74248223D01*
X111308253Y-74266402D01*
X111322867Y-74286107D01*
X111335480Y-74307151D01*
X111345970Y-74329329D01*
X111354235Y-74352429D01*
X111360196Y-74376227D01*
X111363796Y-74400496D01*
X111365000Y-74425000D01*
X111365000Y-75175000D01*
X111363796Y-75199504D01*
X111360196Y-75223773D01*
X111354235Y-75247571D01*
X111345970Y-75270671D01*
X111335480Y-75292849D01*
X111322867Y-75313893D01*
X111308253Y-75333598D01*
X111291777Y-75351777D01*
X111273598Y-75368253D01*
X111253893Y-75382867D01*
X111232849Y-75395480D01*
X111210671Y-75405970D01*
X111187571Y-75414235D01*
X111163773Y-75420196D01*
X111139504Y-75423796D01*
X111115000Y-75425000D01*
X109865000Y-75425000D01*
X109840496Y-75423796D01*
X109816227Y-75420196D01*
X109792429Y-75414235D01*
X109769329Y-75405970D01*
X109747151Y-75395480D01*
X109726107Y-75382867D01*
X109706402Y-75368253D01*
X109688223Y-75351777D01*
X109671747Y-75333598D01*
X109657133Y-75313893D01*
X109644520Y-75292849D01*
X109634030Y-75270671D01*
X109625765Y-75247571D01*
X109619804Y-75223773D01*
X109616204Y-75199504D01*
X109615000Y-75175000D01*
X109615000Y-74425000D01*
X109616204Y-74400496D01*
X109619804Y-74376227D01*
X109625765Y-74352429D01*
X109634030Y-74329329D01*
X109644520Y-74307151D01*
X109657133Y-74286107D01*
X109671747Y-74266402D01*
X109688223Y-74248223D01*
X109706402Y-74231747D01*
X109726107Y-74217133D01*
X109747151Y-74204520D01*
X109769329Y-74194030D01*
X109792429Y-74185765D01*
X109816227Y-74179804D01*
X109840496Y-74176204D01*
X109865000Y-74175000D01*
X111115000Y-74175000D01*
X111139504Y-74176204D01*
G37*
G04 #@! TD.AperFunction*
G04 #@! TA.AperFunction,SMDPad,CuDef*
G36*
X94629504Y-90946204D02*
G01*
X94653773Y-90949804D01*
X94677571Y-90955765D01*
X94700671Y-90964030D01*
X94722849Y-90974520D01*
X94743893Y-90987133D01*
X94763598Y-91001747D01*
X94781777Y-91018223D01*
X94798253Y-91036402D01*
X94812867Y-91056107D01*
X94825480Y-91077151D01*
X94835970Y-91099329D01*
X94844235Y-91122429D01*
X94850196Y-91146227D01*
X94853796Y-91170496D01*
X94855000Y-91195000D01*
X94855000Y-91945000D01*
X94853796Y-91969504D01*
X94850196Y-91993773D01*
X94844235Y-92017571D01*
X94835970Y-92040671D01*
X94825480Y-92062849D01*
X94812867Y-92083893D01*
X94798253Y-92103598D01*
X94781777Y-92121777D01*
X94763598Y-92138253D01*
X94743893Y-92152867D01*
X94722849Y-92165480D01*
X94700671Y-92175970D01*
X94677571Y-92184235D01*
X94653773Y-92190196D01*
X94629504Y-92193796D01*
X94605000Y-92195000D01*
X93355000Y-92195000D01*
X93330496Y-92193796D01*
X93306227Y-92190196D01*
X93282429Y-92184235D01*
X93259329Y-92175970D01*
X93237151Y-92165480D01*
X93216107Y-92152867D01*
X93196402Y-92138253D01*
X93178223Y-92121777D01*
X93161747Y-92103598D01*
X93147133Y-92083893D01*
X93134520Y-92062849D01*
X93124030Y-92040671D01*
X93115765Y-92017571D01*
X93109804Y-91993773D01*
X93106204Y-91969504D01*
X93105000Y-91945000D01*
X93105000Y-91195000D01*
X93106204Y-91170496D01*
X93109804Y-91146227D01*
X93115765Y-91122429D01*
X93124030Y-91099329D01*
X93134520Y-91077151D01*
X93147133Y-91056107D01*
X93161747Y-91036402D01*
X93178223Y-91018223D01*
X93196402Y-91001747D01*
X93216107Y-90987133D01*
X93237151Y-90974520D01*
X93259329Y-90964030D01*
X93282429Y-90955765D01*
X93306227Y-90949804D01*
X93330496Y-90946204D01*
X93355000Y-90945000D01*
X94605000Y-90945000D01*
X94629504Y-90946204D01*
G37*
G04 #@! TD.AperFunction*
G04 #@! TA.AperFunction,SMDPad,CuDef*
G36*
X94629504Y-88146204D02*
G01*
X94653773Y-88149804D01*
X94677571Y-88155765D01*
X94700671Y-88164030D01*
X94722849Y-88174520D01*
X94743893Y-88187133D01*
X94763598Y-88201747D01*
X94781777Y-88218223D01*
X94798253Y-88236402D01*
X94812867Y-88256107D01*
X94825480Y-88277151D01*
X94835970Y-88299329D01*
X94844235Y-88322429D01*
X94850196Y-88346227D01*
X94853796Y-88370496D01*
X94855000Y-88395000D01*
X94855000Y-89145000D01*
X94853796Y-89169504D01*
X94850196Y-89193773D01*
X94844235Y-89217571D01*
X94835970Y-89240671D01*
X94825480Y-89262849D01*
X94812867Y-89283893D01*
X94798253Y-89303598D01*
X94781777Y-89321777D01*
X94763598Y-89338253D01*
X94743893Y-89352867D01*
X94722849Y-89365480D01*
X94700671Y-89375970D01*
X94677571Y-89384235D01*
X94653773Y-89390196D01*
X94629504Y-89393796D01*
X94605000Y-89395000D01*
X93355000Y-89395000D01*
X93330496Y-89393796D01*
X93306227Y-89390196D01*
X93282429Y-89384235D01*
X93259329Y-89375970D01*
X93237151Y-89365480D01*
X93216107Y-89352867D01*
X93196402Y-89338253D01*
X93178223Y-89321777D01*
X93161747Y-89303598D01*
X93147133Y-89283893D01*
X93134520Y-89262849D01*
X93124030Y-89240671D01*
X93115765Y-89217571D01*
X93109804Y-89193773D01*
X93106204Y-89169504D01*
X93105000Y-89145000D01*
X93105000Y-88395000D01*
X93106204Y-88370496D01*
X93109804Y-88346227D01*
X93115765Y-88322429D01*
X93124030Y-88299329D01*
X93134520Y-88277151D01*
X93147133Y-88256107D01*
X93161747Y-88236402D01*
X93178223Y-88218223D01*
X93196402Y-88201747D01*
X93216107Y-88187133D01*
X93237151Y-88174520D01*
X93259329Y-88164030D01*
X93282429Y-88155765D01*
X93306227Y-88149804D01*
X93330496Y-88146204D01*
X93355000Y-88145000D01*
X94605000Y-88145000D01*
X94629504Y-88146204D01*
G37*
G04 #@! TD.AperFunction*
G04 #@! TA.AperFunction,SMDPad,CuDef*
G36*
X114145142Y-51886174D02*
G01*
X114168803Y-51889684D01*
X114192007Y-51895496D01*
X114214529Y-51903554D01*
X114236153Y-51913782D01*
X114256670Y-51926079D01*
X114275883Y-51940329D01*
X114293607Y-51956393D01*
X114309671Y-51974117D01*
X114323921Y-51993330D01*
X114336218Y-52013847D01*
X114346446Y-52035471D01*
X114354504Y-52057993D01*
X114360316Y-52081197D01*
X114363826Y-52104858D01*
X114365000Y-52128750D01*
X114365000Y-52616250D01*
X114363826Y-52640142D01*
X114360316Y-52663803D01*
X114354504Y-52687007D01*
X114346446Y-52709529D01*
X114336218Y-52731153D01*
X114323921Y-52751670D01*
X114309671Y-52770883D01*
X114293607Y-52788607D01*
X114275883Y-52804671D01*
X114256670Y-52818921D01*
X114236153Y-52831218D01*
X114214529Y-52841446D01*
X114192007Y-52849504D01*
X114168803Y-52855316D01*
X114145142Y-52858826D01*
X114121250Y-52860000D01*
X113208750Y-52860000D01*
X113184858Y-52858826D01*
X113161197Y-52855316D01*
X113137993Y-52849504D01*
X113115471Y-52841446D01*
X113093847Y-52831218D01*
X113073330Y-52818921D01*
X113054117Y-52804671D01*
X113036393Y-52788607D01*
X113020329Y-52770883D01*
X113006079Y-52751670D01*
X112993782Y-52731153D01*
X112983554Y-52709529D01*
X112975496Y-52687007D01*
X112969684Y-52663803D01*
X112966174Y-52640142D01*
X112965000Y-52616250D01*
X112965000Y-52128750D01*
X112966174Y-52104858D01*
X112969684Y-52081197D01*
X112975496Y-52057993D01*
X112983554Y-52035471D01*
X112993782Y-52013847D01*
X113006079Y-51993330D01*
X113020329Y-51974117D01*
X113036393Y-51956393D01*
X113054117Y-51940329D01*
X113073330Y-51926079D01*
X113093847Y-51913782D01*
X113115471Y-51903554D01*
X113137993Y-51895496D01*
X113161197Y-51889684D01*
X113184858Y-51886174D01*
X113208750Y-51885000D01*
X114121250Y-51885000D01*
X114145142Y-51886174D01*
G37*
G04 #@! TD.AperFunction*
G04 #@! TA.AperFunction,SMDPad,CuDef*
G36*
X114145142Y-50011174D02*
G01*
X114168803Y-50014684D01*
X114192007Y-50020496D01*
X114214529Y-50028554D01*
X114236153Y-50038782D01*
X114256670Y-50051079D01*
X114275883Y-50065329D01*
X114293607Y-50081393D01*
X114309671Y-50099117D01*
X114323921Y-50118330D01*
X114336218Y-50138847D01*
X114346446Y-50160471D01*
X114354504Y-50182993D01*
X114360316Y-50206197D01*
X114363826Y-50229858D01*
X114365000Y-50253750D01*
X114365000Y-50741250D01*
X114363826Y-50765142D01*
X114360316Y-50788803D01*
X114354504Y-50812007D01*
X114346446Y-50834529D01*
X114336218Y-50856153D01*
X114323921Y-50876670D01*
X114309671Y-50895883D01*
X114293607Y-50913607D01*
X114275883Y-50929671D01*
X114256670Y-50943921D01*
X114236153Y-50956218D01*
X114214529Y-50966446D01*
X114192007Y-50974504D01*
X114168803Y-50980316D01*
X114145142Y-50983826D01*
X114121250Y-50985000D01*
X113208750Y-50985000D01*
X113184858Y-50983826D01*
X113161197Y-50980316D01*
X113137993Y-50974504D01*
X113115471Y-50966446D01*
X113093847Y-50956218D01*
X113073330Y-50943921D01*
X113054117Y-50929671D01*
X113036393Y-50913607D01*
X113020329Y-50895883D01*
X113006079Y-50876670D01*
X112993782Y-50856153D01*
X112983554Y-50834529D01*
X112975496Y-50812007D01*
X112969684Y-50788803D01*
X112966174Y-50765142D01*
X112965000Y-50741250D01*
X112965000Y-50253750D01*
X112966174Y-50229858D01*
X112969684Y-50206197D01*
X112975496Y-50182993D01*
X112983554Y-50160471D01*
X112993782Y-50138847D01*
X113006079Y-50118330D01*
X113020329Y-50099117D01*
X113036393Y-50081393D01*
X113054117Y-50065329D01*
X113073330Y-50051079D01*
X113093847Y-50038782D01*
X113115471Y-50028554D01*
X113137993Y-50020496D01*
X113161197Y-50014684D01*
X113184858Y-50011174D01*
X113208750Y-50010000D01*
X114121250Y-50010000D01*
X114145142Y-50011174D01*
G37*
G04 #@! TD.AperFunction*
G04 #@! TA.AperFunction,SMDPad,CuDef*
G36*
X116219504Y-76976204D02*
G01*
X116243773Y-76979804D01*
X116267571Y-76985765D01*
X116290671Y-76994030D01*
X116312849Y-77004520D01*
X116333893Y-77017133D01*
X116353598Y-77031747D01*
X116371777Y-77048223D01*
X116388253Y-77066402D01*
X116402867Y-77086107D01*
X116415480Y-77107151D01*
X116425970Y-77129329D01*
X116434235Y-77152429D01*
X116440196Y-77176227D01*
X116443796Y-77200496D01*
X116445000Y-77225000D01*
X116445000Y-77975000D01*
X116443796Y-77999504D01*
X116440196Y-78023773D01*
X116434235Y-78047571D01*
X116425970Y-78070671D01*
X116415480Y-78092849D01*
X116402867Y-78113893D01*
X116388253Y-78133598D01*
X116371777Y-78151777D01*
X116353598Y-78168253D01*
X116333893Y-78182867D01*
X116312849Y-78195480D01*
X116290671Y-78205970D01*
X116267571Y-78214235D01*
X116243773Y-78220196D01*
X116219504Y-78223796D01*
X116195000Y-78225000D01*
X114945000Y-78225000D01*
X114920496Y-78223796D01*
X114896227Y-78220196D01*
X114872429Y-78214235D01*
X114849329Y-78205970D01*
X114827151Y-78195480D01*
X114806107Y-78182867D01*
X114786402Y-78168253D01*
X114768223Y-78151777D01*
X114751747Y-78133598D01*
X114737133Y-78113893D01*
X114724520Y-78092849D01*
X114714030Y-78070671D01*
X114705765Y-78047571D01*
X114699804Y-78023773D01*
X114696204Y-77999504D01*
X114695000Y-77975000D01*
X114695000Y-77225000D01*
X114696204Y-77200496D01*
X114699804Y-77176227D01*
X114705765Y-77152429D01*
X114714030Y-77129329D01*
X114724520Y-77107151D01*
X114737133Y-77086107D01*
X114751747Y-77066402D01*
X114768223Y-77048223D01*
X114786402Y-77031747D01*
X114806107Y-77017133D01*
X114827151Y-77004520D01*
X114849329Y-76994030D01*
X114872429Y-76985765D01*
X114896227Y-76979804D01*
X114920496Y-76976204D01*
X114945000Y-76975000D01*
X116195000Y-76975000D01*
X116219504Y-76976204D01*
G37*
G04 #@! TD.AperFunction*
G04 #@! TA.AperFunction,SMDPad,CuDef*
G36*
X116219504Y-74176204D02*
G01*
X116243773Y-74179804D01*
X116267571Y-74185765D01*
X116290671Y-74194030D01*
X116312849Y-74204520D01*
X116333893Y-74217133D01*
X116353598Y-74231747D01*
X116371777Y-74248223D01*
X116388253Y-74266402D01*
X116402867Y-74286107D01*
X116415480Y-74307151D01*
X116425970Y-74329329D01*
X116434235Y-74352429D01*
X116440196Y-74376227D01*
X116443796Y-74400496D01*
X116445000Y-74425000D01*
X116445000Y-75175000D01*
X116443796Y-75199504D01*
X116440196Y-75223773D01*
X116434235Y-75247571D01*
X116425970Y-75270671D01*
X116415480Y-75292849D01*
X116402867Y-75313893D01*
X116388253Y-75333598D01*
X116371777Y-75351777D01*
X116353598Y-75368253D01*
X116333893Y-75382867D01*
X116312849Y-75395480D01*
X116290671Y-75405970D01*
X116267571Y-75414235D01*
X116243773Y-75420196D01*
X116219504Y-75423796D01*
X116195000Y-75425000D01*
X114945000Y-75425000D01*
X114920496Y-75423796D01*
X114896227Y-75420196D01*
X114872429Y-75414235D01*
X114849329Y-75405970D01*
X114827151Y-75395480D01*
X114806107Y-75382867D01*
X114786402Y-75368253D01*
X114768223Y-75351777D01*
X114751747Y-75333598D01*
X114737133Y-75313893D01*
X114724520Y-75292849D01*
X114714030Y-75270671D01*
X114705765Y-75247571D01*
X114699804Y-75223773D01*
X114696204Y-75199504D01*
X114695000Y-75175000D01*
X114695000Y-74425000D01*
X114696204Y-74400496D01*
X114699804Y-74376227D01*
X114705765Y-74352429D01*
X114714030Y-74329329D01*
X114724520Y-74307151D01*
X114737133Y-74286107D01*
X114751747Y-74266402D01*
X114768223Y-74248223D01*
X114786402Y-74231747D01*
X114806107Y-74217133D01*
X114827151Y-74204520D01*
X114849329Y-74194030D01*
X114872429Y-74185765D01*
X114896227Y-74179804D01*
X114920496Y-74176204D01*
X114945000Y-74175000D01*
X116195000Y-74175000D01*
X116219504Y-74176204D01*
G37*
G04 #@! TD.AperFunction*
G04 #@! TA.AperFunction,SMDPad,CuDef*
G36*
X109234504Y-83196204D02*
G01*
X109258773Y-83199804D01*
X109282571Y-83205765D01*
X109305671Y-83214030D01*
X109327849Y-83224520D01*
X109348893Y-83237133D01*
X109368598Y-83251747D01*
X109386777Y-83268223D01*
X109403253Y-83286402D01*
X109417867Y-83306107D01*
X109430480Y-83327151D01*
X109440970Y-83349329D01*
X109449235Y-83372429D01*
X109455196Y-83396227D01*
X109458796Y-83420496D01*
X109460000Y-83445000D01*
X109460000Y-84195000D01*
X109458796Y-84219504D01*
X109455196Y-84243773D01*
X109449235Y-84267571D01*
X109440970Y-84290671D01*
X109430480Y-84312849D01*
X109417867Y-84333893D01*
X109403253Y-84353598D01*
X109386777Y-84371777D01*
X109368598Y-84388253D01*
X109348893Y-84402867D01*
X109327849Y-84415480D01*
X109305671Y-84425970D01*
X109282571Y-84434235D01*
X109258773Y-84440196D01*
X109234504Y-84443796D01*
X109210000Y-84445000D01*
X107960000Y-84445000D01*
X107935496Y-84443796D01*
X107911227Y-84440196D01*
X107887429Y-84434235D01*
X107864329Y-84425970D01*
X107842151Y-84415480D01*
X107821107Y-84402867D01*
X107801402Y-84388253D01*
X107783223Y-84371777D01*
X107766747Y-84353598D01*
X107752133Y-84333893D01*
X107739520Y-84312849D01*
X107729030Y-84290671D01*
X107720765Y-84267571D01*
X107714804Y-84243773D01*
X107711204Y-84219504D01*
X107710000Y-84195000D01*
X107710000Y-83445000D01*
X107711204Y-83420496D01*
X107714804Y-83396227D01*
X107720765Y-83372429D01*
X107729030Y-83349329D01*
X107739520Y-83327151D01*
X107752133Y-83306107D01*
X107766747Y-83286402D01*
X107783223Y-83268223D01*
X107801402Y-83251747D01*
X107821107Y-83237133D01*
X107842151Y-83224520D01*
X107864329Y-83214030D01*
X107887429Y-83205765D01*
X107911227Y-83199804D01*
X107935496Y-83196204D01*
X107960000Y-83195000D01*
X109210000Y-83195000D01*
X109234504Y-83196204D01*
G37*
G04 #@! TD.AperFunction*
G04 #@! TA.AperFunction,SMDPad,CuDef*
G36*
X109234504Y-85996204D02*
G01*
X109258773Y-85999804D01*
X109282571Y-86005765D01*
X109305671Y-86014030D01*
X109327849Y-86024520D01*
X109348893Y-86037133D01*
X109368598Y-86051747D01*
X109386777Y-86068223D01*
X109403253Y-86086402D01*
X109417867Y-86106107D01*
X109430480Y-86127151D01*
X109440970Y-86149329D01*
X109449235Y-86172429D01*
X109455196Y-86196227D01*
X109458796Y-86220496D01*
X109460000Y-86245000D01*
X109460000Y-86995000D01*
X109458796Y-87019504D01*
X109455196Y-87043773D01*
X109449235Y-87067571D01*
X109440970Y-87090671D01*
X109430480Y-87112849D01*
X109417867Y-87133893D01*
X109403253Y-87153598D01*
X109386777Y-87171777D01*
X109368598Y-87188253D01*
X109348893Y-87202867D01*
X109327849Y-87215480D01*
X109305671Y-87225970D01*
X109282571Y-87234235D01*
X109258773Y-87240196D01*
X109234504Y-87243796D01*
X109210000Y-87245000D01*
X107960000Y-87245000D01*
X107935496Y-87243796D01*
X107911227Y-87240196D01*
X107887429Y-87234235D01*
X107864329Y-87225970D01*
X107842151Y-87215480D01*
X107821107Y-87202867D01*
X107801402Y-87188253D01*
X107783223Y-87171777D01*
X107766747Y-87153598D01*
X107752133Y-87133893D01*
X107739520Y-87112849D01*
X107729030Y-87090671D01*
X107720765Y-87067571D01*
X107714804Y-87043773D01*
X107711204Y-87019504D01*
X107710000Y-86995000D01*
X107710000Y-86245000D01*
X107711204Y-86220496D01*
X107714804Y-86196227D01*
X107720765Y-86172429D01*
X107729030Y-86149329D01*
X107739520Y-86127151D01*
X107752133Y-86106107D01*
X107766747Y-86086402D01*
X107783223Y-86068223D01*
X107801402Y-86051747D01*
X107821107Y-86037133D01*
X107842151Y-86024520D01*
X107864329Y-86014030D01*
X107887429Y-86005765D01*
X107911227Y-85999804D01*
X107935496Y-85996204D01*
X107960000Y-85995000D01*
X109210000Y-85995000D01*
X109234504Y-85996204D01*
G37*
G04 #@! TD.AperFunction*
D14*
X120573800Y-62865000D03*
X120573800Y-61595000D03*
X120573800Y-60325000D03*
X120573800Y-59055000D03*
X115646200Y-59055000D03*
X115646200Y-60325000D03*
X115646200Y-61595000D03*
X115646200Y-62865000D03*
D15*
X84455000Y-96443800D03*
X85725000Y-96443800D03*
X86995000Y-96443800D03*
X88265000Y-96443800D03*
X88265000Y-91516200D03*
X86995000Y-91516200D03*
X85725000Y-91516200D03*
X84455000Y-91516200D03*
X67945000Y-73736200D03*
X66675000Y-73736200D03*
X65405000Y-73736200D03*
X64135000Y-73736200D03*
X64135000Y-78663800D03*
X65405000Y-78663800D03*
X66675000Y-78663800D03*
X67945000Y-78663800D03*
G04 #@! TA.AperFunction,SMDPad,CuDef*
D13*
G36*
X110335142Y-51886174D02*
G01*
X110358803Y-51889684D01*
X110382007Y-51895496D01*
X110404529Y-51903554D01*
X110426153Y-51913782D01*
X110446670Y-51926079D01*
X110465883Y-51940329D01*
X110483607Y-51956393D01*
X110499671Y-51974117D01*
X110513921Y-51993330D01*
X110526218Y-52013847D01*
X110536446Y-52035471D01*
X110544504Y-52057993D01*
X110550316Y-52081197D01*
X110553826Y-52104858D01*
X110555000Y-52128750D01*
X110555000Y-52616250D01*
X110553826Y-52640142D01*
X110550316Y-52663803D01*
X110544504Y-52687007D01*
X110536446Y-52709529D01*
X110526218Y-52731153D01*
X110513921Y-52751670D01*
X110499671Y-52770883D01*
X110483607Y-52788607D01*
X110465883Y-52804671D01*
X110446670Y-52818921D01*
X110426153Y-52831218D01*
X110404529Y-52841446D01*
X110382007Y-52849504D01*
X110358803Y-52855316D01*
X110335142Y-52858826D01*
X110311250Y-52860000D01*
X109398750Y-52860000D01*
X109374858Y-52858826D01*
X109351197Y-52855316D01*
X109327993Y-52849504D01*
X109305471Y-52841446D01*
X109283847Y-52831218D01*
X109263330Y-52818921D01*
X109244117Y-52804671D01*
X109226393Y-52788607D01*
X109210329Y-52770883D01*
X109196079Y-52751670D01*
X109183782Y-52731153D01*
X109173554Y-52709529D01*
X109165496Y-52687007D01*
X109159684Y-52663803D01*
X109156174Y-52640142D01*
X109155000Y-52616250D01*
X109155000Y-52128750D01*
X109156174Y-52104858D01*
X109159684Y-52081197D01*
X109165496Y-52057993D01*
X109173554Y-52035471D01*
X109183782Y-52013847D01*
X109196079Y-51993330D01*
X109210329Y-51974117D01*
X109226393Y-51956393D01*
X109244117Y-51940329D01*
X109263330Y-51926079D01*
X109283847Y-51913782D01*
X109305471Y-51903554D01*
X109327993Y-51895496D01*
X109351197Y-51889684D01*
X109374858Y-51886174D01*
X109398750Y-51885000D01*
X110311250Y-51885000D01*
X110335142Y-51886174D01*
G37*
G04 #@! TD.AperFunction*
G04 #@! TA.AperFunction,SMDPad,CuDef*
G36*
X110335142Y-50011174D02*
G01*
X110358803Y-50014684D01*
X110382007Y-50020496D01*
X110404529Y-50028554D01*
X110426153Y-50038782D01*
X110446670Y-50051079D01*
X110465883Y-50065329D01*
X110483607Y-50081393D01*
X110499671Y-50099117D01*
X110513921Y-50118330D01*
X110526218Y-50138847D01*
X110536446Y-50160471D01*
X110544504Y-50182993D01*
X110550316Y-50206197D01*
X110553826Y-50229858D01*
X110555000Y-50253750D01*
X110555000Y-50741250D01*
X110553826Y-50765142D01*
X110550316Y-50788803D01*
X110544504Y-50812007D01*
X110536446Y-50834529D01*
X110526218Y-50856153D01*
X110513921Y-50876670D01*
X110499671Y-50895883D01*
X110483607Y-50913607D01*
X110465883Y-50929671D01*
X110446670Y-50943921D01*
X110426153Y-50956218D01*
X110404529Y-50966446D01*
X110382007Y-50974504D01*
X110358803Y-50980316D01*
X110335142Y-50983826D01*
X110311250Y-50985000D01*
X109398750Y-50985000D01*
X109374858Y-50983826D01*
X109351197Y-50980316D01*
X109327993Y-50974504D01*
X109305471Y-50966446D01*
X109283847Y-50956218D01*
X109263330Y-50943921D01*
X109244117Y-50929671D01*
X109226393Y-50913607D01*
X109210329Y-50895883D01*
X109196079Y-50876670D01*
X109183782Y-50856153D01*
X109173554Y-50834529D01*
X109165496Y-50812007D01*
X109159684Y-50788803D01*
X109156174Y-50765142D01*
X109155000Y-50741250D01*
X109155000Y-50253750D01*
X109156174Y-50229858D01*
X109159684Y-50206197D01*
X109165496Y-50182993D01*
X109173554Y-50160471D01*
X109183782Y-50138847D01*
X109196079Y-50118330D01*
X109210329Y-50099117D01*
X109226393Y-50081393D01*
X109244117Y-50065329D01*
X109263330Y-50051079D01*
X109283847Y-50038782D01*
X109305471Y-50028554D01*
X109327993Y-50020496D01*
X109351197Y-50014684D01*
X109374858Y-50011174D01*
X109398750Y-50010000D01*
X110311250Y-50010000D01*
X110335142Y-50011174D01*
G37*
G04 #@! TD.AperFunction*
G04 #@! TA.AperFunction,SMDPad,CuDef*
G36*
X91375142Y-58991174D02*
G01*
X91398803Y-58994684D01*
X91422007Y-59000496D01*
X91444529Y-59008554D01*
X91466153Y-59018782D01*
X91486670Y-59031079D01*
X91505883Y-59045329D01*
X91523607Y-59061393D01*
X91539671Y-59079117D01*
X91553921Y-59098330D01*
X91566218Y-59118847D01*
X91576446Y-59140471D01*
X91584504Y-59162993D01*
X91590316Y-59186197D01*
X91593826Y-59209858D01*
X91595000Y-59233750D01*
X91595000Y-60146250D01*
X91593826Y-60170142D01*
X91590316Y-60193803D01*
X91584504Y-60217007D01*
X91576446Y-60239529D01*
X91566218Y-60261153D01*
X91553921Y-60281670D01*
X91539671Y-60300883D01*
X91523607Y-60318607D01*
X91505883Y-60334671D01*
X91486670Y-60348921D01*
X91466153Y-60361218D01*
X91444529Y-60371446D01*
X91422007Y-60379504D01*
X91398803Y-60385316D01*
X91375142Y-60388826D01*
X91351250Y-60390000D01*
X90863750Y-60390000D01*
X90839858Y-60388826D01*
X90816197Y-60385316D01*
X90792993Y-60379504D01*
X90770471Y-60371446D01*
X90748847Y-60361218D01*
X90728330Y-60348921D01*
X90709117Y-60334671D01*
X90691393Y-60318607D01*
X90675329Y-60300883D01*
X90661079Y-60281670D01*
X90648782Y-60261153D01*
X90638554Y-60239529D01*
X90630496Y-60217007D01*
X90624684Y-60193803D01*
X90621174Y-60170142D01*
X90620000Y-60146250D01*
X90620000Y-59233750D01*
X90621174Y-59209858D01*
X90624684Y-59186197D01*
X90630496Y-59162993D01*
X90638554Y-59140471D01*
X90648782Y-59118847D01*
X90661079Y-59098330D01*
X90675329Y-59079117D01*
X90691393Y-59061393D01*
X90709117Y-59045329D01*
X90728330Y-59031079D01*
X90748847Y-59018782D01*
X90770471Y-59008554D01*
X90792993Y-59000496D01*
X90816197Y-58994684D01*
X90839858Y-58991174D01*
X90863750Y-58990000D01*
X91351250Y-58990000D01*
X91375142Y-58991174D01*
G37*
G04 #@! TD.AperFunction*
G04 #@! TA.AperFunction,SMDPad,CuDef*
G36*
X89500142Y-58991174D02*
G01*
X89523803Y-58994684D01*
X89547007Y-59000496D01*
X89569529Y-59008554D01*
X89591153Y-59018782D01*
X89611670Y-59031079D01*
X89630883Y-59045329D01*
X89648607Y-59061393D01*
X89664671Y-59079117D01*
X89678921Y-59098330D01*
X89691218Y-59118847D01*
X89701446Y-59140471D01*
X89709504Y-59162993D01*
X89715316Y-59186197D01*
X89718826Y-59209858D01*
X89720000Y-59233750D01*
X89720000Y-60146250D01*
X89718826Y-60170142D01*
X89715316Y-60193803D01*
X89709504Y-60217007D01*
X89701446Y-60239529D01*
X89691218Y-60261153D01*
X89678921Y-60281670D01*
X89664671Y-60300883D01*
X89648607Y-60318607D01*
X89630883Y-60334671D01*
X89611670Y-60348921D01*
X89591153Y-60361218D01*
X89569529Y-60371446D01*
X89547007Y-60379504D01*
X89523803Y-60385316D01*
X89500142Y-60388826D01*
X89476250Y-60390000D01*
X88988750Y-60390000D01*
X88964858Y-60388826D01*
X88941197Y-60385316D01*
X88917993Y-60379504D01*
X88895471Y-60371446D01*
X88873847Y-60361218D01*
X88853330Y-60348921D01*
X88834117Y-60334671D01*
X88816393Y-60318607D01*
X88800329Y-60300883D01*
X88786079Y-60281670D01*
X88773782Y-60261153D01*
X88763554Y-60239529D01*
X88755496Y-60217007D01*
X88749684Y-60193803D01*
X88746174Y-60170142D01*
X88745000Y-60146250D01*
X88745000Y-59233750D01*
X88746174Y-59209858D01*
X88749684Y-59186197D01*
X88755496Y-59162993D01*
X88763554Y-59140471D01*
X88773782Y-59118847D01*
X88786079Y-59098330D01*
X88800329Y-59079117D01*
X88816393Y-59061393D01*
X88834117Y-59045329D01*
X88853330Y-59031079D01*
X88873847Y-59018782D01*
X88895471Y-59008554D01*
X88917993Y-59000496D01*
X88941197Y-58994684D01*
X88964858Y-58991174D01*
X88988750Y-58990000D01*
X89476250Y-58990000D01*
X89500142Y-58991174D01*
G37*
G04 #@! TD.AperFunction*
G04 #@! TA.AperFunction,SMDPad,CuDef*
G36*
X107160142Y-61743674D02*
G01*
X107183803Y-61747184D01*
X107207007Y-61752996D01*
X107229529Y-61761054D01*
X107251153Y-61771282D01*
X107271670Y-61783579D01*
X107290883Y-61797829D01*
X107308607Y-61813893D01*
X107324671Y-61831617D01*
X107338921Y-61850830D01*
X107351218Y-61871347D01*
X107361446Y-61892971D01*
X107369504Y-61915493D01*
X107375316Y-61938697D01*
X107378826Y-61962358D01*
X107380000Y-61986250D01*
X107380000Y-62473750D01*
X107378826Y-62497642D01*
X107375316Y-62521303D01*
X107369504Y-62544507D01*
X107361446Y-62567029D01*
X107351218Y-62588653D01*
X107338921Y-62609170D01*
X107324671Y-62628383D01*
X107308607Y-62646107D01*
X107290883Y-62662171D01*
X107271670Y-62676421D01*
X107251153Y-62688718D01*
X107229529Y-62698946D01*
X107207007Y-62707004D01*
X107183803Y-62712816D01*
X107160142Y-62716326D01*
X107136250Y-62717500D01*
X106223750Y-62717500D01*
X106199858Y-62716326D01*
X106176197Y-62712816D01*
X106152993Y-62707004D01*
X106130471Y-62698946D01*
X106108847Y-62688718D01*
X106088330Y-62676421D01*
X106069117Y-62662171D01*
X106051393Y-62646107D01*
X106035329Y-62628383D01*
X106021079Y-62609170D01*
X106008782Y-62588653D01*
X105998554Y-62567029D01*
X105990496Y-62544507D01*
X105984684Y-62521303D01*
X105981174Y-62497642D01*
X105980000Y-62473750D01*
X105980000Y-61986250D01*
X105981174Y-61962358D01*
X105984684Y-61938697D01*
X105990496Y-61915493D01*
X105998554Y-61892971D01*
X106008782Y-61871347D01*
X106021079Y-61850830D01*
X106035329Y-61831617D01*
X106051393Y-61813893D01*
X106069117Y-61797829D01*
X106088330Y-61783579D01*
X106108847Y-61771282D01*
X106130471Y-61761054D01*
X106152993Y-61752996D01*
X106176197Y-61747184D01*
X106199858Y-61743674D01*
X106223750Y-61742500D01*
X107136250Y-61742500D01*
X107160142Y-61743674D01*
G37*
G04 #@! TD.AperFunction*
G04 #@! TA.AperFunction,SMDPad,CuDef*
G36*
X107160142Y-63618674D02*
G01*
X107183803Y-63622184D01*
X107207007Y-63627996D01*
X107229529Y-63636054D01*
X107251153Y-63646282D01*
X107271670Y-63658579D01*
X107290883Y-63672829D01*
X107308607Y-63688893D01*
X107324671Y-63706617D01*
X107338921Y-63725830D01*
X107351218Y-63746347D01*
X107361446Y-63767971D01*
X107369504Y-63790493D01*
X107375316Y-63813697D01*
X107378826Y-63837358D01*
X107380000Y-63861250D01*
X107380000Y-64348750D01*
X107378826Y-64372642D01*
X107375316Y-64396303D01*
X107369504Y-64419507D01*
X107361446Y-64442029D01*
X107351218Y-64463653D01*
X107338921Y-64484170D01*
X107324671Y-64503383D01*
X107308607Y-64521107D01*
X107290883Y-64537171D01*
X107271670Y-64551421D01*
X107251153Y-64563718D01*
X107229529Y-64573946D01*
X107207007Y-64582004D01*
X107183803Y-64587816D01*
X107160142Y-64591326D01*
X107136250Y-64592500D01*
X106223750Y-64592500D01*
X106199858Y-64591326D01*
X106176197Y-64587816D01*
X106152993Y-64582004D01*
X106130471Y-64573946D01*
X106108847Y-64563718D01*
X106088330Y-64551421D01*
X106069117Y-64537171D01*
X106051393Y-64521107D01*
X106035329Y-64503383D01*
X106021079Y-64484170D01*
X106008782Y-64463653D01*
X105998554Y-64442029D01*
X105990496Y-64419507D01*
X105984684Y-64396303D01*
X105981174Y-64372642D01*
X105980000Y-64348750D01*
X105980000Y-63861250D01*
X105981174Y-63837358D01*
X105984684Y-63813697D01*
X105990496Y-63790493D01*
X105998554Y-63767971D01*
X106008782Y-63746347D01*
X106021079Y-63725830D01*
X106035329Y-63706617D01*
X106051393Y-63688893D01*
X106069117Y-63672829D01*
X106088330Y-63658579D01*
X106108847Y-63646282D01*
X106130471Y-63636054D01*
X106152993Y-63627996D01*
X106176197Y-63622184D01*
X106199858Y-63618674D01*
X106223750Y-63617500D01*
X107136250Y-63617500D01*
X107160142Y-63618674D01*
G37*
G04 #@! TD.AperFunction*
G04 #@! TA.AperFunction,SMDPad,CuDef*
G36*
X103350142Y-61411174D02*
G01*
X103373803Y-61414684D01*
X103397007Y-61420496D01*
X103419529Y-61428554D01*
X103441153Y-61438782D01*
X103461670Y-61451079D01*
X103480883Y-61465329D01*
X103498607Y-61481393D01*
X103514671Y-61499117D01*
X103528921Y-61518330D01*
X103541218Y-61538847D01*
X103551446Y-61560471D01*
X103559504Y-61582993D01*
X103565316Y-61606197D01*
X103568826Y-61629858D01*
X103570000Y-61653750D01*
X103570000Y-62141250D01*
X103568826Y-62165142D01*
X103565316Y-62188803D01*
X103559504Y-62212007D01*
X103551446Y-62234529D01*
X103541218Y-62256153D01*
X103528921Y-62276670D01*
X103514671Y-62295883D01*
X103498607Y-62313607D01*
X103480883Y-62329671D01*
X103461670Y-62343921D01*
X103441153Y-62356218D01*
X103419529Y-62366446D01*
X103397007Y-62374504D01*
X103373803Y-62380316D01*
X103350142Y-62383826D01*
X103326250Y-62385000D01*
X102413750Y-62385000D01*
X102389858Y-62383826D01*
X102366197Y-62380316D01*
X102342993Y-62374504D01*
X102320471Y-62366446D01*
X102298847Y-62356218D01*
X102278330Y-62343921D01*
X102259117Y-62329671D01*
X102241393Y-62313607D01*
X102225329Y-62295883D01*
X102211079Y-62276670D01*
X102198782Y-62256153D01*
X102188554Y-62234529D01*
X102180496Y-62212007D01*
X102174684Y-62188803D01*
X102171174Y-62165142D01*
X102170000Y-62141250D01*
X102170000Y-61653750D01*
X102171174Y-61629858D01*
X102174684Y-61606197D01*
X102180496Y-61582993D01*
X102188554Y-61560471D01*
X102198782Y-61538847D01*
X102211079Y-61518330D01*
X102225329Y-61499117D01*
X102241393Y-61481393D01*
X102259117Y-61465329D01*
X102278330Y-61451079D01*
X102298847Y-61438782D01*
X102320471Y-61428554D01*
X102342993Y-61420496D01*
X102366197Y-61414684D01*
X102389858Y-61411174D01*
X102413750Y-61410000D01*
X103326250Y-61410000D01*
X103350142Y-61411174D01*
G37*
G04 #@! TD.AperFunction*
G04 #@! TA.AperFunction,SMDPad,CuDef*
G36*
X103350142Y-59536174D02*
G01*
X103373803Y-59539684D01*
X103397007Y-59545496D01*
X103419529Y-59553554D01*
X103441153Y-59563782D01*
X103461670Y-59576079D01*
X103480883Y-59590329D01*
X103498607Y-59606393D01*
X103514671Y-59624117D01*
X103528921Y-59643330D01*
X103541218Y-59663847D01*
X103551446Y-59685471D01*
X103559504Y-59707993D01*
X103565316Y-59731197D01*
X103568826Y-59754858D01*
X103570000Y-59778750D01*
X103570000Y-60266250D01*
X103568826Y-60290142D01*
X103565316Y-60313803D01*
X103559504Y-60337007D01*
X103551446Y-60359529D01*
X103541218Y-60381153D01*
X103528921Y-60401670D01*
X103514671Y-60420883D01*
X103498607Y-60438607D01*
X103480883Y-60454671D01*
X103461670Y-60468921D01*
X103441153Y-60481218D01*
X103419529Y-60491446D01*
X103397007Y-60499504D01*
X103373803Y-60505316D01*
X103350142Y-60508826D01*
X103326250Y-60510000D01*
X102413750Y-60510000D01*
X102389858Y-60508826D01*
X102366197Y-60505316D01*
X102342993Y-60499504D01*
X102320471Y-60491446D01*
X102298847Y-60481218D01*
X102278330Y-60468921D01*
X102259117Y-60454671D01*
X102241393Y-60438607D01*
X102225329Y-60420883D01*
X102211079Y-60401670D01*
X102198782Y-60381153D01*
X102188554Y-60359529D01*
X102180496Y-60337007D01*
X102174684Y-60313803D01*
X102171174Y-60290142D01*
X102170000Y-60266250D01*
X102170000Y-59778750D01*
X102171174Y-59754858D01*
X102174684Y-59731197D01*
X102180496Y-59707993D01*
X102188554Y-59685471D01*
X102198782Y-59663847D01*
X102211079Y-59643330D01*
X102225329Y-59624117D01*
X102241393Y-59606393D01*
X102259117Y-59590329D01*
X102278330Y-59576079D01*
X102298847Y-59563782D01*
X102320471Y-59553554D01*
X102342993Y-59545496D01*
X102366197Y-59539684D01*
X102389858Y-59536174D01*
X102413750Y-59535000D01*
X103326250Y-59535000D01*
X103350142Y-59536174D01*
G37*
G04 #@! TD.AperFunction*
G04 #@! TA.AperFunction,SMDPad,CuDef*
G36*
X79220142Y-77921174D02*
G01*
X79243803Y-77924684D01*
X79267007Y-77930496D01*
X79289529Y-77938554D01*
X79311153Y-77948782D01*
X79331670Y-77961079D01*
X79350883Y-77975329D01*
X79368607Y-77991393D01*
X79384671Y-78009117D01*
X79398921Y-78028330D01*
X79411218Y-78048847D01*
X79421446Y-78070471D01*
X79429504Y-78092993D01*
X79435316Y-78116197D01*
X79438826Y-78139858D01*
X79440000Y-78163750D01*
X79440000Y-78651250D01*
X79438826Y-78675142D01*
X79435316Y-78698803D01*
X79429504Y-78722007D01*
X79421446Y-78744529D01*
X79411218Y-78766153D01*
X79398921Y-78786670D01*
X79384671Y-78805883D01*
X79368607Y-78823607D01*
X79350883Y-78839671D01*
X79331670Y-78853921D01*
X79311153Y-78866218D01*
X79289529Y-78876446D01*
X79267007Y-78884504D01*
X79243803Y-78890316D01*
X79220142Y-78893826D01*
X79196250Y-78895000D01*
X78283750Y-78895000D01*
X78259858Y-78893826D01*
X78236197Y-78890316D01*
X78212993Y-78884504D01*
X78190471Y-78876446D01*
X78168847Y-78866218D01*
X78148330Y-78853921D01*
X78129117Y-78839671D01*
X78111393Y-78823607D01*
X78095329Y-78805883D01*
X78081079Y-78786670D01*
X78068782Y-78766153D01*
X78058554Y-78744529D01*
X78050496Y-78722007D01*
X78044684Y-78698803D01*
X78041174Y-78675142D01*
X78040000Y-78651250D01*
X78040000Y-78163750D01*
X78041174Y-78139858D01*
X78044684Y-78116197D01*
X78050496Y-78092993D01*
X78058554Y-78070471D01*
X78068782Y-78048847D01*
X78081079Y-78028330D01*
X78095329Y-78009117D01*
X78111393Y-77991393D01*
X78129117Y-77975329D01*
X78148330Y-77961079D01*
X78168847Y-77948782D01*
X78190471Y-77938554D01*
X78212993Y-77930496D01*
X78236197Y-77924684D01*
X78259858Y-77921174D01*
X78283750Y-77920000D01*
X79196250Y-77920000D01*
X79220142Y-77921174D01*
G37*
G04 #@! TD.AperFunction*
G04 #@! TA.AperFunction,SMDPad,CuDef*
G36*
X79220142Y-76046174D02*
G01*
X79243803Y-76049684D01*
X79267007Y-76055496D01*
X79289529Y-76063554D01*
X79311153Y-76073782D01*
X79331670Y-76086079D01*
X79350883Y-76100329D01*
X79368607Y-76116393D01*
X79384671Y-76134117D01*
X79398921Y-76153330D01*
X79411218Y-76173847D01*
X79421446Y-76195471D01*
X79429504Y-76217993D01*
X79435316Y-76241197D01*
X79438826Y-76264858D01*
X79440000Y-76288750D01*
X79440000Y-76776250D01*
X79438826Y-76800142D01*
X79435316Y-76823803D01*
X79429504Y-76847007D01*
X79421446Y-76869529D01*
X79411218Y-76891153D01*
X79398921Y-76911670D01*
X79384671Y-76930883D01*
X79368607Y-76948607D01*
X79350883Y-76964671D01*
X79331670Y-76978921D01*
X79311153Y-76991218D01*
X79289529Y-77001446D01*
X79267007Y-77009504D01*
X79243803Y-77015316D01*
X79220142Y-77018826D01*
X79196250Y-77020000D01*
X78283750Y-77020000D01*
X78259858Y-77018826D01*
X78236197Y-77015316D01*
X78212993Y-77009504D01*
X78190471Y-77001446D01*
X78168847Y-76991218D01*
X78148330Y-76978921D01*
X78129117Y-76964671D01*
X78111393Y-76948607D01*
X78095329Y-76930883D01*
X78081079Y-76911670D01*
X78068782Y-76891153D01*
X78058554Y-76869529D01*
X78050496Y-76847007D01*
X78044684Y-76823803D01*
X78041174Y-76800142D01*
X78040000Y-76776250D01*
X78040000Y-76288750D01*
X78041174Y-76264858D01*
X78044684Y-76241197D01*
X78050496Y-76217993D01*
X78058554Y-76195471D01*
X78068782Y-76173847D01*
X78081079Y-76153330D01*
X78095329Y-76134117D01*
X78111393Y-76116393D01*
X78129117Y-76100329D01*
X78148330Y-76086079D01*
X78168847Y-76073782D01*
X78190471Y-76063554D01*
X78212993Y-76055496D01*
X78236197Y-76049684D01*
X78259858Y-76046174D01*
X78283750Y-76045000D01*
X79196250Y-76045000D01*
X79220142Y-76046174D01*
G37*
G04 #@! TD.AperFunction*
G04 #@! TA.AperFunction,SMDPad,CuDef*
G36*
X84300142Y-76046174D02*
G01*
X84323803Y-76049684D01*
X84347007Y-76055496D01*
X84369529Y-76063554D01*
X84391153Y-76073782D01*
X84411670Y-76086079D01*
X84430883Y-76100329D01*
X84448607Y-76116393D01*
X84464671Y-76134117D01*
X84478921Y-76153330D01*
X84491218Y-76173847D01*
X84501446Y-76195471D01*
X84509504Y-76217993D01*
X84515316Y-76241197D01*
X84518826Y-76264858D01*
X84520000Y-76288750D01*
X84520000Y-76776250D01*
X84518826Y-76800142D01*
X84515316Y-76823803D01*
X84509504Y-76847007D01*
X84501446Y-76869529D01*
X84491218Y-76891153D01*
X84478921Y-76911670D01*
X84464671Y-76930883D01*
X84448607Y-76948607D01*
X84430883Y-76964671D01*
X84411670Y-76978921D01*
X84391153Y-76991218D01*
X84369529Y-77001446D01*
X84347007Y-77009504D01*
X84323803Y-77015316D01*
X84300142Y-77018826D01*
X84276250Y-77020000D01*
X83363750Y-77020000D01*
X83339858Y-77018826D01*
X83316197Y-77015316D01*
X83292993Y-77009504D01*
X83270471Y-77001446D01*
X83248847Y-76991218D01*
X83228330Y-76978921D01*
X83209117Y-76964671D01*
X83191393Y-76948607D01*
X83175329Y-76930883D01*
X83161079Y-76911670D01*
X83148782Y-76891153D01*
X83138554Y-76869529D01*
X83130496Y-76847007D01*
X83124684Y-76823803D01*
X83121174Y-76800142D01*
X83120000Y-76776250D01*
X83120000Y-76288750D01*
X83121174Y-76264858D01*
X83124684Y-76241197D01*
X83130496Y-76217993D01*
X83138554Y-76195471D01*
X83148782Y-76173847D01*
X83161079Y-76153330D01*
X83175329Y-76134117D01*
X83191393Y-76116393D01*
X83209117Y-76100329D01*
X83228330Y-76086079D01*
X83248847Y-76073782D01*
X83270471Y-76063554D01*
X83292993Y-76055496D01*
X83316197Y-76049684D01*
X83339858Y-76046174D01*
X83363750Y-76045000D01*
X84276250Y-76045000D01*
X84300142Y-76046174D01*
G37*
G04 #@! TD.AperFunction*
G04 #@! TA.AperFunction,SMDPad,CuDef*
G36*
X84300142Y-77921174D02*
G01*
X84323803Y-77924684D01*
X84347007Y-77930496D01*
X84369529Y-77938554D01*
X84391153Y-77948782D01*
X84411670Y-77961079D01*
X84430883Y-77975329D01*
X84448607Y-77991393D01*
X84464671Y-78009117D01*
X84478921Y-78028330D01*
X84491218Y-78048847D01*
X84501446Y-78070471D01*
X84509504Y-78092993D01*
X84515316Y-78116197D01*
X84518826Y-78139858D01*
X84520000Y-78163750D01*
X84520000Y-78651250D01*
X84518826Y-78675142D01*
X84515316Y-78698803D01*
X84509504Y-78722007D01*
X84501446Y-78744529D01*
X84491218Y-78766153D01*
X84478921Y-78786670D01*
X84464671Y-78805883D01*
X84448607Y-78823607D01*
X84430883Y-78839671D01*
X84411670Y-78853921D01*
X84391153Y-78866218D01*
X84369529Y-78876446D01*
X84347007Y-78884504D01*
X84323803Y-78890316D01*
X84300142Y-78893826D01*
X84276250Y-78895000D01*
X83363750Y-78895000D01*
X83339858Y-78893826D01*
X83316197Y-78890316D01*
X83292993Y-78884504D01*
X83270471Y-78876446D01*
X83248847Y-78866218D01*
X83228330Y-78853921D01*
X83209117Y-78839671D01*
X83191393Y-78823607D01*
X83175329Y-78805883D01*
X83161079Y-78786670D01*
X83148782Y-78766153D01*
X83138554Y-78744529D01*
X83130496Y-78722007D01*
X83124684Y-78698803D01*
X83121174Y-78675142D01*
X83120000Y-78651250D01*
X83120000Y-78163750D01*
X83121174Y-78139858D01*
X83124684Y-78116197D01*
X83130496Y-78092993D01*
X83138554Y-78070471D01*
X83148782Y-78048847D01*
X83161079Y-78028330D01*
X83175329Y-78009117D01*
X83191393Y-77991393D01*
X83209117Y-77975329D01*
X83228330Y-77961079D01*
X83248847Y-77948782D01*
X83270471Y-77938554D01*
X83292993Y-77930496D01*
X83316197Y-77924684D01*
X83339858Y-77921174D01*
X83363750Y-77920000D01*
X84276250Y-77920000D01*
X84300142Y-77921174D01*
G37*
G04 #@! TD.AperFunction*
G04 #@! TA.AperFunction,SMDPad,CuDef*
G36*
X106059504Y-48776204D02*
G01*
X106083773Y-48779804D01*
X106107571Y-48785765D01*
X106130671Y-48794030D01*
X106152849Y-48804520D01*
X106173893Y-48817133D01*
X106193598Y-48831747D01*
X106211777Y-48848223D01*
X106228253Y-48866402D01*
X106242867Y-48886107D01*
X106255480Y-48907151D01*
X106265970Y-48929329D01*
X106274235Y-48952429D01*
X106280196Y-48976227D01*
X106283796Y-49000496D01*
X106285000Y-49025000D01*
X106285000Y-49775000D01*
X106283796Y-49799504D01*
X106280196Y-49823773D01*
X106274235Y-49847571D01*
X106265970Y-49870671D01*
X106255480Y-49892849D01*
X106242867Y-49913893D01*
X106228253Y-49933598D01*
X106211777Y-49951777D01*
X106193598Y-49968253D01*
X106173893Y-49982867D01*
X106152849Y-49995480D01*
X106130671Y-50005970D01*
X106107571Y-50014235D01*
X106083773Y-50020196D01*
X106059504Y-50023796D01*
X106035000Y-50025000D01*
X104785000Y-50025000D01*
X104760496Y-50023796D01*
X104736227Y-50020196D01*
X104712429Y-50014235D01*
X104689329Y-50005970D01*
X104667151Y-49995480D01*
X104646107Y-49982867D01*
X104626402Y-49968253D01*
X104608223Y-49951777D01*
X104591747Y-49933598D01*
X104577133Y-49913893D01*
X104564520Y-49892849D01*
X104554030Y-49870671D01*
X104545765Y-49847571D01*
X104539804Y-49823773D01*
X104536204Y-49799504D01*
X104535000Y-49775000D01*
X104535000Y-49025000D01*
X104536204Y-49000496D01*
X104539804Y-48976227D01*
X104545765Y-48952429D01*
X104554030Y-48929329D01*
X104564520Y-48907151D01*
X104577133Y-48886107D01*
X104591747Y-48866402D01*
X104608223Y-48848223D01*
X104626402Y-48831747D01*
X104646107Y-48817133D01*
X104667151Y-48804520D01*
X104689329Y-48794030D01*
X104712429Y-48785765D01*
X104736227Y-48779804D01*
X104760496Y-48776204D01*
X104785000Y-48775000D01*
X106035000Y-48775000D01*
X106059504Y-48776204D01*
G37*
G04 #@! TD.AperFunction*
G04 #@! TA.AperFunction,SMDPad,CuDef*
G36*
X106059504Y-51576204D02*
G01*
X106083773Y-51579804D01*
X106107571Y-51585765D01*
X106130671Y-51594030D01*
X106152849Y-51604520D01*
X106173893Y-51617133D01*
X106193598Y-51631747D01*
X106211777Y-51648223D01*
X106228253Y-51666402D01*
X106242867Y-51686107D01*
X106255480Y-51707151D01*
X106265970Y-51729329D01*
X106274235Y-51752429D01*
X106280196Y-51776227D01*
X106283796Y-51800496D01*
X106285000Y-51825000D01*
X106285000Y-52575000D01*
X106283796Y-52599504D01*
X106280196Y-52623773D01*
X106274235Y-52647571D01*
X106265970Y-52670671D01*
X106255480Y-52692849D01*
X106242867Y-52713893D01*
X106228253Y-52733598D01*
X106211777Y-52751777D01*
X106193598Y-52768253D01*
X106173893Y-52782867D01*
X106152849Y-52795480D01*
X106130671Y-52805970D01*
X106107571Y-52814235D01*
X106083773Y-52820196D01*
X106059504Y-52823796D01*
X106035000Y-52825000D01*
X104785000Y-52825000D01*
X104760496Y-52823796D01*
X104736227Y-52820196D01*
X104712429Y-52814235D01*
X104689329Y-52805970D01*
X104667151Y-52795480D01*
X104646107Y-52782867D01*
X104626402Y-52768253D01*
X104608223Y-52751777D01*
X104591747Y-52733598D01*
X104577133Y-52713893D01*
X104564520Y-52692849D01*
X104554030Y-52670671D01*
X104545765Y-52647571D01*
X104539804Y-52623773D01*
X104536204Y-52599504D01*
X104535000Y-52575000D01*
X104535000Y-51825000D01*
X104536204Y-51800496D01*
X104539804Y-51776227D01*
X104545765Y-51752429D01*
X104554030Y-51729329D01*
X104564520Y-51707151D01*
X104577133Y-51686107D01*
X104591747Y-51666402D01*
X104608223Y-51648223D01*
X104626402Y-51631747D01*
X104646107Y-51617133D01*
X104667151Y-51604520D01*
X104689329Y-51594030D01*
X104712429Y-51585765D01*
X104736227Y-51579804D01*
X104760496Y-51576204D01*
X104785000Y-51575000D01*
X106035000Y-51575000D01*
X106059504Y-51576204D01*
G37*
G04 #@! TD.AperFunction*
G04 #@! TA.AperFunction,SMDPad,CuDef*
G36*
X70379504Y-84216204D02*
G01*
X70403773Y-84219804D01*
X70427571Y-84225765D01*
X70450671Y-84234030D01*
X70472849Y-84244520D01*
X70493893Y-84257133D01*
X70513598Y-84271747D01*
X70531777Y-84288223D01*
X70548253Y-84306402D01*
X70562867Y-84326107D01*
X70575480Y-84347151D01*
X70585970Y-84369329D01*
X70594235Y-84392429D01*
X70600196Y-84416227D01*
X70603796Y-84440496D01*
X70605000Y-84465000D01*
X70605000Y-85715000D01*
X70603796Y-85739504D01*
X70600196Y-85763773D01*
X70594235Y-85787571D01*
X70585970Y-85810671D01*
X70575480Y-85832849D01*
X70562867Y-85853893D01*
X70548253Y-85873598D01*
X70531777Y-85891777D01*
X70513598Y-85908253D01*
X70493893Y-85922867D01*
X70472849Y-85935480D01*
X70450671Y-85945970D01*
X70427571Y-85954235D01*
X70403773Y-85960196D01*
X70379504Y-85963796D01*
X70355000Y-85965000D01*
X69605000Y-85965000D01*
X69580496Y-85963796D01*
X69556227Y-85960196D01*
X69532429Y-85954235D01*
X69509329Y-85945970D01*
X69487151Y-85935480D01*
X69466107Y-85922867D01*
X69446402Y-85908253D01*
X69428223Y-85891777D01*
X69411747Y-85873598D01*
X69397133Y-85853893D01*
X69384520Y-85832849D01*
X69374030Y-85810671D01*
X69365765Y-85787571D01*
X69359804Y-85763773D01*
X69356204Y-85739504D01*
X69355000Y-85715000D01*
X69355000Y-84465000D01*
X69356204Y-84440496D01*
X69359804Y-84416227D01*
X69365765Y-84392429D01*
X69374030Y-84369329D01*
X69384520Y-84347151D01*
X69397133Y-84326107D01*
X69411747Y-84306402D01*
X69428223Y-84288223D01*
X69446402Y-84271747D01*
X69466107Y-84257133D01*
X69487151Y-84244520D01*
X69509329Y-84234030D01*
X69532429Y-84225765D01*
X69556227Y-84219804D01*
X69580496Y-84216204D01*
X69605000Y-84215000D01*
X70355000Y-84215000D01*
X70379504Y-84216204D01*
G37*
G04 #@! TD.AperFunction*
G04 #@! TA.AperFunction,SMDPad,CuDef*
G36*
X67579504Y-84216204D02*
G01*
X67603773Y-84219804D01*
X67627571Y-84225765D01*
X67650671Y-84234030D01*
X67672849Y-84244520D01*
X67693893Y-84257133D01*
X67713598Y-84271747D01*
X67731777Y-84288223D01*
X67748253Y-84306402D01*
X67762867Y-84326107D01*
X67775480Y-84347151D01*
X67785970Y-84369329D01*
X67794235Y-84392429D01*
X67800196Y-84416227D01*
X67803796Y-84440496D01*
X67805000Y-84465000D01*
X67805000Y-85715000D01*
X67803796Y-85739504D01*
X67800196Y-85763773D01*
X67794235Y-85787571D01*
X67785970Y-85810671D01*
X67775480Y-85832849D01*
X67762867Y-85853893D01*
X67748253Y-85873598D01*
X67731777Y-85891777D01*
X67713598Y-85908253D01*
X67693893Y-85922867D01*
X67672849Y-85935480D01*
X67650671Y-85945970D01*
X67627571Y-85954235D01*
X67603773Y-85960196D01*
X67579504Y-85963796D01*
X67555000Y-85965000D01*
X66805000Y-85965000D01*
X66780496Y-85963796D01*
X66756227Y-85960196D01*
X66732429Y-85954235D01*
X66709329Y-85945970D01*
X66687151Y-85935480D01*
X66666107Y-85922867D01*
X66646402Y-85908253D01*
X66628223Y-85891777D01*
X66611747Y-85873598D01*
X66597133Y-85853893D01*
X66584520Y-85832849D01*
X66574030Y-85810671D01*
X66565765Y-85787571D01*
X66559804Y-85763773D01*
X66556204Y-85739504D01*
X66555000Y-85715000D01*
X66555000Y-84465000D01*
X66556204Y-84440496D01*
X66559804Y-84416227D01*
X66565765Y-84392429D01*
X66574030Y-84369329D01*
X66584520Y-84347151D01*
X66597133Y-84326107D01*
X66611747Y-84306402D01*
X66628223Y-84288223D01*
X66646402Y-84271747D01*
X66666107Y-84257133D01*
X66687151Y-84244520D01*
X66709329Y-84234030D01*
X66732429Y-84225765D01*
X66756227Y-84219804D01*
X66780496Y-84216204D01*
X66805000Y-84215000D01*
X67555000Y-84215000D01*
X67579504Y-84216204D01*
G37*
G04 #@! TD.AperFunction*
G04 #@! TA.AperFunction,SMDPad,CuDef*
G36*
X130189504Y-85866204D02*
G01*
X130213773Y-85869804D01*
X130237571Y-85875765D01*
X130260671Y-85884030D01*
X130282849Y-85894520D01*
X130303893Y-85907133D01*
X130323598Y-85921747D01*
X130341777Y-85938223D01*
X130358253Y-85956402D01*
X130372867Y-85976107D01*
X130385480Y-85997151D01*
X130395970Y-86019329D01*
X130404235Y-86042429D01*
X130410196Y-86066227D01*
X130413796Y-86090496D01*
X130415000Y-86115000D01*
X130415000Y-86865000D01*
X130413796Y-86889504D01*
X130410196Y-86913773D01*
X130404235Y-86937571D01*
X130395970Y-86960671D01*
X130385480Y-86982849D01*
X130372867Y-87003893D01*
X130358253Y-87023598D01*
X130341777Y-87041777D01*
X130323598Y-87058253D01*
X130303893Y-87072867D01*
X130282849Y-87085480D01*
X130260671Y-87095970D01*
X130237571Y-87104235D01*
X130213773Y-87110196D01*
X130189504Y-87113796D01*
X130165000Y-87115000D01*
X128915000Y-87115000D01*
X128890496Y-87113796D01*
X128866227Y-87110196D01*
X128842429Y-87104235D01*
X128819329Y-87095970D01*
X128797151Y-87085480D01*
X128776107Y-87072867D01*
X128756402Y-87058253D01*
X128738223Y-87041777D01*
X128721747Y-87023598D01*
X128707133Y-87003893D01*
X128694520Y-86982849D01*
X128684030Y-86960671D01*
X128675765Y-86937571D01*
X128669804Y-86913773D01*
X128666204Y-86889504D01*
X128665000Y-86865000D01*
X128665000Y-86115000D01*
X128666204Y-86090496D01*
X128669804Y-86066227D01*
X128675765Y-86042429D01*
X128684030Y-86019329D01*
X128694520Y-85997151D01*
X128707133Y-85976107D01*
X128721747Y-85956402D01*
X128738223Y-85938223D01*
X128756402Y-85921747D01*
X128776107Y-85907133D01*
X128797151Y-85894520D01*
X128819329Y-85884030D01*
X128842429Y-85875765D01*
X128866227Y-85869804D01*
X128890496Y-85866204D01*
X128915000Y-85865000D01*
X130165000Y-85865000D01*
X130189504Y-85866204D01*
G37*
G04 #@! TD.AperFunction*
G04 #@! TA.AperFunction,SMDPad,CuDef*
G36*
X130189504Y-83066204D02*
G01*
X130213773Y-83069804D01*
X130237571Y-83075765D01*
X130260671Y-83084030D01*
X130282849Y-83094520D01*
X130303893Y-83107133D01*
X130323598Y-83121747D01*
X130341777Y-83138223D01*
X130358253Y-83156402D01*
X130372867Y-83176107D01*
X130385480Y-83197151D01*
X130395970Y-83219329D01*
X130404235Y-83242429D01*
X130410196Y-83266227D01*
X130413796Y-83290496D01*
X130415000Y-83315000D01*
X130415000Y-84065000D01*
X130413796Y-84089504D01*
X130410196Y-84113773D01*
X130404235Y-84137571D01*
X130395970Y-84160671D01*
X130385480Y-84182849D01*
X130372867Y-84203893D01*
X130358253Y-84223598D01*
X130341777Y-84241777D01*
X130323598Y-84258253D01*
X130303893Y-84272867D01*
X130282849Y-84285480D01*
X130260671Y-84295970D01*
X130237571Y-84304235D01*
X130213773Y-84310196D01*
X130189504Y-84313796D01*
X130165000Y-84315000D01*
X128915000Y-84315000D01*
X128890496Y-84313796D01*
X128866227Y-84310196D01*
X128842429Y-84304235D01*
X128819329Y-84295970D01*
X128797151Y-84285480D01*
X128776107Y-84272867D01*
X128756402Y-84258253D01*
X128738223Y-84241777D01*
X128721747Y-84223598D01*
X128707133Y-84203893D01*
X128694520Y-84182849D01*
X128684030Y-84160671D01*
X128675765Y-84137571D01*
X128669804Y-84113773D01*
X128666204Y-84089504D01*
X128665000Y-84065000D01*
X128665000Y-83315000D01*
X128666204Y-83290496D01*
X128669804Y-83266227D01*
X128675765Y-83242429D01*
X128684030Y-83219329D01*
X128694520Y-83197151D01*
X128707133Y-83176107D01*
X128721747Y-83156402D01*
X128738223Y-83138223D01*
X128756402Y-83121747D01*
X128776107Y-83107133D01*
X128797151Y-83094520D01*
X128819329Y-83084030D01*
X128842429Y-83075765D01*
X128866227Y-83069804D01*
X128890496Y-83066204D01*
X128915000Y-83065000D01*
X130165000Y-83065000D01*
X130189504Y-83066204D01*
G37*
G04 #@! TD.AperFunction*
G04 #@! TA.AperFunction,SMDPad,CuDef*
G36*
X125109504Y-83066204D02*
G01*
X125133773Y-83069804D01*
X125157571Y-83075765D01*
X125180671Y-83084030D01*
X125202849Y-83094520D01*
X125223893Y-83107133D01*
X125243598Y-83121747D01*
X125261777Y-83138223D01*
X125278253Y-83156402D01*
X125292867Y-83176107D01*
X125305480Y-83197151D01*
X125315970Y-83219329D01*
X125324235Y-83242429D01*
X125330196Y-83266227D01*
X125333796Y-83290496D01*
X125335000Y-83315000D01*
X125335000Y-84065000D01*
X125333796Y-84089504D01*
X125330196Y-84113773D01*
X125324235Y-84137571D01*
X125315970Y-84160671D01*
X125305480Y-84182849D01*
X125292867Y-84203893D01*
X125278253Y-84223598D01*
X125261777Y-84241777D01*
X125243598Y-84258253D01*
X125223893Y-84272867D01*
X125202849Y-84285480D01*
X125180671Y-84295970D01*
X125157571Y-84304235D01*
X125133773Y-84310196D01*
X125109504Y-84313796D01*
X125085000Y-84315000D01*
X123835000Y-84315000D01*
X123810496Y-84313796D01*
X123786227Y-84310196D01*
X123762429Y-84304235D01*
X123739329Y-84295970D01*
X123717151Y-84285480D01*
X123696107Y-84272867D01*
X123676402Y-84258253D01*
X123658223Y-84241777D01*
X123641747Y-84223598D01*
X123627133Y-84203893D01*
X123614520Y-84182849D01*
X123604030Y-84160671D01*
X123595765Y-84137571D01*
X123589804Y-84113773D01*
X123586204Y-84089504D01*
X123585000Y-84065000D01*
X123585000Y-83315000D01*
X123586204Y-83290496D01*
X123589804Y-83266227D01*
X123595765Y-83242429D01*
X123604030Y-83219329D01*
X123614520Y-83197151D01*
X123627133Y-83176107D01*
X123641747Y-83156402D01*
X123658223Y-83138223D01*
X123676402Y-83121747D01*
X123696107Y-83107133D01*
X123717151Y-83094520D01*
X123739329Y-83084030D01*
X123762429Y-83075765D01*
X123786227Y-83069804D01*
X123810496Y-83066204D01*
X123835000Y-83065000D01*
X125085000Y-83065000D01*
X125109504Y-83066204D01*
G37*
G04 #@! TD.AperFunction*
G04 #@! TA.AperFunction,SMDPad,CuDef*
G36*
X125109504Y-85866204D02*
G01*
X125133773Y-85869804D01*
X125157571Y-85875765D01*
X125180671Y-85884030D01*
X125202849Y-85894520D01*
X125223893Y-85907133D01*
X125243598Y-85921747D01*
X125261777Y-85938223D01*
X125278253Y-85956402D01*
X125292867Y-85976107D01*
X125305480Y-85997151D01*
X125315970Y-86019329D01*
X125324235Y-86042429D01*
X125330196Y-86066227D01*
X125333796Y-86090496D01*
X125335000Y-86115000D01*
X125335000Y-86865000D01*
X125333796Y-86889504D01*
X125330196Y-86913773D01*
X125324235Y-86937571D01*
X125315970Y-86960671D01*
X125305480Y-86982849D01*
X125292867Y-87003893D01*
X125278253Y-87023598D01*
X125261777Y-87041777D01*
X125243598Y-87058253D01*
X125223893Y-87072867D01*
X125202849Y-87085480D01*
X125180671Y-87095970D01*
X125157571Y-87104235D01*
X125133773Y-87110196D01*
X125109504Y-87113796D01*
X125085000Y-87115000D01*
X123835000Y-87115000D01*
X123810496Y-87113796D01*
X123786227Y-87110196D01*
X123762429Y-87104235D01*
X123739329Y-87095970D01*
X123717151Y-87085480D01*
X123696107Y-87072867D01*
X123676402Y-87058253D01*
X123658223Y-87041777D01*
X123641747Y-87023598D01*
X123627133Y-87003893D01*
X123614520Y-86982849D01*
X123604030Y-86960671D01*
X123595765Y-86937571D01*
X123589804Y-86913773D01*
X123586204Y-86889504D01*
X123585000Y-86865000D01*
X123585000Y-86115000D01*
X123586204Y-86090496D01*
X123589804Y-86066227D01*
X123595765Y-86042429D01*
X123604030Y-86019329D01*
X123614520Y-85997151D01*
X123627133Y-85976107D01*
X123641747Y-85956402D01*
X123658223Y-85938223D01*
X123676402Y-85921747D01*
X123696107Y-85907133D01*
X123717151Y-85894520D01*
X123739329Y-85884030D01*
X123762429Y-85875765D01*
X123786227Y-85869804D01*
X123810496Y-85866204D01*
X123835000Y-85865000D01*
X125085000Y-85865000D01*
X125109504Y-85866204D01*
G37*
G04 #@! TD.AperFunction*
G04 #@! TA.AperFunction,SMDPad,CuDef*
G36*
X122059504Y-79136204D02*
G01*
X122083773Y-79139804D01*
X122107571Y-79145765D01*
X122130671Y-79154030D01*
X122152849Y-79164520D01*
X122173893Y-79177133D01*
X122193598Y-79191747D01*
X122211777Y-79208223D01*
X122228253Y-79226402D01*
X122242867Y-79246107D01*
X122255480Y-79267151D01*
X122265970Y-79289329D01*
X122274235Y-79312429D01*
X122280196Y-79336227D01*
X122283796Y-79360496D01*
X122285000Y-79385000D01*
X122285000Y-80635000D01*
X122283796Y-80659504D01*
X122280196Y-80683773D01*
X122274235Y-80707571D01*
X122265970Y-80730671D01*
X122255480Y-80752849D01*
X122242867Y-80773893D01*
X122228253Y-80793598D01*
X122211777Y-80811777D01*
X122193598Y-80828253D01*
X122173893Y-80842867D01*
X122152849Y-80855480D01*
X122130671Y-80865970D01*
X122107571Y-80874235D01*
X122083773Y-80880196D01*
X122059504Y-80883796D01*
X122035000Y-80885000D01*
X121285000Y-80885000D01*
X121260496Y-80883796D01*
X121236227Y-80880196D01*
X121212429Y-80874235D01*
X121189329Y-80865970D01*
X121167151Y-80855480D01*
X121146107Y-80842867D01*
X121126402Y-80828253D01*
X121108223Y-80811777D01*
X121091747Y-80793598D01*
X121077133Y-80773893D01*
X121064520Y-80752849D01*
X121054030Y-80730671D01*
X121045765Y-80707571D01*
X121039804Y-80683773D01*
X121036204Y-80659504D01*
X121035000Y-80635000D01*
X121035000Y-79385000D01*
X121036204Y-79360496D01*
X121039804Y-79336227D01*
X121045765Y-79312429D01*
X121054030Y-79289329D01*
X121064520Y-79267151D01*
X121077133Y-79246107D01*
X121091747Y-79226402D01*
X121108223Y-79208223D01*
X121126402Y-79191747D01*
X121146107Y-79177133D01*
X121167151Y-79164520D01*
X121189329Y-79154030D01*
X121212429Y-79145765D01*
X121236227Y-79139804D01*
X121260496Y-79136204D01*
X121285000Y-79135000D01*
X122035000Y-79135000D01*
X122059504Y-79136204D01*
G37*
G04 #@! TD.AperFunction*
G04 #@! TA.AperFunction,SMDPad,CuDef*
G36*
X124859504Y-79136204D02*
G01*
X124883773Y-79139804D01*
X124907571Y-79145765D01*
X124930671Y-79154030D01*
X124952849Y-79164520D01*
X124973893Y-79177133D01*
X124993598Y-79191747D01*
X125011777Y-79208223D01*
X125028253Y-79226402D01*
X125042867Y-79246107D01*
X125055480Y-79267151D01*
X125065970Y-79289329D01*
X125074235Y-79312429D01*
X125080196Y-79336227D01*
X125083796Y-79360496D01*
X125085000Y-79385000D01*
X125085000Y-80635000D01*
X125083796Y-80659504D01*
X125080196Y-80683773D01*
X125074235Y-80707571D01*
X125065970Y-80730671D01*
X125055480Y-80752849D01*
X125042867Y-80773893D01*
X125028253Y-80793598D01*
X125011777Y-80811777D01*
X124993598Y-80828253D01*
X124973893Y-80842867D01*
X124952849Y-80855480D01*
X124930671Y-80865970D01*
X124907571Y-80874235D01*
X124883773Y-80880196D01*
X124859504Y-80883796D01*
X124835000Y-80885000D01*
X124085000Y-80885000D01*
X124060496Y-80883796D01*
X124036227Y-80880196D01*
X124012429Y-80874235D01*
X123989329Y-80865970D01*
X123967151Y-80855480D01*
X123946107Y-80842867D01*
X123926402Y-80828253D01*
X123908223Y-80811777D01*
X123891747Y-80793598D01*
X123877133Y-80773893D01*
X123864520Y-80752849D01*
X123854030Y-80730671D01*
X123845765Y-80707571D01*
X123839804Y-80683773D01*
X123836204Y-80659504D01*
X123835000Y-80635000D01*
X123835000Y-79385000D01*
X123836204Y-79360496D01*
X123839804Y-79336227D01*
X123845765Y-79312429D01*
X123854030Y-79289329D01*
X123864520Y-79267151D01*
X123877133Y-79246107D01*
X123891747Y-79226402D01*
X123908223Y-79208223D01*
X123926402Y-79191747D01*
X123946107Y-79177133D01*
X123967151Y-79164520D01*
X123989329Y-79154030D01*
X124012429Y-79145765D01*
X124036227Y-79139804D01*
X124060496Y-79136204D01*
X124085000Y-79135000D01*
X124835000Y-79135000D01*
X124859504Y-79136204D01*
G37*
G04 #@! TD.AperFunction*
G04 #@! TA.AperFunction,SMDPad,CuDef*
G36*
X116099504Y-89296204D02*
G01*
X116123773Y-89299804D01*
X116147571Y-89305765D01*
X116170671Y-89314030D01*
X116192849Y-89324520D01*
X116213893Y-89337133D01*
X116233598Y-89351747D01*
X116251777Y-89368223D01*
X116268253Y-89386402D01*
X116282867Y-89406107D01*
X116295480Y-89427151D01*
X116305970Y-89449329D01*
X116314235Y-89472429D01*
X116320196Y-89496227D01*
X116323796Y-89520496D01*
X116325000Y-89545000D01*
X116325000Y-90795000D01*
X116323796Y-90819504D01*
X116320196Y-90843773D01*
X116314235Y-90867571D01*
X116305970Y-90890671D01*
X116295480Y-90912849D01*
X116282867Y-90933893D01*
X116268253Y-90953598D01*
X116251777Y-90971777D01*
X116233598Y-90988253D01*
X116213893Y-91002867D01*
X116192849Y-91015480D01*
X116170671Y-91025970D01*
X116147571Y-91034235D01*
X116123773Y-91040196D01*
X116099504Y-91043796D01*
X116075000Y-91045000D01*
X115325000Y-91045000D01*
X115300496Y-91043796D01*
X115276227Y-91040196D01*
X115252429Y-91034235D01*
X115229329Y-91025970D01*
X115207151Y-91015480D01*
X115186107Y-91002867D01*
X115166402Y-90988253D01*
X115148223Y-90971777D01*
X115131747Y-90953598D01*
X115117133Y-90933893D01*
X115104520Y-90912849D01*
X115094030Y-90890671D01*
X115085765Y-90867571D01*
X115079804Y-90843773D01*
X115076204Y-90819504D01*
X115075000Y-90795000D01*
X115075000Y-89545000D01*
X115076204Y-89520496D01*
X115079804Y-89496227D01*
X115085765Y-89472429D01*
X115094030Y-89449329D01*
X115104520Y-89427151D01*
X115117133Y-89406107D01*
X115131747Y-89386402D01*
X115148223Y-89368223D01*
X115166402Y-89351747D01*
X115186107Y-89337133D01*
X115207151Y-89324520D01*
X115229329Y-89314030D01*
X115252429Y-89305765D01*
X115276227Y-89299804D01*
X115300496Y-89296204D01*
X115325000Y-89295000D01*
X116075000Y-89295000D01*
X116099504Y-89296204D01*
G37*
G04 #@! TD.AperFunction*
G04 #@! TA.AperFunction,SMDPad,CuDef*
G36*
X113299504Y-89296204D02*
G01*
X113323773Y-89299804D01*
X113347571Y-89305765D01*
X113370671Y-89314030D01*
X113392849Y-89324520D01*
X113413893Y-89337133D01*
X113433598Y-89351747D01*
X113451777Y-89368223D01*
X113468253Y-89386402D01*
X113482867Y-89406107D01*
X113495480Y-89427151D01*
X113505970Y-89449329D01*
X113514235Y-89472429D01*
X113520196Y-89496227D01*
X113523796Y-89520496D01*
X113525000Y-89545000D01*
X113525000Y-90795000D01*
X113523796Y-90819504D01*
X113520196Y-90843773D01*
X113514235Y-90867571D01*
X113505970Y-90890671D01*
X113495480Y-90912849D01*
X113482867Y-90933893D01*
X113468253Y-90953598D01*
X113451777Y-90971777D01*
X113433598Y-90988253D01*
X113413893Y-91002867D01*
X113392849Y-91015480D01*
X113370671Y-91025970D01*
X113347571Y-91034235D01*
X113323773Y-91040196D01*
X113299504Y-91043796D01*
X113275000Y-91045000D01*
X112525000Y-91045000D01*
X112500496Y-91043796D01*
X112476227Y-91040196D01*
X112452429Y-91034235D01*
X112429329Y-91025970D01*
X112407151Y-91015480D01*
X112386107Y-91002867D01*
X112366402Y-90988253D01*
X112348223Y-90971777D01*
X112331747Y-90953598D01*
X112317133Y-90933893D01*
X112304520Y-90912849D01*
X112294030Y-90890671D01*
X112285765Y-90867571D01*
X112279804Y-90843773D01*
X112276204Y-90819504D01*
X112275000Y-90795000D01*
X112275000Y-89545000D01*
X112276204Y-89520496D01*
X112279804Y-89496227D01*
X112285765Y-89472429D01*
X112294030Y-89449329D01*
X112304520Y-89427151D01*
X112317133Y-89406107D01*
X112331747Y-89386402D01*
X112348223Y-89368223D01*
X112366402Y-89351747D01*
X112386107Y-89337133D01*
X112407151Y-89324520D01*
X112429329Y-89314030D01*
X112452429Y-89305765D01*
X112476227Y-89299804D01*
X112500496Y-89296204D01*
X112525000Y-89295000D01*
X113275000Y-89295000D01*
X113299504Y-89296204D01*
G37*
G04 #@! TD.AperFunction*
G04 #@! TA.AperFunction,SMDPad,CuDef*
G36*
X117489504Y-85866204D02*
G01*
X117513773Y-85869804D01*
X117537571Y-85875765D01*
X117560671Y-85884030D01*
X117582849Y-85894520D01*
X117603893Y-85907133D01*
X117623598Y-85921747D01*
X117641777Y-85938223D01*
X117658253Y-85956402D01*
X117672867Y-85976107D01*
X117685480Y-85997151D01*
X117695970Y-86019329D01*
X117704235Y-86042429D01*
X117710196Y-86066227D01*
X117713796Y-86090496D01*
X117715000Y-86115000D01*
X117715000Y-86865000D01*
X117713796Y-86889504D01*
X117710196Y-86913773D01*
X117704235Y-86937571D01*
X117695970Y-86960671D01*
X117685480Y-86982849D01*
X117672867Y-87003893D01*
X117658253Y-87023598D01*
X117641777Y-87041777D01*
X117623598Y-87058253D01*
X117603893Y-87072867D01*
X117582849Y-87085480D01*
X117560671Y-87095970D01*
X117537571Y-87104235D01*
X117513773Y-87110196D01*
X117489504Y-87113796D01*
X117465000Y-87115000D01*
X116215000Y-87115000D01*
X116190496Y-87113796D01*
X116166227Y-87110196D01*
X116142429Y-87104235D01*
X116119329Y-87095970D01*
X116097151Y-87085480D01*
X116076107Y-87072867D01*
X116056402Y-87058253D01*
X116038223Y-87041777D01*
X116021747Y-87023598D01*
X116007133Y-87003893D01*
X115994520Y-86982849D01*
X115984030Y-86960671D01*
X115975765Y-86937571D01*
X115969804Y-86913773D01*
X115966204Y-86889504D01*
X115965000Y-86865000D01*
X115965000Y-86115000D01*
X115966204Y-86090496D01*
X115969804Y-86066227D01*
X115975765Y-86042429D01*
X115984030Y-86019329D01*
X115994520Y-85997151D01*
X116007133Y-85976107D01*
X116021747Y-85956402D01*
X116038223Y-85938223D01*
X116056402Y-85921747D01*
X116076107Y-85907133D01*
X116097151Y-85894520D01*
X116119329Y-85884030D01*
X116142429Y-85875765D01*
X116166227Y-85869804D01*
X116190496Y-85866204D01*
X116215000Y-85865000D01*
X117465000Y-85865000D01*
X117489504Y-85866204D01*
G37*
G04 #@! TD.AperFunction*
G04 #@! TA.AperFunction,SMDPad,CuDef*
G36*
X117489504Y-83066204D02*
G01*
X117513773Y-83069804D01*
X117537571Y-83075765D01*
X117560671Y-83084030D01*
X117582849Y-83094520D01*
X117603893Y-83107133D01*
X117623598Y-83121747D01*
X117641777Y-83138223D01*
X117658253Y-83156402D01*
X117672867Y-83176107D01*
X117685480Y-83197151D01*
X117695970Y-83219329D01*
X117704235Y-83242429D01*
X117710196Y-83266227D01*
X117713796Y-83290496D01*
X117715000Y-83315000D01*
X117715000Y-84065000D01*
X117713796Y-84089504D01*
X117710196Y-84113773D01*
X117704235Y-84137571D01*
X117695970Y-84160671D01*
X117685480Y-84182849D01*
X117672867Y-84203893D01*
X117658253Y-84223598D01*
X117641777Y-84241777D01*
X117623598Y-84258253D01*
X117603893Y-84272867D01*
X117582849Y-84285480D01*
X117560671Y-84295970D01*
X117537571Y-84304235D01*
X117513773Y-84310196D01*
X117489504Y-84313796D01*
X117465000Y-84315000D01*
X116215000Y-84315000D01*
X116190496Y-84313796D01*
X116166227Y-84310196D01*
X116142429Y-84304235D01*
X116119329Y-84295970D01*
X116097151Y-84285480D01*
X116076107Y-84272867D01*
X116056402Y-84258253D01*
X116038223Y-84241777D01*
X116021747Y-84223598D01*
X116007133Y-84203893D01*
X115994520Y-84182849D01*
X115984030Y-84160671D01*
X115975765Y-84137571D01*
X115969804Y-84113773D01*
X115966204Y-84089504D01*
X115965000Y-84065000D01*
X115965000Y-83315000D01*
X115966204Y-83290496D01*
X115969804Y-83266227D01*
X115975765Y-83242429D01*
X115984030Y-83219329D01*
X115994520Y-83197151D01*
X116007133Y-83176107D01*
X116021747Y-83156402D01*
X116038223Y-83138223D01*
X116056402Y-83121747D01*
X116076107Y-83107133D01*
X116097151Y-83094520D01*
X116119329Y-83084030D01*
X116142429Y-83075765D01*
X116166227Y-83069804D01*
X116190496Y-83066204D01*
X116215000Y-83065000D01*
X117465000Y-83065000D01*
X117489504Y-83066204D01*
G37*
G04 #@! TD.AperFunction*
G04 #@! TA.AperFunction,SMDPad,CuDef*
G36*
X113679504Y-83066204D02*
G01*
X113703773Y-83069804D01*
X113727571Y-83075765D01*
X113750671Y-83084030D01*
X113772849Y-83094520D01*
X113793893Y-83107133D01*
X113813598Y-83121747D01*
X113831777Y-83138223D01*
X113848253Y-83156402D01*
X113862867Y-83176107D01*
X113875480Y-83197151D01*
X113885970Y-83219329D01*
X113894235Y-83242429D01*
X113900196Y-83266227D01*
X113903796Y-83290496D01*
X113905000Y-83315000D01*
X113905000Y-84065000D01*
X113903796Y-84089504D01*
X113900196Y-84113773D01*
X113894235Y-84137571D01*
X113885970Y-84160671D01*
X113875480Y-84182849D01*
X113862867Y-84203893D01*
X113848253Y-84223598D01*
X113831777Y-84241777D01*
X113813598Y-84258253D01*
X113793893Y-84272867D01*
X113772849Y-84285480D01*
X113750671Y-84295970D01*
X113727571Y-84304235D01*
X113703773Y-84310196D01*
X113679504Y-84313796D01*
X113655000Y-84315000D01*
X112405000Y-84315000D01*
X112380496Y-84313796D01*
X112356227Y-84310196D01*
X112332429Y-84304235D01*
X112309329Y-84295970D01*
X112287151Y-84285480D01*
X112266107Y-84272867D01*
X112246402Y-84258253D01*
X112228223Y-84241777D01*
X112211747Y-84223598D01*
X112197133Y-84203893D01*
X112184520Y-84182849D01*
X112174030Y-84160671D01*
X112165765Y-84137571D01*
X112159804Y-84113773D01*
X112156204Y-84089504D01*
X112155000Y-84065000D01*
X112155000Y-83315000D01*
X112156204Y-83290496D01*
X112159804Y-83266227D01*
X112165765Y-83242429D01*
X112174030Y-83219329D01*
X112184520Y-83197151D01*
X112197133Y-83176107D01*
X112211747Y-83156402D01*
X112228223Y-83138223D01*
X112246402Y-83121747D01*
X112266107Y-83107133D01*
X112287151Y-83094520D01*
X112309329Y-83084030D01*
X112332429Y-83075765D01*
X112356227Y-83069804D01*
X112380496Y-83066204D01*
X112405000Y-83065000D01*
X113655000Y-83065000D01*
X113679504Y-83066204D01*
G37*
G04 #@! TD.AperFunction*
G04 #@! TA.AperFunction,SMDPad,CuDef*
G36*
X113679504Y-85866204D02*
G01*
X113703773Y-85869804D01*
X113727571Y-85875765D01*
X113750671Y-85884030D01*
X113772849Y-85894520D01*
X113793893Y-85907133D01*
X113813598Y-85921747D01*
X113831777Y-85938223D01*
X113848253Y-85956402D01*
X113862867Y-85976107D01*
X113875480Y-85997151D01*
X113885970Y-86019329D01*
X113894235Y-86042429D01*
X113900196Y-86066227D01*
X113903796Y-86090496D01*
X113905000Y-86115000D01*
X113905000Y-86865000D01*
X113903796Y-86889504D01*
X113900196Y-86913773D01*
X113894235Y-86937571D01*
X113885970Y-86960671D01*
X113875480Y-86982849D01*
X113862867Y-87003893D01*
X113848253Y-87023598D01*
X113831777Y-87041777D01*
X113813598Y-87058253D01*
X113793893Y-87072867D01*
X113772849Y-87085480D01*
X113750671Y-87095970D01*
X113727571Y-87104235D01*
X113703773Y-87110196D01*
X113679504Y-87113796D01*
X113655000Y-87115000D01*
X112405000Y-87115000D01*
X112380496Y-87113796D01*
X112356227Y-87110196D01*
X112332429Y-87104235D01*
X112309329Y-87095970D01*
X112287151Y-87085480D01*
X112266107Y-87072867D01*
X112246402Y-87058253D01*
X112228223Y-87041777D01*
X112211747Y-87023598D01*
X112197133Y-87003893D01*
X112184520Y-86982849D01*
X112174030Y-86960671D01*
X112165765Y-86937571D01*
X112159804Y-86913773D01*
X112156204Y-86889504D01*
X112155000Y-86865000D01*
X112155000Y-86115000D01*
X112156204Y-86090496D01*
X112159804Y-86066227D01*
X112165765Y-86042429D01*
X112174030Y-86019329D01*
X112184520Y-85997151D01*
X112197133Y-85976107D01*
X112211747Y-85956402D01*
X112228223Y-85938223D01*
X112246402Y-85921747D01*
X112266107Y-85907133D01*
X112287151Y-85894520D01*
X112309329Y-85884030D01*
X112332429Y-85875765D01*
X112356227Y-85869804D01*
X112380496Y-85866204D01*
X112405000Y-85865000D01*
X113655000Y-85865000D01*
X113679504Y-85866204D01*
G37*
G04 #@! TD.AperFunction*
G04 #@! TA.AperFunction,SMDPad,CuDef*
G36*
X80659504Y-92346204D02*
G01*
X80683773Y-92349804D01*
X80707571Y-92355765D01*
X80730671Y-92364030D01*
X80752849Y-92374520D01*
X80773893Y-92387133D01*
X80793598Y-92401747D01*
X80811777Y-92418223D01*
X80828253Y-92436402D01*
X80842867Y-92456107D01*
X80855480Y-92477151D01*
X80865970Y-92499329D01*
X80874235Y-92522429D01*
X80880196Y-92546227D01*
X80883796Y-92570496D01*
X80885000Y-92595000D01*
X80885000Y-93345000D01*
X80883796Y-93369504D01*
X80880196Y-93393773D01*
X80874235Y-93417571D01*
X80865970Y-93440671D01*
X80855480Y-93462849D01*
X80842867Y-93483893D01*
X80828253Y-93503598D01*
X80811777Y-93521777D01*
X80793598Y-93538253D01*
X80773893Y-93552867D01*
X80752849Y-93565480D01*
X80730671Y-93575970D01*
X80707571Y-93584235D01*
X80683773Y-93590196D01*
X80659504Y-93593796D01*
X80635000Y-93595000D01*
X79385000Y-93595000D01*
X79360496Y-93593796D01*
X79336227Y-93590196D01*
X79312429Y-93584235D01*
X79289329Y-93575970D01*
X79267151Y-93565480D01*
X79246107Y-93552867D01*
X79226402Y-93538253D01*
X79208223Y-93521777D01*
X79191747Y-93503598D01*
X79177133Y-93483893D01*
X79164520Y-93462849D01*
X79154030Y-93440671D01*
X79145765Y-93417571D01*
X79139804Y-93393773D01*
X79136204Y-93369504D01*
X79135000Y-93345000D01*
X79135000Y-92595000D01*
X79136204Y-92570496D01*
X79139804Y-92546227D01*
X79145765Y-92522429D01*
X79154030Y-92499329D01*
X79164520Y-92477151D01*
X79177133Y-92456107D01*
X79191747Y-92436402D01*
X79208223Y-92418223D01*
X79226402Y-92401747D01*
X79246107Y-92387133D01*
X79267151Y-92374520D01*
X79289329Y-92364030D01*
X79312429Y-92355765D01*
X79336227Y-92349804D01*
X79360496Y-92346204D01*
X79385000Y-92345000D01*
X80635000Y-92345000D01*
X80659504Y-92346204D01*
G37*
G04 #@! TD.AperFunction*
G04 #@! TA.AperFunction,SMDPad,CuDef*
G36*
X80659504Y-89546204D02*
G01*
X80683773Y-89549804D01*
X80707571Y-89555765D01*
X80730671Y-89564030D01*
X80752849Y-89574520D01*
X80773893Y-89587133D01*
X80793598Y-89601747D01*
X80811777Y-89618223D01*
X80828253Y-89636402D01*
X80842867Y-89656107D01*
X80855480Y-89677151D01*
X80865970Y-89699329D01*
X80874235Y-89722429D01*
X80880196Y-89746227D01*
X80883796Y-89770496D01*
X80885000Y-89795000D01*
X80885000Y-90545000D01*
X80883796Y-90569504D01*
X80880196Y-90593773D01*
X80874235Y-90617571D01*
X80865970Y-90640671D01*
X80855480Y-90662849D01*
X80842867Y-90683893D01*
X80828253Y-90703598D01*
X80811777Y-90721777D01*
X80793598Y-90738253D01*
X80773893Y-90752867D01*
X80752849Y-90765480D01*
X80730671Y-90775970D01*
X80707571Y-90784235D01*
X80683773Y-90790196D01*
X80659504Y-90793796D01*
X80635000Y-90795000D01*
X79385000Y-90795000D01*
X79360496Y-90793796D01*
X79336227Y-90790196D01*
X79312429Y-90784235D01*
X79289329Y-90775970D01*
X79267151Y-90765480D01*
X79246107Y-90752867D01*
X79226402Y-90738253D01*
X79208223Y-90721777D01*
X79191747Y-90703598D01*
X79177133Y-90683893D01*
X79164520Y-90662849D01*
X79154030Y-90640671D01*
X79145765Y-90617571D01*
X79139804Y-90593773D01*
X79136204Y-90569504D01*
X79135000Y-90545000D01*
X79135000Y-89795000D01*
X79136204Y-89770496D01*
X79139804Y-89746227D01*
X79145765Y-89722429D01*
X79154030Y-89699329D01*
X79164520Y-89677151D01*
X79177133Y-89656107D01*
X79191747Y-89636402D01*
X79208223Y-89618223D01*
X79226402Y-89601747D01*
X79246107Y-89587133D01*
X79267151Y-89574520D01*
X79289329Y-89564030D01*
X79312429Y-89555765D01*
X79336227Y-89549804D01*
X79360496Y-89546204D01*
X79385000Y-89545000D01*
X80635000Y-89545000D01*
X80659504Y-89546204D01*
G37*
G04 #@! TD.AperFunction*
D12*
X124460000Y-49530000D03*
D16*
X67180000Y-85090000D02*
X64770000Y-85090000D01*
X64770000Y-85090000D02*
X62230000Y-82550000D01*
X62230000Y-82550000D02*
X62230000Y-72390000D01*
X62230000Y-72390000D02*
X63500000Y-71120000D01*
X67183802Y-71120000D02*
X69850000Y-73786198D01*
X63500000Y-71120000D02*
X67183802Y-71120000D01*
X69850000Y-73786198D02*
X69850000Y-74930000D01*
X69850000Y-74930000D02*
X68580000Y-76200000D01*
X66675000Y-77423200D02*
X66675000Y-78663800D01*
X67898200Y-76200000D02*
X66675000Y-77423200D01*
X68580000Y-76200000D02*
X67898200Y-76200000D01*
X74185000Y-92970000D02*
X79135000Y-92970000D01*
X79135000Y-92970000D02*
X80010000Y-92970000D01*
X67180000Y-85965000D02*
X74185000Y-92970000D01*
X67180000Y-85090000D02*
X67180000Y-85965000D01*
X85511800Y-92970000D02*
X85725000Y-92756800D01*
X85725000Y-92756800D02*
X85725000Y-91516200D01*
X80010000Y-92970000D02*
X85511800Y-92970000D01*
X86995000Y-97155000D02*
X85090000Y-99060000D01*
X86995000Y-96443800D02*
X86995000Y-97155000D01*
X85090000Y-99060000D02*
X81280000Y-99060000D01*
X80010000Y-97790000D02*
X80010000Y-92970000D01*
X81280000Y-99060000D02*
X80010000Y-97790000D01*
X109392500Y-50035000D02*
X109855000Y-50497500D01*
X114935000Y-61595000D02*
X107950000Y-68580000D01*
X115646200Y-61595000D02*
X114935000Y-61595000D01*
X107950000Y-68580000D02*
X101600000Y-68580000D01*
X101600000Y-68580000D02*
X97790000Y-64770000D01*
X97790000Y-56145000D02*
X104535000Y-49400000D01*
X97790000Y-64770000D02*
X97790000Y-56145000D01*
X113665000Y-50497500D02*
X109855000Y-50497500D01*
X105410000Y-50025000D02*
X105410000Y-49400000D01*
X105882500Y-50497500D02*
X105410000Y-50025000D01*
X109855000Y-50497500D02*
X105882500Y-50497500D01*
X104535000Y-49400000D02*
X105410000Y-49400000D01*
X94652500Y-56145000D02*
X91107500Y-59690000D01*
X97790000Y-56145000D02*
X94652500Y-56145000D01*
X65405000Y-79904400D02*
X66780600Y-81280000D01*
X65405000Y-78663800D02*
X65405000Y-79904400D01*
X66780600Y-81280000D02*
X69850000Y-81280000D01*
X74597500Y-76532500D02*
X78740000Y-76532500D01*
X69850000Y-81280000D02*
X74597500Y-76532500D01*
X83820000Y-76532500D02*
X78740000Y-76532500D01*
X110460000Y-60325000D02*
X115646200Y-60325000D01*
X106680000Y-64105000D02*
X110460000Y-60325000D01*
X105077500Y-64105000D02*
X102870000Y-61897500D01*
X106680000Y-64105000D02*
X105077500Y-64105000D01*
X110490000Y-74800000D02*
X115570000Y-74800000D01*
X99695000Y-82650000D02*
X99695000Y-83885000D01*
X99695000Y-81650000D02*
X99695000Y-82650000D01*
X98930000Y-80885000D02*
X99695000Y-81650000D01*
X98930000Y-80010000D02*
X98930000Y-80885000D01*
X101730000Y-83380000D02*
X102235000Y-83885000D01*
X101730000Y-80010000D02*
X101730000Y-83380000D01*
X129670000Y-86360000D02*
X129540000Y-86490000D01*
X129540000Y-86490000D02*
X124460000Y-86490000D01*
X120650000Y-85575000D02*
X120650000Y-86360000D01*
X121660000Y-84565000D02*
X120650000Y-85575000D01*
X120650000Y-86360000D02*
X124460000Y-86490000D01*
X121660000Y-80010000D02*
X121660000Y-84565000D01*
X116840000Y-86490000D02*
X120650000Y-86360000D01*
X116840000Y-86490000D02*
X113030000Y-86490000D01*
X113030000Y-90040000D02*
X112900000Y-90170000D01*
X113030000Y-86490000D02*
X113030000Y-90040000D01*
X108715000Y-86490000D02*
X108585000Y-86620000D01*
X113030000Y-86490000D02*
X108715000Y-86490000D01*
X102235000Y-87600000D02*
X102235000Y-88835000D01*
X103215000Y-86620000D02*
X102235000Y-87600000D01*
X108585000Y-86620000D02*
X103215000Y-86620000D01*
X94045000Y-88835000D02*
X93980000Y-88770000D01*
X98425000Y-88835000D02*
X94045000Y-88835000D01*
X93105000Y-88770000D02*
X86885000Y-82550000D01*
X93980000Y-88770000D02*
X93105000Y-88770000D01*
X86885000Y-82550000D02*
X82798920Y-82550000D01*
X121660000Y-77730000D02*
X121660000Y-80010000D01*
X123190000Y-76200000D02*
X121660000Y-77730000D01*
X123190000Y-63500000D02*
X123190000Y-76200000D01*
X121285000Y-61595000D02*
X123190000Y-63500000D01*
X120573800Y-61595000D02*
X121285000Y-61595000D01*
X103837500Y-59055000D02*
X115646200Y-59055000D01*
X102870000Y-60022500D02*
X103837500Y-59055000D01*
X119333200Y-61595000D02*
X120573800Y-61595000D01*
X115751800Y-59690000D02*
X117428200Y-59690000D01*
X117428200Y-59690000D02*
X119333200Y-61595000D01*
X115646200Y-59584400D02*
X115751800Y-59690000D01*
X115646200Y-59055000D02*
X115646200Y-59584400D01*
X64135000Y-79375000D02*
X64770000Y-80010000D01*
X64135000Y-78663800D02*
X64135000Y-79375000D01*
X69355000Y-85090000D02*
X69980000Y-85090000D01*
X64770000Y-80505000D02*
X69355000Y-85090000D01*
X64770000Y-80010000D02*
X64770000Y-80505000D01*
X65405000Y-74976800D02*
X65405000Y-73736200D01*
X65405000Y-76153200D02*
X65405000Y-74976800D01*
X64135000Y-77423200D02*
X65405000Y-76153200D01*
X64135000Y-78663800D02*
X64135000Y-77423200D01*
X65405000Y-73736200D02*
X66675000Y-73736200D01*
X80258920Y-85090000D02*
X80523080Y-84825840D01*
X69980000Y-85090000D02*
X80258920Y-85090000D01*
X80523080Y-89656920D02*
X80010000Y-90170000D01*
X80523080Y-84825840D02*
X80523080Y-89656920D01*
X83820000Y-78407500D02*
X83820000Y-81528920D01*
X83820000Y-81528920D02*
X82674460Y-82674460D01*
X82674460Y-82674460D02*
X80523080Y-84825840D01*
X82798920Y-82550000D02*
X82674460Y-82674460D01*
X88265000Y-90275600D02*
X88265000Y-91516200D01*
X89770600Y-88770000D02*
X88265000Y-90275600D01*
X93980000Y-88770000D02*
X89770600Y-88770000D01*
X85725000Y-95732600D02*
X85725000Y-96443800D01*
X86380598Y-95203200D02*
X86254400Y-95203200D01*
X88265000Y-93318798D02*
X86380598Y-95203200D01*
X86254400Y-95203200D02*
X85725000Y-95732600D01*
X88265000Y-91516200D02*
X88265000Y-93318798D01*
X125730000Y-60960000D02*
X123190000Y-63500000D01*
X128270000Y-60960000D02*
X125730000Y-60960000D01*
X113665000Y-52372500D02*
X114602500Y-52372500D01*
X114602500Y-52372500D02*
X118110000Y-55880000D01*
X119333200Y-60325000D02*
X120573800Y-60325000D01*
X118110000Y-59101800D02*
X119333200Y-60325000D01*
X118110000Y-55880000D02*
X118110000Y-59101800D01*
X113665000Y-52372500D02*
X109855000Y-52372500D01*
X105582500Y-52372500D02*
X105410000Y-52200000D01*
X109855000Y-52372500D02*
X105582500Y-52372500D01*
X124460000Y-49530000D02*
X118110000Y-55880000D01*
X82590640Y-66331860D02*
X82590640Y-66776600D01*
X89232500Y-59690000D02*
X82590640Y-66331860D01*
X86995000Y-89336880D02*
X86995000Y-91516200D01*
X82519520Y-84861400D02*
X86995000Y-89336880D01*
D17*
G36*
X131953000Y-100203000D02*
G01*
X59817000Y-100203000D01*
X59817000Y-72390000D01*
X61466324Y-72390000D01*
X61470001Y-72427332D01*
X61470000Y-82512678D01*
X61466324Y-82550000D01*
X61470000Y-82587322D01*
X61470000Y-82587332D01*
X61480997Y-82698985D01*
X61517955Y-82820820D01*
X61524454Y-82842246D01*
X61595026Y-82974276D01*
X61634871Y-83022826D01*
X61689999Y-83090001D01*
X61719003Y-83113804D01*
X64206205Y-85601008D01*
X64229999Y-85630001D01*
X64258992Y-85653795D01*
X64258996Y-85653799D01*
X64328609Y-85710928D01*
X64345724Y-85724974D01*
X64477753Y-85795546D01*
X64621014Y-85839003D01*
X64732667Y-85850000D01*
X64732676Y-85850000D01*
X64769999Y-85853676D01*
X64807322Y-85850000D01*
X65930224Y-85850000D01*
X65933992Y-85888254D01*
X65984528Y-86054850D01*
X66066595Y-86208386D01*
X66177038Y-86342962D01*
X66311614Y-86453405D01*
X66465150Y-86535472D01*
X66631746Y-86586008D01*
X66736527Y-86596328D01*
X73621201Y-93481003D01*
X73644999Y-93510001D01*
X73673997Y-93533799D01*
X73760723Y-93604974D01*
X73892753Y-93675546D01*
X74036014Y-93719003D01*
X74147667Y-93730000D01*
X74147677Y-93730000D01*
X74184999Y-93733676D01*
X74222322Y-93730000D01*
X78588661Y-93730000D01*
X78646595Y-93838386D01*
X78757038Y-93972962D01*
X78891614Y-94083405D01*
X79045150Y-94165472D01*
X79211746Y-94216008D01*
X79250001Y-94219776D01*
X79250000Y-97752677D01*
X79246324Y-97790000D01*
X79250000Y-97827322D01*
X79250000Y-97827332D01*
X79260997Y-97938985D01*
X79286756Y-98023902D01*
X79304454Y-98082246D01*
X79375026Y-98214276D01*
X79414871Y-98262826D01*
X79469999Y-98330001D01*
X79499003Y-98353804D01*
X80716201Y-99571003D01*
X80739999Y-99600001D01*
X80855724Y-99694974D01*
X80987753Y-99765546D01*
X81131014Y-99809003D01*
X81242667Y-99820000D01*
X81242676Y-99820000D01*
X81279999Y-99823676D01*
X81317322Y-99820000D01*
X85052678Y-99820000D01*
X85090000Y-99823676D01*
X85127322Y-99820000D01*
X85127333Y-99820000D01*
X85238986Y-99809003D01*
X85382247Y-99765546D01*
X85514276Y-99694974D01*
X85630001Y-99600001D01*
X85653804Y-99570997D01*
X87152330Y-98072472D01*
X87274400Y-98072472D01*
X87398882Y-98060212D01*
X87518580Y-98023902D01*
X87628894Y-97964937D01*
X87630000Y-97964029D01*
X87631106Y-97964937D01*
X87741420Y-98023902D01*
X87861118Y-98060212D01*
X87985600Y-98072472D01*
X88544400Y-98072472D01*
X88668882Y-98060212D01*
X88788580Y-98023902D01*
X88898894Y-97964937D01*
X88995585Y-97885585D01*
X89074937Y-97788894D01*
X89133902Y-97678580D01*
X89170212Y-97558882D01*
X89182472Y-97434400D01*
X89182472Y-95453200D01*
X89170212Y-95328718D01*
X89133902Y-95209020D01*
X89074937Y-95098706D01*
X88995585Y-95002015D01*
X88898894Y-94922663D01*
X88788580Y-94863698D01*
X88668882Y-94827388D01*
X88544400Y-94815128D01*
X87985600Y-94815128D01*
X87861118Y-94827388D01*
X87818189Y-94840410D01*
X88776003Y-93882597D01*
X88805001Y-93858799D01*
X88899974Y-93743074D01*
X88970546Y-93611045D01*
X89014003Y-93467784D01*
X89025000Y-93356131D01*
X89025000Y-93356121D01*
X89028676Y-93318798D01*
X89025000Y-93281475D01*
X89025000Y-92922143D01*
X89074937Y-92861294D01*
X89133902Y-92750980D01*
X89170212Y-92631282D01*
X89182472Y-92506800D01*
X89182472Y-92195000D01*
X92466928Y-92195000D01*
X92479188Y-92319482D01*
X92515498Y-92439180D01*
X92574463Y-92549494D01*
X92653815Y-92646185D01*
X92750506Y-92725537D01*
X92860820Y-92784502D01*
X92980518Y-92820812D01*
X93105000Y-92833072D01*
X93694250Y-92830000D01*
X93853000Y-92671250D01*
X93853000Y-91697000D01*
X94107000Y-91697000D01*
X94107000Y-92671250D01*
X94265750Y-92830000D01*
X94855000Y-92833072D01*
X94979482Y-92820812D01*
X95099180Y-92784502D01*
X95209494Y-92725537D01*
X95306185Y-92646185D01*
X95385537Y-92549494D01*
X95444502Y-92439180D01*
X95480812Y-92319482D01*
X95493072Y-92195000D01*
X95490000Y-91855750D01*
X95331250Y-91697000D01*
X94107000Y-91697000D01*
X93853000Y-91697000D01*
X92628750Y-91697000D01*
X92470000Y-91855750D01*
X92466928Y-92195000D01*
X89182472Y-92195000D01*
X89182472Y-90945000D01*
X92466928Y-90945000D01*
X92470000Y-91284250D01*
X92628750Y-91443000D01*
X93853000Y-91443000D01*
X93853000Y-90468750D01*
X94107000Y-90468750D01*
X94107000Y-91443000D01*
X95331250Y-91443000D01*
X95490000Y-91284250D01*
X95493072Y-90945000D01*
X95480812Y-90820518D01*
X95444502Y-90700820D01*
X95385537Y-90590506D01*
X95306185Y-90493815D01*
X95209494Y-90414463D01*
X95099180Y-90355498D01*
X94979482Y-90319188D01*
X94855000Y-90306928D01*
X94265750Y-90310000D01*
X94107000Y-90468750D01*
X93853000Y-90468750D01*
X93694250Y-90310000D01*
X93105000Y-90306928D01*
X92980518Y-90319188D01*
X92860820Y-90355498D01*
X92750506Y-90414463D01*
X92653815Y-90493815D01*
X92574463Y-90590506D01*
X92515498Y-90700820D01*
X92479188Y-90820518D01*
X92466928Y-90945000D01*
X89182472Y-90945000D01*
X89182472Y-90525600D01*
X89174163Y-90441238D01*
X90085402Y-89530000D01*
X92558661Y-89530000D01*
X92616595Y-89638386D01*
X92727038Y-89772962D01*
X92861614Y-89883405D01*
X93015150Y-89965472D01*
X93181746Y-90016008D01*
X93355000Y-90033072D01*
X94605000Y-90033072D01*
X94778254Y-90016008D01*
X94944850Y-89965472D01*
X95098386Y-89883405D01*
X95232962Y-89772962D01*
X95343405Y-89638386D01*
X95366595Y-89595000D01*
X97491928Y-89595000D01*
X97491928Y-89820000D01*
X97504188Y-89944482D01*
X97540498Y-90064180D01*
X97599463Y-90174494D01*
X97678815Y-90271185D01*
X97775506Y-90350537D01*
X97885820Y-90409502D01*
X98005518Y-90445812D01*
X98130000Y-90458072D01*
X98720000Y-90458072D01*
X98844482Y-90445812D01*
X98964180Y-90409502D01*
X99060000Y-90358284D01*
X99155820Y-90409502D01*
X99275518Y-90445812D01*
X99400000Y-90458072D01*
X99990000Y-90458072D01*
X100114482Y-90445812D01*
X100234180Y-90409502D01*
X100330000Y-90358284D01*
X100425820Y-90409502D01*
X100545518Y-90445812D01*
X100670000Y-90458072D01*
X101260000Y-90458072D01*
X101384482Y-90445812D01*
X101504180Y-90409502D01*
X101600000Y-90358284D01*
X101695820Y-90409502D01*
X101815518Y-90445812D01*
X101940000Y-90458072D01*
X102530000Y-90458072D01*
X102654482Y-90445812D01*
X102774180Y-90409502D01*
X102884494Y-90350537D01*
X102981185Y-90271185D01*
X103060537Y-90174494D01*
X103119502Y-90064180D01*
X103155812Y-89944482D01*
X103168072Y-89820000D01*
X103168072Y-87850000D01*
X103158365Y-87751437D01*
X103529802Y-87380000D01*
X107163661Y-87380000D01*
X107221595Y-87488386D01*
X107332038Y-87622962D01*
X107466614Y-87733405D01*
X107620150Y-87815472D01*
X107786746Y-87866008D01*
X107960000Y-87883072D01*
X109210000Y-87883072D01*
X109383254Y-87866008D01*
X109549850Y-87815472D01*
X109703386Y-87733405D01*
X109837962Y-87622962D01*
X109948405Y-87488386D01*
X110030472Y-87334850D01*
X110056211Y-87250000D01*
X111608661Y-87250000D01*
X111666595Y-87358386D01*
X111777038Y-87492962D01*
X111911614Y-87603405D01*
X112065150Y-87685472D01*
X112231746Y-87736008D01*
X112270000Y-87739776D01*
X112270001Y-88698789D01*
X112185150Y-88724528D01*
X112031614Y-88806595D01*
X111897038Y-88917038D01*
X111786595Y-89051614D01*
X111704528Y-89205150D01*
X111653992Y-89371746D01*
X111636928Y-89545000D01*
X111636928Y-90795000D01*
X111653992Y-90968254D01*
X111704528Y-91134850D01*
X111786595Y-91288386D01*
X111897038Y-91422962D01*
X112031614Y-91533405D01*
X112185150Y-91615472D01*
X112351746Y-91666008D01*
X112525000Y-91683072D01*
X113275000Y-91683072D01*
X113448254Y-91666008D01*
X113614850Y-91615472D01*
X113768386Y-91533405D01*
X113902962Y-91422962D01*
X114013405Y-91288386D01*
X114095472Y-91134850D01*
X114122727Y-91045000D01*
X114436928Y-91045000D01*
X114449188Y-91169482D01*
X114485498Y-91289180D01*
X114544463Y-91399494D01*
X114623815Y-91496185D01*
X114720506Y-91575537D01*
X114830820Y-91634502D01*
X114950518Y-91670812D01*
X115075000Y-91683072D01*
X115414250Y-91680000D01*
X115573000Y-91521250D01*
X115573000Y-90297000D01*
X115827000Y-90297000D01*
X115827000Y-91521250D01*
X115985750Y-91680000D01*
X116325000Y-91683072D01*
X116449482Y-91670812D01*
X116569180Y-91634502D01*
X116679494Y-91575537D01*
X116776185Y-91496185D01*
X116855537Y-91399494D01*
X116914502Y-91289180D01*
X116950812Y-91169482D01*
X116963072Y-91045000D01*
X116960000Y-90455750D01*
X116801250Y-90297000D01*
X115827000Y-90297000D01*
X115573000Y-90297000D01*
X114598750Y-90297000D01*
X114440000Y-90455750D01*
X114436928Y-91045000D01*
X114122727Y-91045000D01*
X114146008Y-90968254D01*
X114163072Y-90795000D01*
X114163072Y-89545000D01*
X114146008Y-89371746D01*
X114122728Y-89295000D01*
X114436928Y-89295000D01*
X114440000Y-89884250D01*
X114598750Y-90043000D01*
X115573000Y-90043000D01*
X115573000Y-88818750D01*
X115827000Y-88818750D01*
X115827000Y-90043000D01*
X116801250Y-90043000D01*
X116960000Y-89884250D01*
X116963072Y-89295000D01*
X116950812Y-89170518D01*
X116914502Y-89050820D01*
X116855537Y-88940506D01*
X116776185Y-88843815D01*
X116679494Y-88764463D01*
X116569180Y-88705498D01*
X116449482Y-88669188D01*
X116325000Y-88656928D01*
X115985750Y-88660000D01*
X115827000Y-88818750D01*
X115573000Y-88818750D01*
X115414250Y-88660000D01*
X115075000Y-88656928D01*
X114950518Y-88669188D01*
X114830820Y-88705498D01*
X114720506Y-88764463D01*
X114623815Y-88843815D01*
X114544463Y-88940506D01*
X114485498Y-89050820D01*
X114449188Y-89170518D01*
X114436928Y-89295000D01*
X114122728Y-89295000D01*
X114095472Y-89205150D01*
X114013405Y-89051614D01*
X113902962Y-88917038D01*
X113790000Y-88824333D01*
X113790000Y-87739776D01*
X113828254Y-87736008D01*
X113994850Y-87685472D01*
X114148386Y-87603405D01*
X114282962Y-87492962D01*
X114393405Y-87358386D01*
X114451339Y-87250000D01*
X115418661Y-87250000D01*
X115476595Y-87358386D01*
X115587038Y-87492962D01*
X115721614Y-87603405D01*
X115875150Y-87685472D01*
X116041746Y-87736008D01*
X116215000Y-87753072D01*
X117465000Y-87753072D01*
X117638254Y-87736008D01*
X117804850Y-87685472D01*
X117958386Y-87603405D01*
X118092962Y-87492962D01*
X118203405Y-87358386D01*
X118285472Y-87204850D01*
X118286615Y-87201082D01*
X120625601Y-87121274D01*
X120650000Y-87123677D01*
X120674399Y-87121274D01*
X123013385Y-87201082D01*
X123014528Y-87204850D01*
X123096595Y-87358386D01*
X123207038Y-87492962D01*
X123341614Y-87603405D01*
X123495150Y-87685472D01*
X123661746Y-87736008D01*
X123835000Y-87753072D01*
X125085000Y-87753072D01*
X125258254Y-87736008D01*
X125424850Y-87685472D01*
X125578386Y-87603405D01*
X125712962Y-87492962D01*
X125823405Y-87358386D01*
X125881339Y-87250000D01*
X128118661Y-87250000D01*
X128176595Y-87358386D01*
X128287038Y-87492962D01*
X128421614Y-87603405D01*
X128575150Y-87685472D01*
X128741746Y-87736008D01*
X128915000Y-87753072D01*
X130165000Y-87753072D01*
X130338254Y-87736008D01*
X130504850Y-87685472D01*
X130658386Y-87603405D01*
X130792962Y-87492962D01*
X130903405Y-87358386D01*
X130985472Y-87204850D01*
X131036008Y-87038254D01*
X131053072Y-86865000D01*
X131053072Y-86115000D01*
X131036008Y-85941746D01*
X130985472Y-85775150D01*
X130903405Y-85621614D01*
X130792962Y-85487038D01*
X130658386Y-85376595D01*
X130504850Y-85294528D01*
X130338254Y-85243992D01*
X130165000Y-85226928D01*
X128915000Y-85226928D01*
X128741746Y-85243992D01*
X128575150Y-85294528D01*
X128421614Y-85376595D01*
X128287038Y-85487038D01*
X128176595Y-85621614D01*
X128118661Y-85730000D01*
X125881339Y-85730000D01*
X125823405Y-85621614D01*
X125712962Y-85487038D01*
X125578386Y-85376595D01*
X125424850Y-85294528D01*
X125258254Y-85243992D01*
X125085000Y-85226928D01*
X123835000Y-85226928D01*
X123661746Y-85243992D01*
X123495150Y-85294528D01*
X123341614Y-85376595D01*
X123207038Y-85487038D01*
X123096595Y-85621614D01*
X123064351Y-85681938D01*
X121665591Y-85634211D01*
X122171003Y-85128799D01*
X122200001Y-85105001D01*
X122294974Y-84989276D01*
X122365546Y-84857247D01*
X122409003Y-84713986D01*
X122420000Y-84602333D01*
X122420000Y-84602325D01*
X122423676Y-84565000D01*
X122420000Y-84527675D01*
X122420000Y-84315000D01*
X122946928Y-84315000D01*
X122959188Y-84439482D01*
X122995498Y-84559180D01*
X123054463Y-84669494D01*
X123133815Y-84766185D01*
X123230506Y-84845537D01*
X123340820Y-84904502D01*
X123460518Y-84940812D01*
X123585000Y-84953072D01*
X124174250Y-84950000D01*
X124333000Y-84791250D01*
X124333000Y-83817000D01*
X124587000Y-83817000D01*
X124587000Y-84791250D01*
X124745750Y-84950000D01*
X125335000Y-84953072D01*
X125459482Y-84940812D01*
X125579180Y-84904502D01*
X125689494Y-84845537D01*
X125786185Y-84766185D01*
X125865537Y-84669494D01*
X125924502Y-84559180D01*
X125960812Y-84439482D01*
X125973072Y-84315000D01*
X128026928Y-84315000D01*
X128039188Y-84439482D01*
X128075498Y-84559180D01*
X128134463Y-84669494D01*
X128213815Y-84766185D01*
X128310506Y-84845537D01*
X128420820Y-84904502D01*
X128540518Y-84940812D01*
X128665000Y-84953072D01*
X129254250Y-84950000D01*
X129413000Y-84791250D01*
X129413000Y-83817000D01*
X129667000Y-83817000D01*
X129667000Y-84791250D01*
X129825750Y-84950000D01*
X130415000Y-84953072D01*
X130539482Y-84940812D01*
X130659180Y-84904502D01*
X130769494Y-84845537D01*
X130866185Y-84766185D01*
X130945537Y-84669494D01*
X131004502Y-84559180D01*
X131040812Y-84439482D01*
X131053072Y-84315000D01*
X131050000Y-83975750D01*
X130891250Y-83817000D01*
X129667000Y-83817000D01*
X129413000Y-83817000D01*
X128188750Y-83817000D01*
X128030000Y-83975750D01*
X128026928Y-84315000D01*
X125973072Y-84315000D01*
X125970000Y-83975750D01*
X125811250Y-83817000D01*
X124587000Y-83817000D01*
X124333000Y-83817000D01*
X123108750Y-83817000D01*
X122950000Y-83975750D01*
X122946928Y-84315000D01*
X122420000Y-84315000D01*
X122420000Y-83065000D01*
X122946928Y-83065000D01*
X122950000Y-83404250D01*
X123108750Y-83563000D01*
X124333000Y-83563000D01*
X124333000Y-82588750D01*
X124587000Y-82588750D01*
X124587000Y-83563000D01*
X125811250Y-83563000D01*
X125970000Y-83404250D01*
X125973072Y-83065000D01*
X128026928Y-83065000D01*
X128030000Y-83404250D01*
X128188750Y-83563000D01*
X129413000Y-83563000D01*
X129413000Y-82588750D01*
X129667000Y-82588750D01*
X129667000Y-83563000D01*
X130891250Y-83563000D01*
X131050000Y-83404250D01*
X131053072Y-83065000D01*
X131040812Y-82940518D01*
X131004502Y-82820820D01*
X130945537Y-82710506D01*
X130866185Y-82613815D01*
X130769494Y-82534463D01*
X130659180Y-82475498D01*
X130539482Y-82439188D01*
X130415000Y-82426928D01*
X129825750Y-82430000D01*
X129667000Y-82588750D01*
X129413000Y-82588750D01*
X129254250Y-82430000D01*
X128665000Y-82426928D01*
X128540518Y-82439188D01*
X128420820Y-82475498D01*
X128310506Y-82534463D01*
X128213815Y-82613815D01*
X128134463Y-82710506D01*
X128075498Y-82820820D01*
X128039188Y-82940518D01*
X128026928Y-83065000D01*
X125973072Y-83065000D01*
X125960812Y-82940518D01*
X125924502Y-82820820D01*
X125865537Y-82710506D01*
X125786185Y-82613815D01*
X125689494Y-82534463D01*
X125579180Y-82475498D01*
X125459482Y-82439188D01*
X125335000Y-82426928D01*
X124745750Y-82430000D01*
X124587000Y-82588750D01*
X124333000Y-82588750D01*
X124174250Y-82430000D01*
X123585000Y-82426928D01*
X123460518Y-82439188D01*
X123340820Y-82475498D01*
X123230506Y-82534463D01*
X123133815Y-82613815D01*
X123054463Y-82710506D01*
X122995498Y-82820820D01*
X122959188Y-82940518D01*
X122946928Y-83065000D01*
X122420000Y-83065000D01*
X122420000Y-81431339D01*
X122528386Y-81373405D01*
X122662962Y-81262962D01*
X122773405Y-81128386D01*
X122855472Y-80974850D01*
X122882727Y-80885000D01*
X123196928Y-80885000D01*
X123209188Y-81009482D01*
X123245498Y-81129180D01*
X123304463Y-81239494D01*
X123383815Y-81336185D01*
X123480506Y-81415537D01*
X123590820Y-81474502D01*
X123710518Y-81510812D01*
X123835000Y-81523072D01*
X124174250Y-81520000D01*
X124333000Y-81361250D01*
X124333000Y-80137000D01*
X124587000Y-80137000D01*
X124587000Y-81361250D01*
X124745750Y-81520000D01*
X125085000Y-81523072D01*
X125209482Y-81510812D01*
X125329180Y-81474502D01*
X125439494Y-81415537D01*
X125536185Y-81336185D01*
X125615537Y-81239494D01*
X125674502Y-81129180D01*
X125710812Y-81009482D01*
X125723072Y-80885000D01*
X125720000Y-80295750D01*
X125561250Y-80137000D01*
X124587000Y-80137000D01*
X124333000Y-80137000D01*
X123358750Y-80137000D01*
X123200000Y-80295750D01*
X123196928Y-80885000D01*
X122882727Y-80885000D01*
X122906008Y-80808254D01*
X122923072Y-80635000D01*
X122923072Y-79385000D01*
X122906008Y-79211746D01*
X122882728Y-79135000D01*
X123196928Y-79135000D01*
X123200000Y-79724250D01*
X123358750Y-79883000D01*
X124333000Y-79883000D01*
X124333000Y-78658750D01*
X124587000Y-78658750D01*
X124587000Y-79883000D01*
X125561250Y-79883000D01*
X125720000Y-79724250D01*
X125723072Y-79135000D01*
X125710812Y-79010518D01*
X125674502Y-78890820D01*
X125615537Y-78780506D01*
X125536185Y-78683815D01*
X125439494Y-78604463D01*
X125329180Y-78545498D01*
X125209482Y-78509188D01*
X125085000Y-78496928D01*
X124745750Y-78500000D01*
X124587000Y-78658750D01*
X124333000Y-78658750D01*
X124174250Y-78500000D01*
X123835000Y-78496928D01*
X123710518Y-78509188D01*
X123590820Y-78545498D01*
X123480506Y-78604463D01*
X123383815Y-78683815D01*
X123304463Y-78780506D01*
X123245498Y-78890820D01*
X123209188Y-79010518D01*
X123196928Y-79135000D01*
X122882728Y-79135000D01*
X122855472Y-79045150D01*
X122773405Y-78891614D01*
X122662962Y-78757038D01*
X122528386Y-78646595D01*
X122420000Y-78588661D01*
X122420000Y-78044801D01*
X123701003Y-76763799D01*
X123730001Y-76740001D01*
X123824974Y-76624276D01*
X123895546Y-76492247D01*
X123939003Y-76348986D01*
X123950000Y-76237333D01*
X123950000Y-76237325D01*
X123953676Y-76200000D01*
X123950000Y-76162675D01*
X123950000Y-63814801D01*
X126044803Y-61720000D01*
X126781928Y-61720000D01*
X126781928Y-61810000D01*
X126794188Y-61934482D01*
X126830498Y-62054180D01*
X126889463Y-62164494D01*
X126968815Y-62261185D01*
X127065506Y-62340537D01*
X127175820Y-62399502D01*
X127295518Y-62435812D01*
X127420000Y-62448072D01*
X129120000Y-62448072D01*
X129244482Y-62435812D01*
X129364180Y-62399502D01*
X129474494Y-62340537D01*
X129571185Y-62261185D01*
X129650537Y-62164494D01*
X129709502Y-62054180D01*
X129745812Y-61934482D01*
X129758072Y-61810000D01*
X129758072Y-60110000D01*
X129745812Y-59985518D01*
X129709502Y-59865820D01*
X129650537Y-59755506D01*
X129571185Y-59658815D01*
X129474494Y-59579463D01*
X129364180Y-59520498D01*
X129244482Y-59484188D01*
X129120000Y-59471928D01*
X127420000Y-59471928D01*
X127295518Y-59484188D01*
X127175820Y-59520498D01*
X127065506Y-59579463D01*
X126968815Y-59658815D01*
X126889463Y-59755506D01*
X126830498Y-59865820D01*
X126794188Y-59985518D01*
X126781928Y-60110000D01*
X126781928Y-60200000D01*
X125767322Y-60200000D01*
X125729999Y-60196324D01*
X125692676Y-60200000D01*
X125692667Y-60200000D01*
X125581014Y-60210997D01*
X125437753Y-60254454D01*
X125305724Y-60325026D01*
X125305722Y-60325027D01*
X125305723Y-60325027D01*
X125218996Y-60396201D01*
X125218992Y-60396205D01*
X125189999Y-60419999D01*
X125166205Y-60448992D01*
X123190000Y-62425198D01*
X122202472Y-61437671D01*
X122202472Y-61315600D01*
X122190212Y-61191118D01*
X122153902Y-61071420D01*
X122094937Y-60961106D01*
X122094029Y-60960000D01*
X122094937Y-60958894D01*
X122153902Y-60848580D01*
X122190212Y-60728882D01*
X122202472Y-60604400D01*
X122202472Y-60045600D01*
X122190212Y-59921118D01*
X122153902Y-59801420D01*
X122094937Y-59691106D01*
X122094029Y-59690000D01*
X122094937Y-59688894D01*
X122153902Y-59578580D01*
X122190212Y-59458882D01*
X122202472Y-59334400D01*
X122202472Y-58775600D01*
X122190212Y-58651118D01*
X122153902Y-58531420D01*
X122094937Y-58421106D01*
X122015585Y-58324415D01*
X121918894Y-58245063D01*
X121808580Y-58186098D01*
X121688882Y-58149788D01*
X121564400Y-58137528D01*
X119583200Y-58137528D01*
X119458718Y-58149788D01*
X119339020Y-58186098D01*
X119228706Y-58245063D01*
X119132015Y-58324415D01*
X119052663Y-58421106D01*
X118993698Y-58531420D01*
X118957388Y-58651118D01*
X118945128Y-58775600D01*
X118945128Y-58862127D01*
X118870000Y-58786999D01*
X118870000Y-56194801D01*
X124046730Y-51018072D01*
X125310000Y-51018072D01*
X125434482Y-51005812D01*
X125554180Y-50969502D01*
X125664494Y-50910537D01*
X125761185Y-50831185D01*
X125840537Y-50734494D01*
X125899502Y-50624180D01*
X125935812Y-50504482D01*
X125948072Y-50380000D01*
X125948072Y-48680000D01*
X125935812Y-48555518D01*
X125899502Y-48435820D01*
X125840537Y-48325506D01*
X125761185Y-48228815D01*
X125664494Y-48149463D01*
X125554180Y-48090498D01*
X125434482Y-48054188D01*
X125310000Y-48041928D01*
X123610000Y-48041928D01*
X123485518Y-48054188D01*
X123365820Y-48090498D01*
X123255506Y-48149463D01*
X123158815Y-48228815D01*
X123079463Y-48325506D01*
X123020498Y-48435820D01*
X122984188Y-48555518D01*
X122971928Y-48680000D01*
X122971928Y-49943270D01*
X118110000Y-54805199D01*
X115166304Y-51861503D01*
X115142501Y-51832499D01*
X115026776Y-51737526D01*
X114894747Y-51666954D01*
X114864599Y-51657809D01*
X114854458Y-51638836D01*
X114744792Y-51505208D01*
X114659244Y-51435000D01*
X114744792Y-51364792D01*
X114854458Y-51231164D01*
X114935947Y-51078709D01*
X114986128Y-50913285D01*
X115003072Y-50741250D01*
X115003072Y-50253750D01*
X114986128Y-50081715D01*
X114935947Y-49916291D01*
X114854458Y-49763836D01*
X114744792Y-49630208D01*
X114611164Y-49520542D01*
X114458709Y-49439053D01*
X114293285Y-49388872D01*
X114121250Y-49371928D01*
X113208750Y-49371928D01*
X113036715Y-49388872D01*
X112871291Y-49439053D01*
X112718836Y-49520542D01*
X112585208Y-49630208D01*
X112497155Y-49737500D01*
X111022845Y-49737500D01*
X110934792Y-49630208D01*
X110801164Y-49520542D01*
X110648709Y-49439053D01*
X110483285Y-49388872D01*
X110311250Y-49371928D01*
X109764209Y-49371928D01*
X109684746Y-49329454D01*
X109541485Y-49285998D01*
X109392500Y-49271324D01*
X109243515Y-49285998D01*
X109100254Y-49329454D01*
X108968224Y-49400026D01*
X108852499Y-49494999D01*
X108757526Y-49610724D01*
X108694632Y-49728390D01*
X108687155Y-49737500D01*
X106923072Y-49737500D01*
X106923072Y-49025000D01*
X106906008Y-48851746D01*
X106855472Y-48685150D01*
X106773405Y-48531614D01*
X106662962Y-48397038D01*
X106528386Y-48286595D01*
X106374850Y-48204528D01*
X106208254Y-48153992D01*
X106035000Y-48136928D01*
X104785000Y-48136928D01*
X104611746Y-48153992D01*
X104445150Y-48204528D01*
X104291614Y-48286595D01*
X104157038Y-48397038D01*
X104046595Y-48531614D01*
X103964528Y-48685150D01*
X103913992Y-48851746D01*
X103903672Y-48956525D01*
X97475199Y-55385000D01*
X94689822Y-55385000D01*
X94652499Y-55381324D01*
X94615176Y-55385000D01*
X94615167Y-55385000D01*
X94503514Y-55395997D01*
X94360253Y-55439454D01*
X94228223Y-55510026D01*
X94144583Y-55578668D01*
X94112499Y-55604999D01*
X94088701Y-55633997D01*
X91369021Y-58353678D01*
X91351250Y-58351928D01*
X90863750Y-58351928D01*
X90691715Y-58368872D01*
X90526291Y-58419053D01*
X90373836Y-58500542D01*
X90240208Y-58610208D01*
X90170000Y-58695756D01*
X90099792Y-58610208D01*
X89966164Y-58500542D01*
X89813709Y-58419053D01*
X89648285Y-58368872D01*
X89476250Y-58351928D01*
X88988750Y-58351928D01*
X88816715Y-58368872D01*
X88651291Y-58419053D01*
X88498836Y-58500542D01*
X88365208Y-58610208D01*
X88255542Y-58743836D01*
X88174053Y-58896291D01*
X88123872Y-59061715D01*
X88106928Y-59233750D01*
X88106928Y-59740769D01*
X82468099Y-65379600D01*
X82453048Y-65379600D01*
X82183150Y-65433286D01*
X81928913Y-65538595D01*
X81700105Y-65691480D01*
X81544160Y-65847425D01*
X81357735Y-65661000D01*
X81128927Y-65508115D01*
X80874690Y-65402806D01*
X80604792Y-65349120D01*
X80329608Y-65349120D01*
X80059710Y-65402806D01*
X79805473Y-65508115D01*
X79576665Y-65661000D01*
X79382080Y-65855585D01*
X79229195Y-66084393D01*
X79123886Y-66338630D01*
X79070200Y-66608528D01*
X79070200Y-66883712D01*
X79123886Y-67153610D01*
X79229195Y-67407847D01*
X79382080Y-67636655D01*
X79576665Y-67831240D01*
X79805473Y-67984125D01*
X80059710Y-68089434D01*
X80329608Y-68143120D01*
X80604792Y-68143120D01*
X80874690Y-68089434D01*
X81128927Y-67984125D01*
X81357735Y-67831240D01*
X81513680Y-67675295D01*
X81700105Y-67861720D01*
X81928913Y-68014605D01*
X82183150Y-68119914D01*
X82453048Y-68173600D01*
X82728232Y-68173600D01*
X82998130Y-68119914D01*
X83252367Y-68014605D01*
X83481175Y-67861720D01*
X83675760Y-67667135D01*
X83828645Y-67438327D01*
X83933954Y-67184090D01*
X83987640Y-66914192D01*
X83987640Y-66639008D01*
X83933954Y-66369110D01*
X83844398Y-66152903D01*
X88970981Y-61026322D01*
X88988750Y-61028072D01*
X89476250Y-61028072D01*
X89648285Y-61011128D01*
X89813709Y-60960947D01*
X89966164Y-60879458D01*
X90099792Y-60769792D01*
X90170000Y-60684244D01*
X90240208Y-60769792D01*
X90373836Y-60879458D01*
X90526291Y-60960947D01*
X90691715Y-61011128D01*
X90863750Y-61028072D01*
X91351250Y-61028072D01*
X91523285Y-61011128D01*
X91688709Y-60960947D01*
X91841164Y-60879458D01*
X91974792Y-60769792D01*
X92084458Y-60636164D01*
X92165947Y-60483709D01*
X92216128Y-60318285D01*
X92233072Y-60146250D01*
X92233072Y-59639229D01*
X94967302Y-56905000D01*
X97030001Y-56905000D01*
X97030000Y-64732678D01*
X97026324Y-64770000D01*
X97030000Y-64807322D01*
X97030000Y-64807332D01*
X97040997Y-64918985D01*
X97084454Y-65062246D01*
X97155026Y-65194276D01*
X97170908Y-65213628D01*
X97249999Y-65310001D01*
X97279003Y-65333804D01*
X101036201Y-69091003D01*
X101059999Y-69120001D01*
X101175724Y-69214974D01*
X101307753Y-69285546D01*
X101451014Y-69329003D01*
X101562667Y-69340000D01*
X101562675Y-69340000D01*
X101600000Y-69343676D01*
X101637325Y-69340000D01*
X107912678Y-69340000D01*
X107950000Y-69343676D01*
X107987322Y-69340000D01*
X107987333Y-69340000D01*
X108098986Y-69329003D01*
X108242247Y-69285546D01*
X108374276Y-69214974D01*
X108490001Y-69120001D01*
X108513804Y-69090997D01*
X114118391Y-63486411D01*
X114125063Y-63498894D01*
X114204415Y-63595585D01*
X114301106Y-63674937D01*
X114411420Y-63733902D01*
X114531118Y-63770212D01*
X114655600Y-63782472D01*
X116636800Y-63782472D01*
X116761282Y-63770212D01*
X116880980Y-63733902D01*
X116991294Y-63674937D01*
X117087985Y-63595585D01*
X117167337Y-63498894D01*
X117226302Y-63388580D01*
X117262612Y-63268882D01*
X117274872Y-63144400D01*
X117274872Y-62585600D01*
X117262612Y-62461118D01*
X117226302Y-62341420D01*
X117167337Y-62231106D01*
X117166429Y-62230000D01*
X117167337Y-62228894D01*
X117226302Y-62118580D01*
X117262612Y-61998882D01*
X117274872Y-61874400D01*
X117274872Y-61315600D01*
X117262612Y-61191118D01*
X117226302Y-61071420D01*
X117167337Y-60961106D01*
X117166429Y-60960000D01*
X117167337Y-60958894D01*
X117226302Y-60848580D01*
X117262612Y-60728882D01*
X117274238Y-60610839D01*
X118769400Y-62106002D01*
X118793199Y-62135001D01*
X118908924Y-62229974D01*
X119021192Y-62289983D01*
X118993698Y-62341420D01*
X118957388Y-62461118D01*
X118945128Y-62585600D01*
X118945128Y-63144400D01*
X118957388Y-63268882D01*
X118993698Y-63388580D01*
X119052663Y-63498894D01*
X119132015Y-63595585D01*
X119228706Y-63674937D01*
X119339020Y-63733902D01*
X119458718Y-63770212D01*
X119583200Y-63782472D01*
X121564400Y-63782472D01*
X121688882Y-63770212D01*
X121808580Y-63733902D01*
X121918894Y-63674937D01*
X122015585Y-63595585D01*
X122094937Y-63498894D01*
X122101609Y-63486411D01*
X122430000Y-63814802D01*
X122430001Y-75885197D01*
X121149003Y-77166196D01*
X121119999Y-77189999D01*
X121064871Y-77257174D01*
X121025026Y-77305724D01*
X120982188Y-77385868D01*
X120954454Y-77437754D01*
X120910997Y-77581015D01*
X120900000Y-77692668D01*
X120900000Y-77692678D01*
X120896324Y-77730000D01*
X120900000Y-77767323D01*
X120900000Y-78588661D01*
X120791614Y-78646595D01*
X120657038Y-78757038D01*
X120546595Y-78891614D01*
X120464528Y-79045150D01*
X120413992Y-79211746D01*
X120396928Y-79385000D01*
X120396928Y-80635000D01*
X120413992Y-80808254D01*
X120464528Y-80974850D01*
X120546595Y-81128386D01*
X120657038Y-81262962D01*
X120791614Y-81373405D01*
X120900000Y-81431339D01*
X120900001Y-84250197D01*
X120139002Y-85011196D01*
X120109999Y-85034999D01*
X120073068Y-85080000D01*
X120015026Y-85150724D01*
X119956908Y-85259454D01*
X119944454Y-85282754D01*
X119900997Y-85426015D01*
X119890000Y-85537668D01*
X119890000Y-85537678D01*
X119886324Y-85575000D01*
X119890000Y-85612322D01*
X119890000Y-85625490D01*
X118235649Y-85681938D01*
X118203405Y-85621614D01*
X118092962Y-85487038D01*
X117958386Y-85376595D01*
X117804850Y-85294528D01*
X117638254Y-85243992D01*
X117465000Y-85226928D01*
X116215000Y-85226928D01*
X116041746Y-85243992D01*
X115875150Y-85294528D01*
X115721614Y-85376595D01*
X115587038Y-85487038D01*
X115476595Y-85621614D01*
X115418661Y-85730000D01*
X114451339Y-85730000D01*
X114393405Y-85621614D01*
X114282962Y-85487038D01*
X114148386Y-85376595D01*
X113994850Y-85294528D01*
X113828254Y-85243992D01*
X113655000Y-85226928D01*
X112405000Y-85226928D01*
X112231746Y-85243992D01*
X112065150Y-85294528D01*
X111911614Y-85376595D01*
X111777038Y-85487038D01*
X111666595Y-85621614D01*
X111608661Y-85730000D01*
X109930667Y-85730000D01*
X109837962Y-85617038D01*
X109703386Y-85506595D01*
X109549850Y-85424528D01*
X109383254Y-85373992D01*
X109210000Y-85356928D01*
X107960000Y-85356928D01*
X107786746Y-85373992D01*
X107620150Y-85424528D01*
X107466614Y-85506595D01*
X107332038Y-85617038D01*
X107221595Y-85751614D01*
X107163661Y-85860000D01*
X103252322Y-85860000D01*
X103214999Y-85856324D01*
X103177676Y-85860000D01*
X103177667Y-85860000D01*
X103066014Y-85870997D01*
X102922753Y-85914454D01*
X102790724Y-85985026D01*
X102674999Y-86079999D01*
X102651201Y-86108997D01*
X101724002Y-87036196D01*
X101694999Y-87059999D01*
X101654783Y-87109003D01*
X101600026Y-87175724D01*
X101557666Y-87254974D01*
X101543484Y-87281507D01*
X101504180Y-87260498D01*
X101384482Y-87224188D01*
X101260000Y-87211928D01*
X100670000Y-87211928D01*
X100545518Y-87224188D01*
X100425820Y-87260498D01*
X100330000Y-87311716D01*
X100234180Y-87260498D01*
X100114482Y-87224188D01*
X99990000Y-87211928D01*
X99400000Y-87211928D01*
X99275518Y-87224188D01*
X99155820Y-87260498D01*
X99060000Y-87311716D01*
X98964180Y-87260498D01*
X98844482Y-87224188D01*
X98720000Y-87211928D01*
X98130000Y-87211928D01*
X98005518Y-87224188D01*
X97885820Y-87260498D01*
X97775506Y-87319463D01*
X97678815Y-87398815D01*
X97599463Y-87495506D01*
X97540498Y-87605820D01*
X97504188Y-87725518D01*
X97491928Y-87850000D01*
X97491928Y-88075000D01*
X95431493Y-88075000D01*
X95425472Y-88055150D01*
X95343405Y-87901614D01*
X95232962Y-87767038D01*
X95098386Y-87656595D01*
X94944850Y-87574528D01*
X94778254Y-87523992D01*
X94605000Y-87506928D01*
X93355000Y-87506928D01*
X93181746Y-87523992D01*
X93015150Y-87574528D01*
X92995065Y-87585263D01*
X88309802Y-82900000D01*
X97491928Y-82900000D01*
X97491928Y-84870000D01*
X97504188Y-84994482D01*
X97540498Y-85114180D01*
X97599463Y-85224494D01*
X97678815Y-85321185D01*
X97775506Y-85400537D01*
X97885820Y-85459502D01*
X98005518Y-85495812D01*
X98130000Y-85508072D01*
X98720000Y-85508072D01*
X98844482Y-85495812D01*
X98964180Y-85459502D01*
X99060000Y-85408284D01*
X99155820Y-85459502D01*
X99275518Y-85495812D01*
X99400000Y-85508072D01*
X99990000Y-85508072D01*
X100114482Y-85495812D01*
X100234180Y-85459502D01*
X100330000Y-85408284D01*
X100425820Y-85459502D01*
X100545518Y-85495812D01*
X100670000Y-85508072D01*
X100679250Y-85505000D01*
X100838000Y-85346250D01*
X100838000Y-84012000D01*
X100818000Y-84012000D01*
X100818000Y-83758000D01*
X100838000Y-83758000D01*
X100838000Y-82423750D01*
X100679250Y-82265000D01*
X100670000Y-82261928D01*
X100545518Y-82274188D01*
X100455000Y-82301646D01*
X100455000Y-81687322D01*
X100458676Y-81649999D01*
X100455000Y-81612676D01*
X100455000Y-81612667D01*
X100444003Y-81501014D01*
X100400546Y-81357753D01*
X100329974Y-81225724D01*
X100290190Y-81177247D01*
X100258799Y-81138996D01*
X100258795Y-81138992D01*
X100235001Y-81109999D01*
X100206009Y-81086206D01*
X100114737Y-80994934D01*
X100125472Y-80974850D01*
X100176008Y-80808254D01*
X100193072Y-80635000D01*
X100193072Y-79385000D01*
X100466928Y-79385000D01*
X100466928Y-80635000D01*
X100483992Y-80808254D01*
X100534528Y-80974850D01*
X100616595Y-81128386D01*
X100727038Y-81262962D01*
X100861614Y-81373405D01*
X100970000Y-81431339D01*
X100970001Y-83342668D01*
X100966324Y-83380000D01*
X100970001Y-83417333D01*
X100979925Y-83518086D01*
X100980998Y-83528985D01*
X101024454Y-83672246D01*
X101095026Y-83804276D01*
X101112000Y-83824959D01*
X101112000Y-84012000D01*
X101092000Y-84012000D01*
X101092000Y-85346250D01*
X101250750Y-85505000D01*
X101260000Y-85508072D01*
X101384482Y-85495812D01*
X101504180Y-85459502D01*
X101600000Y-85408284D01*
X101695820Y-85459502D01*
X101815518Y-85495812D01*
X101940000Y-85508072D01*
X102530000Y-85508072D01*
X102654482Y-85495812D01*
X102774180Y-85459502D01*
X102884494Y-85400537D01*
X102981185Y-85321185D01*
X103060537Y-85224494D01*
X103119502Y-85114180D01*
X103155812Y-84994482D01*
X103168072Y-84870000D01*
X103168072Y-84445000D01*
X107071928Y-84445000D01*
X107084188Y-84569482D01*
X107120498Y-84689180D01*
X107179463Y-84799494D01*
X107258815Y-84896185D01*
X107355506Y-84975537D01*
X107465820Y-85034502D01*
X107585518Y-85070812D01*
X107710000Y-85083072D01*
X108299250Y-85080000D01*
X108458000Y-84921250D01*
X108458000Y-83947000D01*
X108712000Y-83947000D01*
X108712000Y-84921250D01*
X108870750Y-85080000D01*
X109460000Y-85083072D01*
X109584482Y-85070812D01*
X109704180Y-85034502D01*
X109814494Y-84975537D01*
X109911185Y-84896185D01*
X109990537Y-84799494D01*
X110049502Y-84689180D01*
X110085812Y-84569482D01*
X110098072Y-84445000D01*
X110096895Y-84315000D01*
X111516928Y-84315000D01*
X111529188Y-84439482D01*
X111565498Y-84559180D01*
X111624463Y-84669494D01*
X111703815Y-84766185D01*
X111800506Y-84845537D01*
X111910820Y-84904502D01*
X112030518Y-84940812D01*
X112155000Y-84953072D01*
X112744250Y-84950000D01*
X112903000Y-84791250D01*
X112903000Y-83817000D01*
X113157000Y-83817000D01*
X113157000Y-84791250D01*
X113315750Y-84950000D01*
X113905000Y-84953072D01*
X114029482Y-84940812D01*
X114149180Y-84904502D01*
X114259494Y-84845537D01*
X114356185Y-84766185D01*
X114435537Y-84669494D01*
X114494502Y-84559180D01*
X114530812Y-84439482D01*
X114543072Y-84315000D01*
X115326928Y-84315000D01*
X115339188Y-84439482D01*
X115375498Y-84559180D01*
X115434463Y-84669494D01*
X115513815Y-84766185D01*
X115610506Y-84845537D01*
X115720820Y-84904502D01*
X115840518Y-84940812D01*
X115965000Y-84953072D01*
X116554250Y-84950000D01*
X116713000Y-84791250D01*
X116713000Y-83817000D01*
X116967000Y-83817000D01*
X116967000Y-84791250D01*
X117125750Y-84950000D01*
X117715000Y-84953072D01*
X117839482Y-84940812D01*
X117959180Y-84904502D01*
X118069494Y-84845537D01*
X118166185Y-84766185D01*
X118245537Y-84669494D01*
X118304502Y-84559180D01*
X118340812Y-84439482D01*
X118353072Y-84315000D01*
X118350000Y-83975750D01*
X118191250Y-83817000D01*
X116967000Y-83817000D01*
X116713000Y-83817000D01*
X115488750Y-83817000D01*
X115330000Y-83975750D01*
X115326928Y-84315000D01*
X114543072Y-84315000D01*
X114540000Y-83975750D01*
X114381250Y-83817000D01*
X113157000Y-83817000D01*
X112903000Y-83817000D01*
X111678750Y-83817000D01*
X111520000Y-83975750D01*
X111516928Y-84315000D01*
X110096895Y-84315000D01*
X110095000Y-84105750D01*
X109936250Y-83947000D01*
X108712000Y-83947000D01*
X108458000Y-83947000D01*
X107233750Y-83947000D01*
X107075000Y-84105750D01*
X107071928Y-84445000D01*
X103168072Y-84445000D01*
X103168072Y-83195000D01*
X107071928Y-83195000D01*
X107075000Y-83534250D01*
X107233750Y-83693000D01*
X108458000Y-83693000D01*
X108458000Y-82718750D01*
X108712000Y-82718750D01*
X108712000Y-83693000D01*
X109936250Y-83693000D01*
X110095000Y-83534250D01*
X110098072Y-83195000D01*
X110085812Y-83070518D01*
X110084139Y-83065000D01*
X111516928Y-83065000D01*
X111520000Y-83404250D01*
X111678750Y-83563000D01*
X112903000Y-83563000D01*
X112903000Y-82588750D01*
X113157000Y-82588750D01*
X113157000Y-83563000D01*
X114381250Y-83563000D01*
X114540000Y-83404250D01*
X114543072Y-83065000D01*
X115326928Y-83065000D01*
X115330000Y-83404250D01*
X115488750Y-83563000D01*
X116713000Y-83563000D01*
X116713000Y-82588750D01*
X116967000Y-82588750D01*
X116967000Y-83563000D01*
X118191250Y-83563000D01*
X118350000Y-83404250D01*
X118353072Y-83065000D01*
X118340812Y-82940518D01*
X118304502Y-82820820D01*
X118245537Y-82710506D01*
X118166185Y-82613815D01*
X118069494Y-82534463D01*
X117959180Y-82475498D01*
X117839482Y-82439188D01*
X117715000Y-82426928D01*
X117125750Y-82430000D01*
X116967000Y-82588750D01*
X116713000Y-82588750D01*
X116554250Y-82430000D01*
X115965000Y-82426928D01*
X115840518Y-82439188D01*
X115720820Y-82475498D01*
X115610506Y-82534463D01*
X115513815Y-82613815D01*
X115434463Y-82710506D01*
X115375498Y-82820820D01*
X115339188Y-82940518D01*
X115326928Y-83065000D01*
X114543072Y-83065000D01*
X114530812Y-82940518D01*
X114494502Y-82820820D01*
X114435537Y-82710506D01*
X114356185Y-82613815D01*
X114259494Y-82534463D01*
X114149180Y-82475498D01*
X114029482Y-82439188D01*
X113905000Y-82426928D01*
X113315750Y-82430000D01*
X113157000Y-82588750D01*
X112903000Y-82588750D01*
X112744250Y-82430000D01*
X112155000Y-82426928D01*
X112030518Y-82439188D01*
X111910820Y-82475498D01*
X111800506Y-82534463D01*
X111703815Y-82613815D01*
X111624463Y-82710506D01*
X111565498Y-82820820D01*
X111529188Y-82940518D01*
X111516928Y-83065000D01*
X110084139Y-83065000D01*
X110049502Y-82950820D01*
X109990537Y-82840506D01*
X109911185Y-82743815D01*
X109814494Y-82664463D01*
X109704180Y-82605498D01*
X109584482Y-82569188D01*
X109460000Y-82556928D01*
X108870750Y-82560000D01*
X108712000Y-82718750D01*
X108458000Y-82718750D01*
X108299250Y-82560000D01*
X107710000Y-82556928D01*
X107585518Y-82569188D01*
X107465820Y-82605498D01*
X107355506Y-82664463D01*
X107258815Y-82743815D01*
X107179463Y-82840506D01*
X107120498Y-82950820D01*
X107084188Y-83070518D01*
X107071928Y-83195000D01*
X103168072Y-83195000D01*
X103168072Y-82900000D01*
X103155812Y-82775518D01*
X103119502Y-82655820D01*
X103060537Y-82545506D01*
X102981185Y-82448815D01*
X102884494Y-82369463D01*
X102774180Y-82310498D01*
X102654482Y-82274188D01*
X102530000Y-82261928D01*
X102490000Y-82261928D01*
X102490000Y-81431339D01*
X102598386Y-81373405D01*
X102732962Y-81262962D01*
X102843405Y-81128386D01*
X102925472Y-80974850D01*
X102976008Y-80808254D01*
X102993072Y-80635000D01*
X102993072Y-79385000D01*
X102976008Y-79211746D01*
X102925472Y-79045150D01*
X102843405Y-78891614D01*
X102732962Y-78757038D01*
X102598386Y-78646595D01*
X102444850Y-78564528D01*
X102278254Y-78513992D01*
X102105000Y-78496928D01*
X101355000Y-78496928D01*
X101181746Y-78513992D01*
X101015150Y-78564528D01*
X100861614Y-78646595D01*
X100727038Y-78757038D01*
X100616595Y-78891614D01*
X100534528Y-79045150D01*
X100483992Y-79211746D01*
X100466928Y-79385000D01*
X100193072Y-79385000D01*
X100176008Y-79211746D01*
X100125472Y-79045150D01*
X100043405Y-78891614D01*
X99932962Y-78757038D01*
X99798386Y-78646595D01*
X99644850Y-78564528D01*
X99478254Y-78513992D01*
X99305000Y-78496928D01*
X98555000Y-78496928D01*
X98381746Y-78513992D01*
X98215150Y-78564528D01*
X98061614Y-78646595D01*
X97927038Y-78757038D01*
X97816595Y-78891614D01*
X97734528Y-79045150D01*
X97683992Y-79211746D01*
X97666928Y-79385000D01*
X97666928Y-80635000D01*
X97683992Y-80808254D01*
X97734528Y-80974850D01*
X97816595Y-81128386D01*
X97927038Y-81262962D01*
X98061614Y-81373405D01*
X98215150Y-81455472D01*
X98381746Y-81506008D01*
X98486527Y-81516328D01*
X98935000Y-81964803D01*
X98935001Y-82301647D01*
X98844482Y-82274188D01*
X98720000Y-82261928D01*
X98130000Y-82261928D01*
X98005518Y-82274188D01*
X97885820Y-82310498D01*
X97775506Y-82369463D01*
X97678815Y-82448815D01*
X97599463Y-82545506D01*
X97540498Y-82655820D01*
X97504188Y-82775518D01*
X97491928Y-82900000D01*
X88309802Y-82900000D01*
X87448804Y-82039003D01*
X87425001Y-82009999D01*
X87309276Y-81915026D01*
X87177247Y-81844454D01*
X87033986Y-81800997D01*
X86922333Y-81790000D01*
X86922322Y-81790000D01*
X86885000Y-81786324D01*
X86847678Y-81790000D01*
X84535000Y-81790000D01*
X84569003Y-81677906D01*
X84580000Y-81566253D01*
X84580000Y-81566244D01*
X84583676Y-81528921D01*
X84580000Y-81491598D01*
X84580000Y-79476173D01*
X84613709Y-79465947D01*
X84766164Y-79384458D01*
X84899792Y-79274792D01*
X85009458Y-79141164D01*
X85090947Y-78988709D01*
X85141128Y-78823285D01*
X85158072Y-78651250D01*
X85158072Y-78225000D01*
X108976928Y-78225000D01*
X108989188Y-78349482D01*
X109025498Y-78469180D01*
X109084463Y-78579494D01*
X109163815Y-78676185D01*
X109260506Y-78755537D01*
X109370820Y-78814502D01*
X109490518Y-78850812D01*
X109615000Y-78863072D01*
X110204250Y-78860000D01*
X110363000Y-78701250D01*
X110363000Y-77727000D01*
X110617000Y-77727000D01*
X110617000Y-78701250D01*
X110775750Y-78860000D01*
X111365000Y-78863072D01*
X111489482Y-78850812D01*
X111609180Y-78814502D01*
X111719494Y-78755537D01*
X111816185Y-78676185D01*
X111895537Y-78579494D01*
X111954502Y-78469180D01*
X111990812Y-78349482D01*
X112003072Y-78225000D01*
X114056928Y-78225000D01*
X114069188Y-78349482D01*
X114105498Y-78469180D01*
X114164463Y-78579494D01*
X114243815Y-78676185D01*
X114340506Y-78755537D01*
X114450820Y-78814502D01*
X114570518Y-78850812D01*
X114695000Y-78863072D01*
X115284250Y-78860000D01*
X115443000Y-78701250D01*
X115443000Y-77727000D01*
X115697000Y-77727000D01*
X115697000Y-78701250D01*
X115855750Y-78860000D01*
X116445000Y-78863072D01*
X116569482Y-78850812D01*
X116689180Y-78814502D01*
X116799494Y-78755537D01*
X116896185Y-78676185D01*
X116975537Y-78579494D01*
X117034502Y-78469180D01*
X117070812Y-78349482D01*
X117083072Y-78225000D01*
X117080000Y-77885750D01*
X116921250Y-77727000D01*
X115697000Y-77727000D01*
X115443000Y-77727000D01*
X114218750Y-77727000D01*
X114060000Y-77885750D01*
X114056928Y-78225000D01*
X112003072Y-78225000D01*
X112000000Y-77885750D01*
X111841250Y-77727000D01*
X110617000Y-77727000D01*
X110363000Y-77727000D01*
X109138750Y-77727000D01*
X108980000Y-77885750D01*
X108976928Y-78225000D01*
X85158072Y-78225000D01*
X85158072Y-78163750D01*
X85141128Y-77991715D01*
X85090947Y-77826291D01*
X85009458Y-77673836D01*
X84899792Y-77540208D01*
X84814244Y-77470000D01*
X84899792Y-77399792D01*
X85009458Y-77266164D01*
X85090947Y-77113709D01*
X85141128Y-76948285D01*
X85158072Y-76776250D01*
X85158072Y-76288750D01*
X85141128Y-76116715D01*
X85090947Y-75951291D01*
X85009458Y-75798836D01*
X84899792Y-75665208D01*
X84766164Y-75555542D01*
X84613709Y-75474053D01*
X84448285Y-75423872D01*
X84276250Y-75406928D01*
X83363750Y-75406928D01*
X83191715Y-75423872D01*
X83026291Y-75474053D01*
X82873836Y-75555542D01*
X82740208Y-75665208D01*
X82652155Y-75772500D01*
X79907845Y-75772500D01*
X79819792Y-75665208D01*
X79686164Y-75555542D01*
X79533709Y-75474053D01*
X79368285Y-75423872D01*
X79196250Y-75406928D01*
X78283750Y-75406928D01*
X78111715Y-75423872D01*
X77946291Y-75474053D01*
X77793836Y-75555542D01*
X77660208Y-75665208D01*
X77572155Y-75772500D01*
X74634823Y-75772500D01*
X74597500Y-75768824D01*
X74560177Y-75772500D01*
X74560167Y-75772500D01*
X74448514Y-75783497D01*
X74305253Y-75826954D01*
X74173223Y-75897526D01*
X74107711Y-75951291D01*
X74057499Y-75992499D01*
X74033701Y-76021497D01*
X69535199Y-80520000D01*
X67095402Y-80520000D01*
X66867874Y-80292472D01*
X66954400Y-80292472D01*
X67078882Y-80280212D01*
X67198580Y-80243902D01*
X67308894Y-80184937D01*
X67310000Y-80184029D01*
X67311106Y-80184937D01*
X67421420Y-80243902D01*
X67541118Y-80280212D01*
X67665600Y-80292472D01*
X68224400Y-80292472D01*
X68348882Y-80280212D01*
X68468580Y-80243902D01*
X68578894Y-80184937D01*
X68675585Y-80105585D01*
X68754937Y-80008894D01*
X68813902Y-79898580D01*
X68850212Y-79778882D01*
X68862472Y-79654400D01*
X68862472Y-77673200D01*
X68850212Y-77548718D01*
X68813902Y-77429020D01*
X68754937Y-77318706D01*
X68675585Y-77222015D01*
X68578894Y-77142663D01*
X68468580Y-77083698D01*
X68348882Y-77047388D01*
X68224400Y-77035128D01*
X68137874Y-77035128D01*
X68213002Y-76960000D01*
X68542678Y-76960000D01*
X68580000Y-76963676D01*
X68617322Y-76960000D01*
X68617333Y-76960000D01*
X68728986Y-76949003D01*
X68872247Y-76905546D01*
X69004276Y-76834974D01*
X69120001Y-76740001D01*
X69143804Y-76710997D01*
X70361003Y-75493799D01*
X70390001Y-75470001D01*
X70484974Y-75354276D01*
X70555546Y-75222247D01*
X70599003Y-75078986D01*
X70610000Y-74967333D01*
X70610000Y-74967324D01*
X70613676Y-74930001D01*
X70610000Y-74892678D01*
X70610000Y-74777168D01*
X89016840Y-74777168D01*
X89016840Y-75052352D01*
X89070526Y-75322250D01*
X89175835Y-75576487D01*
X89328720Y-75805295D01*
X89403385Y-75879960D01*
X89359200Y-75924145D01*
X89206315Y-76152953D01*
X89101006Y-76407190D01*
X89047320Y-76677088D01*
X89047320Y-76952272D01*
X89101006Y-77222170D01*
X89206315Y-77476407D01*
X89359200Y-77705215D01*
X89553785Y-77899800D01*
X89782593Y-78052685D01*
X90036830Y-78157994D01*
X90306728Y-78211680D01*
X90581912Y-78211680D01*
X90851810Y-78157994D01*
X91106047Y-78052685D01*
X91334855Y-77899800D01*
X91529440Y-77705215D01*
X91682325Y-77476407D01*
X91787634Y-77222170D01*
X91836799Y-76975000D01*
X108976928Y-76975000D01*
X108980000Y-77314250D01*
X109138750Y-77473000D01*
X110363000Y-77473000D01*
X110363000Y-76498750D01*
X110617000Y-76498750D01*
X110617000Y-77473000D01*
X111841250Y-77473000D01*
X112000000Y-77314250D01*
X112003072Y-76975000D01*
X114056928Y-76975000D01*
X114060000Y-77314250D01*
X114218750Y-77473000D01*
X115443000Y-77473000D01*
X115443000Y-76498750D01*
X115697000Y-76498750D01*
X115697000Y-77473000D01*
X116921250Y-77473000D01*
X117080000Y-77314250D01*
X117083072Y-76975000D01*
X117070812Y-76850518D01*
X117034502Y-76730820D01*
X116975537Y-76620506D01*
X116896185Y-76523815D01*
X116799494Y-76444463D01*
X116689180Y-76385498D01*
X116569482Y-76349188D01*
X116445000Y-76336928D01*
X115855750Y-76340000D01*
X115697000Y-76498750D01*
X115443000Y-76498750D01*
X115284250Y-76340000D01*
X114695000Y-76336928D01*
X114570518Y-76349188D01*
X114450820Y-76385498D01*
X114340506Y-76444463D01*
X114243815Y-76523815D01*
X114164463Y-76620506D01*
X114105498Y-76730820D01*
X114069188Y-76850518D01*
X114056928Y-76975000D01*
X112003072Y-76975000D01*
X111990812Y-76850518D01*
X111954502Y-76730820D01*
X111895537Y-76620506D01*
X111816185Y-76523815D01*
X111719494Y-76444463D01*
X111609180Y-76385498D01*
X111489482Y-76349188D01*
X111365000Y-76336928D01*
X110775750Y-76340000D01*
X110617000Y-76498750D01*
X110363000Y-76498750D01*
X110204250Y-76340000D01*
X109615000Y-76336928D01*
X109490518Y-76349188D01*
X109370820Y-76385498D01*
X109260506Y-76444463D01*
X109163815Y-76523815D01*
X109084463Y-76620506D01*
X109025498Y-76730820D01*
X108989188Y-76850518D01*
X108976928Y-76975000D01*
X91836799Y-76975000D01*
X91841320Y-76952272D01*
X91841320Y-76677088D01*
X91787634Y-76407190D01*
X91682325Y-76152953D01*
X91529440Y-75924145D01*
X91454775Y-75849480D01*
X91498960Y-75805295D01*
X91651845Y-75576487D01*
X91757154Y-75322250D01*
X91810840Y-75052352D01*
X91810840Y-74777168D01*
X91757154Y-74507270D01*
X91723077Y-74425000D01*
X108976928Y-74425000D01*
X108976928Y-75175000D01*
X108993992Y-75348254D01*
X109044528Y-75514850D01*
X109126595Y-75668386D01*
X109237038Y-75802962D01*
X109371614Y-75913405D01*
X109525150Y-75995472D01*
X109691746Y-76046008D01*
X109865000Y-76063072D01*
X111115000Y-76063072D01*
X111288254Y-76046008D01*
X111454850Y-75995472D01*
X111608386Y-75913405D01*
X111742962Y-75802962D01*
X111853405Y-75668386D01*
X111911339Y-75560000D01*
X114148661Y-75560000D01*
X114206595Y-75668386D01*
X114317038Y-75802962D01*
X114451614Y-75913405D01*
X114605150Y-75995472D01*
X114771746Y-76046008D01*
X114945000Y-76063072D01*
X116195000Y-76063072D01*
X116368254Y-76046008D01*
X116534850Y-75995472D01*
X116688386Y-75913405D01*
X116822962Y-75802962D01*
X116933405Y-75668386D01*
X117015472Y-75514850D01*
X117066008Y-75348254D01*
X117083072Y-75175000D01*
X117083072Y-74425000D01*
X117066008Y-74251746D01*
X117015472Y-74085150D01*
X116933405Y-73931614D01*
X116822962Y-73797038D01*
X116688386Y-73686595D01*
X116534850Y-73604528D01*
X116368254Y-73553992D01*
X116195000Y-73536928D01*
X114945000Y-73536928D01*
X114771746Y-73553992D01*
X114605150Y-73604528D01*
X114451614Y-73686595D01*
X114317038Y-73797038D01*
X114206595Y-73931614D01*
X114148661Y-74040000D01*
X111911339Y-74040000D01*
X111853405Y-73931614D01*
X111742962Y-73797038D01*
X111608386Y-73686595D01*
X111454850Y-73604528D01*
X111288254Y-73553992D01*
X111115000Y-73536928D01*
X109865000Y-73536928D01*
X109691746Y-73553992D01*
X109525150Y-73604528D01*
X109371614Y-73686595D01*
X109237038Y-73797038D01*
X109126595Y-73931614D01*
X109044528Y-74085150D01*
X108993992Y-74251746D01*
X108976928Y-74425000D01*
X91723077Y-74425000D01*
X91651845Y-74253033D01*
X91498960Y-74024225D01*
X91304375Y-73829640D01*
X91075567Y-73676755D01*
X90821330Y-73571446D01*
X90551432Y-73517760D01*
X90276248Y-73517760D01*
X90006350Y-73571446D01*
X89752113Y-73676755D01*
X89523305Y-73829640D01*
X89328720Y-74024225D01*
X89175835Y-74253033D01*
X89070526Y-74507270D01*
X89016840Y-74777168D01*
X70610000Y-74777168D01*
X70610000Y-73823520D01*
X70613676Y-73786197D01*
X70610000Y-73748874D01*
X70610000Y-73748865D01*
X70599003Y-73637212D01*
X70555546Y-73493951D01*
X70484974Y-73361922D01*
X70390001Y-73246197D01*
X70361004Y-73222400D01*
X67747606Y-70609003D01*
X67723803Y-70579999D01*
X67608078Y-70485026D01*
X67476049Y-70414454D01*
X67332788Y-70370997D01*
X67221135Y-70360000D01*
X67221124Y-70360000D01*
X67183802Y-70356324D01*
X67146480Y-70360000D01*
X63537322Y-70360000D01*
X63499999Y-70356324D01*
X63462676Y-70360000D01*
X63462667Y-70360000D01*
X63351014Y-70370997D01*
X63207753Y-70414454D01*
X63075724Y-70485026D01*
X62959999Y-70579999D01*
X62936201Y-70608997D01*
X61718998Y-71826201D01*
X61690000Y-71849999D01*
X61666202Y-71878997D01*
X61666201Y-71878998D01*
X61595026Y-71965724D01*
X61524454Y-72097754D01*
X61480998Y-72241015D01*
X61466324Y-72390000D01*
X59817000Y-72390000D01*
X59817000Y-40767000D01*
X131953000Y-40767000D01*
X131953000Y-100203000D01*
G37*
X131953000Y-100203000D02*
X59817000Y-100203000D01*
X59817000Y-72390000D01*
X61466324Y-72390000D01*
X61470001Y-72427332D01*
X61470000Y-82512678D01*
X61466324Y-82550000D01*
X61470000Y-82587322D01*
X61470000Y-82587332D01*
X61480997Y-82698985D01*
X61517955Y-82820820D01*
X61524454Y-82842246D01*
X61595026Y-82974276D01*
X61634871Y-83022826D01*
X61689999Y-83090001D01*
X61719003Y-83113804D01*
X64206205Y-85601008D01*
X64229999Y-85630001D01*
X64258992Y-85653795D01*
X64258996Y-85653799D01*
X64328609Y-85710928D01*
X64345724Y-85724974D01*
X64477753Y-85795546D01*
X64621014Y-85839003D01*
X64732667Y-85850000D01*
X64732676Y-85850000D01*
X64769999Y-85853676D01*
X64807322Y-85850000D01*
X65930224Y-85850000D01*
X65933992Y-85888254D01*
X65984528Y-86054850D01*
X66066595Y-86208386D01*
X66177038Y-86342962D01*
X66311614Y-86453405D01*
X66465150Y-86535472D01*
X66631746Y-86586008D01*
X66736527Y-86596328D01*
X73621201Y-93481003D01*
X73644999Y-93510001D01*
X73673997Y-93533799D01*
X73760723Y-93604974D01*
X73892753Y-93675546D01*
X74036014Y-93719003D01*
X74147667Y-93730000D01*
X74147677Y-93730000D01*
X74184999Y-93733676D01*
X74222322Y-93730000D01*
X78588661Y-93730000D01*
X78646595Y-93838386D01*
X78757038Y-93972962D01*
X78891614Y-94083405D01*
X79045150Y-94165472D01*
X79211746Y-94216008D01*
X79250001Y-94219776D01*
X79250000Y-97752677D01*
X79246324Y-97790000D01*
X79250000Y-97827322D01*
X79250000Y-97827332D01*
X79260997Y-97938985D01*
X79286756Y-98023902D01*
X79304454Y-98082246D01*
X79375026Y-98214276D01*
X79414871Y-98262826D01*
X79469999Y-98330001D01*
X79499003Y-98353804D01*
X80716201Y-99571003D01*
X80739999Y-99600001D01*
X80855724Y-99694974D01*
X80987753Y-99765546D01*
X81131014Y-99809003D01*
X81242667Y-99820000D01*
X81242676Y-99820000D01*
X81279999Y-99823676D01*
X81317322Y-99820000D01*
X85052678Y-99820000D01*
X85090000Y-99823676D01*
X85127322Y-99820000D01*
X85127333Y-99820000D01*
X85238986Y-99809003D01*
X85382247Y-99765546D01*
X85514276Y-99694974D01*
X85630001Y-99600001D01*
X85653804Y-99570997D01*
X87152330Y-98072472D01*
X87274400Y-98072472D01*
X87398882Y-98060212D01*
X87518580Y-98023902D01*
X87628894Y-97964937D01*
X87630000Y-97964029D01*
X87631106Y-97964937D01*
X87741420Y-98023902D01*
X87861118Y-98060212D01*
X87985600Y-98072472D01*
X88544400Y-98072472D01*
X88668882Y-98060212D01*
X88788580Y-98023902D01*
X88898894Y-97964937D01*
X88995585Y-97885585D01*
X89074937Y-97788894D01*
X89133902Y-97678580D01*
X89170212Y-97558882D01*
X89182472Y-97434400D01*
X89182472Y-95453200D01*
X89170212Y-95328718D01*
X89133902Y-95209020D01*
X89074937Y-95098706D01*
X88995585Y-95002015D01*
X88898894Y-94922663D01*
X88788580Y-94863698D01*
X88668882Y-94827388D01*
X88544400Y-94815128D01*
X87985600Y-94815128D01*
X87861118Y-94827388D01*
X87818189Y-94840410D01*
X88776003Y-93882597D01*
X88805001Y-93858799D01*
X88899974Y-93743074D01*
X88970546Y-93611045D01*
X89014003Y-93467784D01*
X89025000Y-93356131D01*
X89025000Y-93356121D01*
X89028676Y-93318798D01*
X89025000Y-93281475D01*
X89025000Y-92922143D01*
X89074937Y-92861294D01*
X89133902Y-92750980D01*
X89170212Y-92631282D01*
X89182472Y-92506800D01*
X89182472Y-92195000D01*
X92466928Y-92195000D01*
X92479188Y-92319482D01*
X92515498Y-92439180D01*
X92574463Y-92549494D01*
X92653815Y-92646185D01*
X92750506Y-92725537D01*
X92860820Y-92784502D01*
X92980518Y-92820812D01*
X93105000Y-92833072D01*
X93694250Y-92830000D01*
X93853000Y-92671250D01*
X93853000Y-91697000D01*
X94107000Y-91697000D01*
X94107000Y-92671250D01*
X94265750Y-92830000D01*
X94855000Y-92833072D01*
X94979482Y-92820812D01*
X95099180Y-92784502D01*
X95209494Y-92725537D01*
X95306185Y-92646185D01*
X95385537Y-92549494D01*
X95444502Y-92439180D01*
X95480812Y-92319482D01*
X95493072Y-92195000D01*
X95490000Y-91855750D01*
X95331250Y-91697000D01*
X94107000Y-91697000D01*
X93853000Y-91697000D01*
X92628750Y-91697000D01*
X92470000Y-91855750D01*
X92466928Y-92195000D01*
X89182472Y-92195000D01*
X89182472Y-90945000D01*
X92466928Y-90945000D01*
X92470000Y-91284250D01*
X92628750Y-91443000D01*
X93853000Y-91443000D01*
X93853000Y-90468750D01*
X94107000Y-90468750D01*
X94107000Y-91443000D01*
X95331250Y-91443000D01*
X95490000Y-91284250D01*
X95493072Y-90945000D01*
X95480812Y-90820518D01*
X95444502Y-90700820D01*
X95385537Y-90590506D01*
X95306185Y-90493815D01*
X95209494Y-90414463D01*
X95099180Y-90355498D01*
X94979482Y-90319188D01*
X94855000Y-90306928D01*
X94265750Y-90310000D01*
X94107000Y-90468750D01*
X93853000Y-90468750D01*
X93694250Y-90310000D01*
X93105000Y-90306928D01*
X92980518Y-90319188D01*
X92860820Y-90355498D01*
X92750506Y-90414463D01*
X92653815Y-90493815D01*
X92574463Y-90590506D01*
X92515498Y-90700820D01*
X92479188Y-90820518D01*
X92466928Y-90945000D01*
X89182472Y-90945000D01*
X89182472Y-90525600D01*
X89174163Y-90441238D01*
X90085402Y-89530000D01*
X92558661Y-89530000D01*
X92616595Y-89638386D01*
X92727038Y-89772962D01*
X92861614Y-89883405D01*
X93015150Y-89965472D01*
X93181746Y-90016008D01*
X93355000Y-90033072D01*
X94605000Y-90033072D01*
X94778254Y-90016008D01*
X94944850Y-89965472D01*
X95098386Y-89883405D01*
X95232962Y-89772962D01*
X95343405Y-89638386D01*
X95366595Y-89595000D01*
X97491928Y-89595000D01*
X97491928Y-89820000D01*
X97504188Y-89944482D01*
X97540498Y-90064180D01*
X97599463Y-90174494D01*
X97678815Y-90271185D01*
X97775506Y-90350537D01*
X97885820Y-90409502D01*
X98005518Y-90445812D01*
X98130000Y-90458072D01*
X98720000Y-90458072D01*
X98844482Y-90445812D01*
X98964180Y-90409502D01*
X99060000Y-90358284D01*
X99155820Y-90409502D01*
X99275518Y-90445812D01*
X99400000Y-90458072D01*
X99990000Y-90458072D01*
X100114482Y-90445812D01*
X100234180Y-90409502D01*
X100330000Y-90358284D01*
X100425820Y-90409502D01*
X100545518Y-90445812D01*
X100670000Y-90458072D01*
X101260000Y-90458072D01*
X101384482Y-90445812D01*
X101504180Y-90409502D01*
X101600000Y-90358284D01*
X101695820Y-90409502D01*
X101815518Y-90445812D01*
X101940000Y-90458072D01*
X102530000Y-90458072D01*
X102654482Y-90445812D01*
X102774180Y-90409502D01*
X102884494Y-90350537D01*
X102981185Y-90271185D01*
X103060537Y-90174494D01*
X103119502Y-90064180D01*
X103155812Y-89944482D01*
X103168072Y-89820000D01*
X103168072Y-87850000D01*
X103158365Y-87751437D01*
X103529802Y-87380000D01*
X107163661Y-87380000D01*
X107221595Y-87488386D01*
X107332038Y-87622962D01*
X107466614Y-87733405D01*
X107620150Y-87815472D01*
X107786746Y-87866008D01*
X107960000Y-87883072D01*
X109210000Y-87883072D01*
X109383254Y-87866008D01*
X109549850Y-87815472D01*
X109703386Y-87733405D01*
X109837962Y-87622962D01*
X109948405Y-87488386D01*
X110030472Y-87334850D01*
X110056211Y-87250000D01*
X111608661Y-87250000D01*
X111666595Y-87358386D01*
X111777038Y-87492962D01*
X111911614Y-87603405D01*
X112065150Y-87685472D01*
X112231746Y-87736008D01*
X112270000Y-87739776D01*
X112270001Y-88698789D01*
X112185150Y-88724528D01*
X112031614Y-88806595D01*
X111897038Y-88917038D01*
X111786595Y-89051614D01*
X111704528Y-89205150D01*
X111653992Y-89371746D01*
X111636928Y-89545000D01*
X111636928Y-90795000D01*
X111653992Y-90968254D01*
X111704528Y-91134850D01*
X111786595Y-91288386D01*
X111897038Y-91422962D01*
X112031614Y-91533405D01*
X112185150Y-91615472D01*
X112351746Y-91666008D01*
X112525000Y-91683072D01*
X113275000Y-91683072D01*
X113448254Y-91666008D01*
X113614850Y-91615472D01*
X113768386Y-91533405D01*
X113902962Y-91422962D01*
X114013405Y-91288386D01*
X114095472Y-91134850D01*
X114122727Y-91045000D01*
X114436928Y-91045000D01*
X114449188Y-91169482D01*
X114485498Y-91289180D01*
X114544463Y-91399494D01*
X114623815Y-91496185D01*
X114720506Y-91575537D01*
X114830820Y-91634502D01*
X114950518Y-91670812D01*
X115075000Y-91683072D01*
X115414250Y-91680000D01*
X115573000Y-91521250D01*
X115573000Y-90297000D01*
X115827000Y-90297000D01*
X115827000Y-91521250D01*
X115985750Y-91680000D01*
X116325000Y-91683072D01*
X116449482Y-91670812D01*
X116569180Y-91634502D01*
X116679494Y-91575537D01*
X116776185Y-91496185D01*
X116855537Y-91399494D01*
X116914502Y-91289180D01*
X116950812Y-91169482D01*
X116963072Y-91045000D01*
X116960000Y-90455750D01*
X116801250Y-90297000D01*
X115827000Y-90297000D01*
X115573000Y-90297000D01*
X114598750Y-90297000D01*
X114440000Y-90455750D01*
X114436928Y-91045000D01*
X114122727Y-91045000D01*
X114146008Y-90968254D01*
X114163072Y-90795000D01*
X114163072Y-89545000D01*
X114146008Y-89371746D01*
X114122728Y-89295000D01*
X114436928Y-89295000D01*
X114440000Y-89884250D01*
X114598750Y-90043000D01*
X115573000Y-90043000D01*
X115573000Y-88818750D01*
X115827000Y-88818750D01*
X115827000Y-90043000D01*
X116801250Y-90043000D01*
X116960000Y-89884250D01*
X116963072Y-89295000D01*
X116950812Y-89170518D01*
X116914502Y-89050820D01*
X116855537Y-88940506D01*
X116776185Y-88843815D01*
X116679494Y-88764463D01*
X116569180Y-88705498D01*
X116449482Y-88669188D01*
X116325000Y-88656928D01*
X115985750Y-88660000D01*
X115827000Y-88818750D01*
X115573000Y-88818750D01*
X115414250Y-88660000D01*
X115075000Y-88656928D01*
X114950518Y-88669188D01*
X114830820Y-88705498D01*
X114720506Y-88764463D01*
X114623815Y-88843815D01*
X114544463Y-88940506D01*
X114485498Y-89050820D01*
X114449188Y-89170518D01*
X114436928Y-89295000D01*
X114122728Y-89295000D01*
X114095472Y-89205150D01*
X114013405Y-89051614D01*
X113902962Y-88917038D01*
X113790000Y-88824333D01*
X113790000Y-87739776D01*
X113828254Y-87736008D01*
X113994850Y-87685472D01*
X114148386Y-87603405D01*
X114282962Y-87492962D01*
X114393405Y-87358386D01*
X114451339Y-87250000D01*
X115418661Y-87250000D01*
X115476595Y-87358386D01*
X115587038Y-87492962D01*
X115721614Y-87603405D01*
X115875150Y-87685472D01*
X116041746Y-87736008D01*
X116215000Y-87753072D01*
X117465000Y-87753072D01*
X117638254Y-87736008D01*
X117804850Y-87685472D01*
X117958386Y-87603405D01*
X118092962Y-87492962D01*
X118203405Y-87358386D01*
X118285472Y-87204850D01*
X118286615Y-87201082D01*
X120625601Y-87121274D01*
X120650000Y-87123677D01*
X120674399Y-87121274D01*
X123013385Y-87201082D01*
X123014528Y-87204850D01*
X123096595Y-87358386D01*
X123207038Y-87492962D01*
X123341614Y-87603405D01*
X123495150Y-87685472D01*
X123661746Y-87736008D01*
X123835000Y-87753072D01*
X125085000Y-87753072D01*
X125258254Y-87736008D01*
X125424850Y-87685472D01*
X125578386Y-87603405D01*
X125712962Y-87492962D01*
X125823405Y-87358386D01*
X125881339Y-87250000D01*
X128118661Y-87250000D01*
X128176595Y-87358386D01*
X128287038Y-87492962D01*
X128421614Y-87603405D01*
X128575150Y-87685472D01*
X128741746Y-87736008D01*
X128915000Y-87753072D01*
X130165000Y-87753072D01*
X130338254Y-87736008D01*
X130504850Y-87685472D01*
X130658386Y-87603405D01*
X130792962Y-87492962D01*
X130903405Y-87358386D01*
X130985472Y-87204850D01*
X131036008Y-87038254D01*
X131053072Y-86865000D01*
X131053072Y-86115000D01*
X131036008Y-85941746D01*
X130985472Y-85775150D01*
X130903405Y-85621614D01*
X130792962Y-85487038D01*
X130658386Y-85376595D01*
X130504850Y-85294528D01*
X130338254Y-85243992D01*
X130165000Y-85226928D01*
X128915000Y-85226928D01*
X128741746Y-85243992D01*
X128575150Y-85294528D01*
X128421614Y-85376595D01*
X128287038Y-85487038D01*
X128176595Y-85621614D01*
X128118661Y-85730000D01*
X125881339Y-85730000D01*
X125823405Y-85621614D01*
X125712962Y-85487038D01*
X125578386Y-85376595D01*
X125424850Y-85294528D01*
X125258254Y-85243992D01*
X125085000Y-85226928D01*
X123835000Y-85226928D01*
X123661746Y-85243992D01*
X123495150Y-85294528D01*
X123341614Y-85376595D01*
X123207038Y-85487038D01*
X123096595Y-85621614D01*
X123064351Y-85681938D01*
X121665591Y-85634211D01*
X122171003Y-85128799D01*
X122200001Y-85105001D01*
X122294974Y-84989276D01*
X122365546Y-84857247D01*
X122409003Y-84713986D01*
X122420000Y-84602333D01*
X122420000Y-84602325D01*
X122423676Y-84565000D01*
X122420000Y-84527675D01*
X122420000Y-84315000D01*
X122946928Y-84315000D01*
X122959188Y-84439482D01*
X122995498Y-84559180D01*
X123054463Y-84669494D01*
X123133815Y-84766185D01*
X123230506Y-84845537D01*
X123340820Y-84904502D01*
X123460518Y-84940812D01*
X123585000Y-84953072D01*
X124174250Y-84950000D01*
X124333000Y-84791250D01*
X124333000Y-83817000D01*
X124587000Y-83817000D01*
X124587000Y-84791250D01*
X124745750Y-84950000D01*
X125335000Y-84953072D01*
X125459482Y-84940812D01*
X125579180Y-84904502D01*
X125689494Y-84845537D01*
X125786185Y-84766185D01*
X125865537Y-84669494D01*
X125924502Y-84559180D01*
X125960812Y-84439482D01*
X125973072Y-84315000D01*
X128026928Y-84315000D01*
X128039188Y-84439482D01*
X128075498Y-84559180D01*
X128134463Y-84669494D01*
X128213815Y-84766185D01*
X128310506Y-84845537D01*
X128420820Y-84904502D01*
X128540518Y-84940812D01*
X128665000Y-84953072D01*
X129254250Y-84950000D01*
X129413000Y-84791250D01*
X129413000Y-83817000D01*
X129667000Y-83817000D01*
X129667000Y-84791250D01*
X129825750Y-84950000D01*
X130415000Y-84953072D01*
X130539482Y-84940812D01*
X130659180Y-84904502D01*
X130769494Y-84845537D01*
X130866185Y-84766185D01*
X130945537Y-84669494D01*
X131004502Y-84559180D01*
X131040812Y-84439482D01*
X131053072Y-84315000D01*
X131050000Y-83975750D01*
X130891250Y-83817000D01*
X129667000Y-83817000D01*
X129413000Y-83817000D01*
X128188750Y-83817000D01*
X128030000Y-83975750D01*
X128026928Y-84315000D01*
X125973072Y-84315000D01*
X125970000Y-83975750D01*
X125811250Y-83817000D01*
X124587000Y-83817000D01*
X124333000Y-83817000D01*
X123108750Y-83817000D01*
X122950000Y-83975750D01*
X122946928Y-84315000D01*
X122420000Y-84315000D01*
X122420000Y-83065000D01*
X122946928Y-83065000D01*
X122950000Y-83404250D01*
X123108750Y-83563000D01*
X124333000Y-83563000D01*
X124333000Y-82588750D01*
X124587000Y-82588750D01*
X124587000Y-83563000D01*
X125811250Y-83563000D01*
X125970000Y-83404250D01*
X125973072Y-83065000D01*
X128026928Y-83065000D01*
X128030000Y-83404250D01*
X128188750Y-83563000D01*
X129413000Y-83563000D01*
X129413000Y-82588750D01*
X129667000Y-82588750D01*
X129667000Y-83563000D01*
X130891250Y-83563000D01*
X131050000Y-83404250D01*
X131053072Y-83065000D01*
X131040812Y-82940518D01*
X131004502Y-82820820D01*
X130945537Y-82710506D01*
X130866185Y-82613815D01*
X130769494Y-82534463D01*
X130659180Y-82475498D01*
X130539482Y-82439188D01*
X130415000Y-82426928D01*
X129825750Y-82430000D01*
X129667000Y-82588750D01*
X129413000Y-82588750D01*
X129254250Y-82430000D01*
X128665000Y-82426928D01*
X128540518Y-82439188D01*
X128420820Y-82475498D01*
X128310506Y-82534463D01*
X128213815Y-82613815D01*
X128134463Y-82710506D01*
X128075498Y-82820820D01*
X128039188Y-82940518D01*
X128026928Y-83065000D01*
X125973072Y-83065000D01*
X125960812Y-82940518D01*
X125924502Y-82820820D01*
X125865537Y-82710506D01*
X125786185Y-82613815D01*
X125689494Y-82534463D01*
X125579180Y-82475498D01*
X125459482Y-82439188D01*
X125335000Y-82426928D01*
X124745750Y-82430000D01*
X124587000Y-82588750D01*
X124333000Y-82588750D01*
X124174250Y-82430000D01*
X123585000Y-82426928D01*
X123460518Y-82439188D01*
X123340820Y-82475498D01*
X123230506Y-82534463D01*
X123133815Y-82613815D01*
X123054463Y-82710506D01*
X122995498Y-82820820D01*
X122959188Y-82940518D01*
X122946928Y-83065000D01*
X122420000Y-83065000D01*
X122420000Y-81431339D01*
X122528386Y-81373405D01*
X122662962Y-81262962D01*
X122773405Y-81128386D01*
X122855472Y-80974850D01*
X122882727Y-80885000D01*
X123196928Y-80885000D01*
X123209188Y-81009482D01*
X123245498Y-81129180D01*
X123304463Y-81239494D01*
X123383815Y-81336185D01*
X123480506Y-81415537D01*
X123590820Y-81474502D01*
X123710518Y-81510812D01*
X123835000Y-81523072D01*
X124174250Y-81520000D01*
X124333000Y-81361250D01*
X124333000Y-80137000D01*
X124587000Y-80137000D01*
X124587000Y-81361250D01*
X124745750Y-81520000D01*
X125085000Y-81523072D01*
X125209482Y-81510812D01*
X125329180Y-81474502D01*
X125439494Y-81415537D01*
X125536185Y-81336185D01*
X125615537Y-81239494D01*
X125674502Y-81129180D01*
X125710812Y-81009482D01*
X125723072Y-80885000D01*
X125720000Y-80295750D01*
X125561250Y-80137000D01*
X124587000Y-80137000D01*
X124333000Y-80137000D01*
X123358750Y-80137000D01*
X123200000Y-80295750D01*
X123196928Y-80885000D01*
X122882727Y-80885000D01*
X122906008Y-80808254D01*
X122923072Y-80635000D01*
X122923072Y-79385000D01*
X122906008Y-79211746D01*
X122882728Y-79135000D01*
X123196928Y-79135000D01*
X123200000Y-79724250D01*
X123358750Y-79883000D01*
X124333000Y-79883000D01*
X124333000Y-78658750D01*
X124587000Y-78658750D01*
X124587000Y-79883000D01*
X125561250Y-79883000D01*
X125720000Y-79724250D01*
X125723072Y-79135000D01*
X125710812Y-79010518D01*
X125674502Y-78890820D01*
X125615537Y-78780506D01*
X125536185Y-78683815D01*
X125439494Y-78604463D01*
X125329180Y-78545498D01*
X125209482Y-78509188D01*
X125085000Y-78496928D01*
X124745750Y-78500000D01*
X124587000Y-78658750D01*
X124333000Y-78658750D01*
X124174250Y-78500000D01*
X123835000Y-78496928D01*
X123710518Y-78509188D01*
X123590820Y-78545498D01*
X123480506Y-78604463D01*
X123383815Y-78683815D01*
X123304463Y-78780506D01*
X123245498Y-78890820D01*
X123209188Y-79010518D01*
X123196928Y-79135000D01*
X122882728Y-79135000D01*
X122855472Y-79045150D01*
X122773405Y-78891614D01*
X122662962Y-78757038D01*
X122528386Y-78646595D01*
X122420000Y-78588661D01*
X122420000Y-78044801D01*
X123701003Y-76763799D01*
X123730001Y-76740001D01*
X123824974Y-76624276D01*
X123895546Y-76492247D01*
X123939003Y-76348986D01*
X123950000Y-76237333D01*
X123950000Y-76237325D01*
X123953676Y-76200000D01*
X123950000Y-76162675D01*
X123950000Y-63814801D01*
X126044803Y-61720000D01*
X126781928Y-61720000D01*
X126781928Y-61810000D01*
X126794188Y-61934482D01*
X126830498Y-62054180D01*
X126889463Y-62164494D01*
X126968815Y-62261185D01*
X127065506Y-62340537D01*
X127175820Y-62399502D01*
X127295518Y-62435812D01*
X127420000Y-62448072D01*
X129120000Y-62448072D01*
X129244482Y-62435812D01*
X129364180Y-62399502D01*
X129474494Y-62340537D01*
X129571185Y-62261185D01*
X129650537Y-62164494D01*
X129709502Y-62054180D01*
X129745812Y-61934482D01*
X129758072Y-61810000D01*
X129758072Y-60110000D01*
X129745812Y-59985518D01*
X129709502Y-59865820D01*
X129650537Y-59755506D01*
X129571185Y-59658815D01*
X129474494Y-59579463D01*
X129364180Y-59520498D01*
X129244482Y-59484188D01*
X129120000Y-59471928D01*
X127420000Y-59471928D01*
X127295518Y-59484188D01*
X127175820Y-59520498D01*
X127065506Y-59579463D01*
X126968815Y-59658815D01*
X126889463Y-59755506D01*
X126830498Y-59865820D01*
X126794188Y-59985518D01*
X126781928Y-60110000D01*
X126781928Y-60200000D01*
X125767322Y-60200000D01*
X125729999Y-60196324D01*
X125692676Y-60200000D01*
X125692667Y-60200000D01*
X125581014Y-60210997D01*
X125437753Y-60254454D01*
X125305724Y-60325026D01*
X125305722Y-60325027D01*
X125305723Y-60325027D01*
X125218996Y-60396201D01*
X125218992Y-60396205D01*
X125189999Y-60419999D01*
X125166205Y-60448992D01*
X123190000Y-62425198D01*
X122202472Y-61437671D01*
X122202472Y-61315600D01*
X122190212Y-61191118D01*
X122153902Y-61071420D01*
X122094937Y-60961106D01*
X122094029Y-60960000D01*
X122094937Y-60958894D01*
X122153902Y-60848580D01*
X122190212Y-60728882D01*
X122202472Y-60604400D01*
X122202472Y-60045600D01*
X122190212Y-59921118D01*
X122153902Y-59801420D01*
X122094937Y-59691106D01*
X122094029Y-59690000D01*
X122094937Y-59688894D01*
X122153902Y-59578580D01*
X122190212Y-59458882D01*
X122202472Y-59334400D01*
X122202472Y-58775600D01*
X122190212Y-58651118D01*
X122153902Y-58531420D01*
X122094937Y-58421106D01*
X122015585Y-58324415D01*
X121918894Y-58245063D01*
X121808580Y-58186098D01*
X121688882Y-58149788D01*
X121564400Y-58137528D01*
X119583200Y-58137528D01*
X119458718Y-58149788D01*
X119339020Y-58186098D01*
X119228706Y-58245063D01*
X119132015Y-58324415D01*
X119052663Y-58421106D01*
X118993698Y-58531420D01*
X118957388Y-58651118D01*
X118945128Y-58775600D01*
X118945128Y-58862127D01*
X118870000Y-58786999D01*
X118870000Y-56194801D01*
X124046730Y-51018072D01*
X125310000Y-51018072D01*
X125434482Y-51005812D01*
X125554180Y-50969502D01*
X125664494Y-50910537D01*
X125761185Y-50831185D01*
X125840537Y-50734494D01*
X125899502Y-50624180D01*
X125935812Y-50504482D01*
X125948072Y-50380000D01*
X125948072Y-48680000D01*
X125935812Y-48555518D01*
X125899502Y-48435820D01*
X125840537Y-48325506D01*
X125761185Y-48228815D01*
X125664494Y-48149463D01*
X125554180Y-48090498D01*
X125434482Y-48054188D01*
X125310000Y-48041928D01*
X123610000Y-48041928D01*
X123485518Y-48054188D01*
X123365820Y-48090498D01*
X123255506Y-48149463D01*
X123158815Y-48228815D01*
X123079463Y-48325506D01*
X123020498Y-48435820D01*
X122984188Y-48555518D01*
X122971928Y-48680000D01*
X122971928Y-49943270D01*
X118110000Y-54805199D01*
X115166304Y-51861503D01*
X115142501Y-51832499D01*
X115026776Y-51737526D01*
X114894747Y-51666954D01*
X114864599Y-51657809D01*
X114854458Y-51638836D01*
X114744792Y-51505208D01*
X114659244Y-51435000D01*
X114744792Y-51364792D01*
X114854458Y-51231164D01*
X114935947Y-51078709D01*
X114986128Y-50913285D01*
X115003072Y-50741250D01*
X115003072Y-50253750D01*
X114986128Y-50081715D01*
X114935947Y-49916291D01*
X114854458Y-49763836D01*
X114744792Y-49630208D01*
X114611164Y-49520542D01*
X114458709Y-49439053D01*
X114293285Y-49388872D01*
X114121250Y-49371928D01*
X113208750Y-49371928D01*
X113036715Y-49388872D01*
X112871291Y-49439053D01*
X112718836Y-49520542D01*
X112585208Y-49630208D01*
X112497155Y-49737500D01*
X111022845Y-49737500D01*
X110934792Y-49630208D01*
X110801164Y-49520542D01*
X110648709Y-49439053D01*
X110483285Y-49388872D01*
X110311250Y-49371928D01*
X109764209Y-49371928D01*
X109684746Y-49329454D01*
X109541485Y-49285998D01*
X109392500Y-49271324D01*
X109243515Y-49285998D01*
X109100254Y-49329454D01*
X108968224Y-49400026D01*
X108852499Y-49494999D01*
X108757526Y-49610724D01*
X108694632Y-49728390D01*
X108687155Y-49737500D01*
X106923072Y-49737500D01*
X106923072Y-49025000D01*
X106906008Y-48851746D01*
X106855472Y-48685150D01*
X106773405Y-48531614D01*
X106662962Y-48397038D01*
X106528386Y-48286595D01*
X106374850Y-48204528D01*
X106208254Y-48153992D01*
X106035000Y-48136928D01*
X104785000Y-48136928D01*
X104611746Y-48153992D01*
X104445150Y-48204528D01*
X104291614Y-48286595D01*
X104157038Y-48397038D01*
X104046595Y-48531614D01*
X103964528Y-48685150D01*
X103913992Y-48851746D01*
X103903672Y-48956525D01*
X97475199Y-55385000D01*
X94689822Y-55385000D01*
X94652499Y-55381324D01*
X94615176Y-55385000D01*
X94615167Y-55385000D01*
X94503514Y-55395997D01*
X94360253Y-55439454D01*
X94228223Y-55510026D01*
X94144583Y-55578668D01*
X94112499Y-55604999D01*
X94088701Y-55633997D01*
X91369021Y-58353678D01*
X91351250Y-58351928D01*
X90863750Y-58351928D01*
X90691715Y-58368872D01*
X90526291Y-58419053D01*
X90373836Y-58500542D01*
X90240208Y-58610208D01*
X90170000Y-58695756D01*
X90099792Y-58610208D01*
X89966164Y-58500542D01*
X89813709Y-58419053D01*
X89648285Y-58368872D01*
X89476250Y-58351928D01*
X88988750Y-58351928D01*
X88816715Y-58368872D01*
X88651291Y-58419053D01*
X88498836Y-58500542D01*
X88365208Y-58610208D01*
X88255542Y-58743836D01*
X88174053Y-58896291D01*
X88123872Y-59061715D01*
X88106928Y-59233750D01*
X88106928Y-59740769D01*
X82468099Y-65379600D01*
X82453048Y-65379600D01*
X82183150Y-65433286D01*
X81928913Y-65538595D01*
X81700105Y-65691480D01*
X81544160Y-65847425D01*
X81357735Y-65661000D01*
X81128927Y-65508115D01*
X80874690Y-65402806D01*
X80604792Y-65349120D01*
X80329608Y-65349120D01*
X80059710Y-65402806D01*
X79805473Y-65508115D01*
X79576665Y-65661000D01*
X79382080Y-65855585D01*
X79229195Y-66084393D01*
X79123886Y-66338630D01*
X79070200Y-66608528D01*
X79070200Y-66883712D01*
X79123886Y-67153610D01*
X79229195Y-67407847D01*
X79382080Y-67636655D01*
X79576665Y-67831240D01*
X79805473Y-67984125D01*
X80059710Y-68089434D01*
X80329608Y-68143120D01*
X80604792Y-68143120D01*
X80874690Y-68089434D01*
X81128927Y-67984125D01*
X81357735Y-67831240D01*
X81513680Y-67675295D01*
X81700105Y-67861720D01*
X81928913Y-68014605D01*
X82183150Y-68119914D01*
X82453048Y-68173600D01*
X82728232Y-68173600D01*
X82998130Y-68119914D01*
X83252367Y-68014605D01*
X83481175Y-67861720D01*
X83675760Y-67667135D01*
X83828645Y-67438327D01*
X83933954Y-67184090D01*
X83987640Y-66914192D01*
X83987640Y-66639008D01*
X83933954Y-66369110D01*
X83844398Y-66152903D01*
X88970981Y-61026322D01*
X88988750Y-61028072D01*
X89476250Y-61028072D01*
X89648285Y-61011128D01*
X89813709Y-60960947D01*
X89966164Y-60879458D01*
X90099792Y-60769792D01*
X90170000Y-60684244D01*
X90240208Y-60769792D01*
X90373836Y-60879458D01*
X90526291Y-60960947D01*
X90691715Y-61011128D01*
X90863750Y-61028072D01*
X91351250Y-61028072D01*
X91523285Y-61011128D01*
X91688709Y-60960947D01*
X91841164Y-60879458D01*
X91974792Y-60769792D01*
X92084458Y-60636164D01*
X92165947Y-60483709D01*
X92216128Y-60318285D01*
X92233072Y-60146250D01*
X92233072Y-59639229D01*
X94967302Y-56905000D01*
X97030001Y-56905000D01*
X97030000Y-64732678D01*
X97026324Y-64770000D01*
X97030000Y-64807322D01*
X97030000Y-64807332D01*
X97040997Y-64918985D01*
X97084454Y-65062246D01*
X97155026Y-65194276D01*
X97170908Y-65213628D01*
X97249999Y-65310001D01*
X97279003Y-65333804D01*
X101036201Y-69091003D01*
X101059999Y-69120001D01*
X101175724Y-69214974D01*
X101307753Y-69285546D01*
X101451014Y-69329003D01*
X101562667Y-69340000D01*
X101562675Y-69340000D01*
X101600000Y-69343676D01*
X101637325Y-69340000D01*
X107912678Y-69340000D01*
X107950000Y-69343676D01*
X107987322Y-69340000D01*
X107987333Y-69340000D01*
X108098986Y-69329003D01*
X108242247Y-69285546D01*
X108374276Y-69214974D01*
X108490001Y-69120001D01*
X108513804Y-69090997D01*
X114118391Y-63486411D01*
X114125063Y-63498894D01*
X114204415Y-63595585D01*
X114301106Y-63674937D01*
X114411420Y-63733902D01*
X114531118Y-63770212D01*
X114655600Y-63782472D01*
X116636800Y-63782472D01*
X116761282Y-63770212D01*
X116880980Y-63733902D01*
X116991294Y-63674937D01*
X117087985Y-63595585D01*
X117167337Y-63498894D01*
X117226302Y-63388580D01*
X117262612Y-63268882D01*
X117274872Y-63144400D01*
X117274872Y-62585600D01*
X117262612Y-62461118D01*
X117226302Y-62341420D01*
X117167337Y-62231106D01*
X117166429Y-62230000D01*
X117167337Y-62228894D01*
X117226302Y-62118580D01*
X117262612Y-61998882D01*
X117274872Y-61874400D01*
X117274872Y-61315600D01*
X117262612Y-61191118D01*
X117226302Y-61071420D01*
X117167337Y-60961106D01*
X117166429Y-60960000D01*
X117167337Y-60958894D01*
X117226302Y-60848580D01*
X117262612Y-60728882D01*
X117274238Y-60610839D01*
X118769400Y-62106002D01*
X118793199Y-62135001D01*
X118908924Y-62229974D01*
X119021192Y-62289983D01*
X118993698Y-62341420D01*
X118957388Y-62461118D01*
X118945128Y-62585600D01*
X118945128Y-63144400D01*
X118957388Y-63268882D01*
X118993698Y-63388580D01*
X119052663Y-63498894D01*
X119132015Y-63595585D01*
X119228706Y-63674937D01*
X119339020Y-63733902D01*
X119458718Y-63770212D01*
X119583200Y-63782472D01*
X121564400Y-63782472D01*
X121688882Y-63770212D01*
X121808580Y-63733902D01*
X121918894Y-63674937D01*
X122015585Y-63595585D01*
X122094937Y-63498894D01*
X122101609Y-63486411D01*
X122430000Y-63814802D01*
X122430001Y-75885197D01*
X121149003Y-77166196D01*
X121119999Y-77189999D01*
X121064871Y-77257174D01*
X121025026Y-77305724D01*
X120982188Y-77385868D01*
X120954454Y-77437754D01*
X120910997Y-77581015D01*
X120900000Y-77692668D01*
X120900000Y-77692678D01*
X120896324Y-77730000D01*
X120900000Y-77767323D01*
X120900000Y-78588661D01*
X120791614Y-78646595D01*
X120657038Y-78757038D01*
X120546595Y-78891614D01*
X120464528Y-79045150D01*
X120413992Y-79211746D01*
X120396928Y-79385000D01*
X120396928Y-80635000D01*
X120413992Y-80808254D01*
X120464528Y-80974850D01*
X120546595Y-81128386D01*
X120657038Y-81262962D01*
X120791614Y-81373405D01*
X120900000Y-81431339D01*
X120900001Y-84250197D01*
X120139002Y-85011196D01*
X120109999Y-85034999D01*
X120073068Y-85080000D01*
X120015026Y-85150724D01*
X119956908Y-85259454D01*
X119944454Y-85282754D01*
X119900997Y-85426015D01*
X119890000Y-85537668D01*
X119890000Y-85537678D01*
X119886324Y-85575000D01*
X119890000Y-85612322D01*
X119890000Y-85625490D01*
X118235649Y-85681938D01*
X118203405Y-85621614D01*
X118092962Y-85487038D01*
X117958386Y-85376595D01*
X117804850Y-85294528D01*
X117638254Y-85243992D01*
X117465000Y-85226928D01*
X116215000Y-85226928D01*
X116041746Y-85243992D01*
X115875150Y-85294528D01*
X115721614Y-85376595D01*
X115587038Y-85487038D01*
X115476595Y-85621614D01*
X115418661Y-85730000D01*
X114451339Y-85730000D01*
X114393405Y-85621614D01*
X114282962Y-85487038D01*
X114148386Y-85376595D01*
X113994850Y-85294528D01*
X113828254Y-85243992D01*
X113655000Y-85226928D01*
X112405000Y-85226928D01*
X112231746Y-85243992D01*
X112065150Y-85294528D01*
X111911614Y-85376595D01*
X111777038Y-85487038D01*
X111666595Y-85621614D01*
X111608661Y-85730000D01*
X109930667Y-85730000D01*
X109837962Y-85617038D01*
X109703386Y-85506595D01*
X109549850Y-85424528D01*
X109383254Y-85373992D01*
X109210000Y-85356928D01*
X107960000Y-85356928D01*
X107786746Y-85373992D01*
X107620150Y-85424528D01*
X107466614Y-85506595D01*
X107332038Y-85617038D01*
X107221595Y-85751614D01*
X107163661Y-85860000D01*
X103252322Y-85860000D01*
X103214999Y-85856324D01*
X103177676Y-85860000D01*
X103177667Y-85860000D01*
X103066014Y-85870997D01*
X102922753Y-85914454D01*
X102790724Y-85985026D01*
X102674999Y-86079999D01*
X102651201Y-86108997D01*
X101724002Y-87036196D01*
X101694999Y-87059999D01*
X101654783Y-87109003D01*
X101600026Y-87175724D01*
X101557666Y-87254974D01*
X101543484Y-87281507D01*
X101504180Y-87260498D01*
X101384482Y-87224188D01*
X101260000Y-87211928D01*
X100670000Y-87211928D01*
X100545518Y-87224188D01*
X100425820Y-87260498D01*
X100330000Y-87311716D01*
X100234180Y-87260498D01*
X100114482Y-87224188D01*
X99990000Y-87211928D01*
X99400000Y-87211928D01*
X99275518Y-87224188D01*
X99155820Y-87260498D01*
X99060000Y-87311716D01*
X98964180Y-87260498D01*
X98844482Y-87224188D01*
X98720000Y-87211928D01*
X98130000Y-87211928D01*
X98005518Y-87224188D01*
X97885820Y-87260498D01*
X97775506Y-87319463D01*
X97678815Y-87398815D01*
X97599463Y-87495506D01*
X97540498Y-87605820D01*
X97504188Y-87725518D01*
X97491928Y-87850000D01*
X97491928Y-88075000D01*
X95431493Y-88075000D01*
X95425472Y-88055150D01*
X95343405Y-87901614D01*
X95232962Y-87767038D01*
X95098386Y-87656595D01*
X94944850Y-87574528D01*
X94778254Y-87523992D01*
X94605000Y-87506928D01*
X93355000Y-87506928D01*
X93181746Y-87523992D01*
X93015150Y-87574528D01*
X92995065Y-87585263D01*
X88309802Y-82900000D01*
X97491928Y-82900000D01*
X97491928Y-84870000D01*
X97504188Y-84994482D01*
X97540498Y-85114180D01*
X97599463Y-85224494D01*
X97678815Y-85321185D01*
X97775506Y-85400537D01*
X97885820Y-85459502D01*
X98005518Y-85495812D01*
X98130000Y-85508072D01*
X98720000Y-85508072D01*
X98844482Y-85495812D01*
X98964180Y-85459502D01*
X99060000Y-85408284D01*
X99155820Y-85459502D01*
X99275518Y-85495812D01*
X99400000Y-85508072D01*
X99990000Y-85508072D01*
X100114482Y-85495812D01*
X100234180Y-85459502D01*
X100330000Y-85408284D01*
X100425820Y-85459502D01*
X100545518Y-85495812D01*
X100670000Y-85508072D01*
X100679250Y-85505000D01*
X100838000Y-85346250D01*
X100838000Y-84012000D01*
X100818000Y-84012000D01*
X100818000Y-83758000D01*
X100838000Y-83758000D01*
X100838000Y-82423750D01*
X100679250Y-82265000D01*
X100670000Y-82261928D01*
X100545518Y-82274188D01*
X100455000Y-82301646D01*
X100455000Y-81687322D01*
X100458676Y-81649999D01*
X100455000Y-81612676D01*
X100455000Y-81612667D01*
X100444003Y-81501014D01*
X100400546Y-81357753D01*
X100329974Y-81225724D01*
X100290190Y-81177247D01*
X100258799Y-81138996D01*
X100258795Y-81138992D01*
X100235001Y-81109999D01*
X100206009Y-81086206D01*
X100114737Y-80994934D01*
X100125472Y-80974850D01*
X100176008Y-80808254D01*
X100193072Y-80635000D01*
X100193072Y-79385000D01*
X100466928Y-79385000D01*
X100466928Y-80635000D01*
X100483992Y-80808254D01*
X100534528Y-80974850D01*
X100616595Y-81128386D01*
X100727038Y-81262962D01*
X100861614Y-81373405D01*
X100970000Y-81431339D01*
X100970001Y-83342668D01*
X100966324Y-83380000D01*
X100970001Y-83417333D01*
X100979925Y-83518086D01*
X100980998Y-83528985D01*
X101024454Y-83672246D01*
X101095026Y-83804276D01*
X101112000Y-83824959D01*
X101112000Y-84012000D01*
X101092000Y-84012000D01*
X101092000Y-85346250D01*
X101250750Y-85505000D01*
X101260000Y-85508072D01*
X101384482Y-85495812D01*
X101504180Y-85459502D01*
X101600000Y-85408284D01*
X101695820Y-85459502D01*
X101815518Y-85495812D01*
X101940000Y-85508072D01*
X102530000Y-85508072D01*
X102654482Y-85495812D01*
X102774180Y-85459502D01*
X102884494Y-85400537D01*
X102981185Y-85321185D01*
X103060537Y-85224494D01*
X103119502Y-85114180D01*
X103155812Y-84994482D01*
X103168072Y-84870000D01*
X103168072Y-84445000D01*
X107071928Y-84445000D01*
X107084188Y-84569482D01*
X107120498Y-84689180D01*
X107179463Y-84799494D01*
X107258815Y-84896185D01*
X107355506Y-84975537D01*
X107465820Y-85034502D01*
X107585518Y-85070812D01*
X107710000Y-85083072D01*
X108299250Y-85080000D01*
X108458000Y-84921250D01*
X108458000Y-83947000D01*
X108712000Y-83947000D01*
X108712000Y-84921250D01*
X108870750Y-85080000D01*
X109460000Y-85083072D01*
X109584482Y-85070812D01*
X109704180Y-85034502D01*
X109814494Y-84975537D01*
X109911185Y-84896185D01*
X109990537Y-84799494D01*
X110049502Y-84689180D01*
X110085812Y-84569482D01*
X110098072Y-84445000D01*
X110096895Y-84315000D01*
X111516928Y-84315000D01*
X111529188Y-84439482D01*
X111565498Y-84559180D01*
X111624463Y-84669494D01*
X111703815Y-84766185D01*
X111800506Y-84845537D01*
X111910820Y-84904502D01*
X112030518Y-84940812D01*
X112155000Y-84953072D01*
X112744250Y-84950000D01*
X112903000Y-84791250D01*
X112903000Y-83817000D01*
X113157000Y-83817000D01*
X113157000Y-84791250D01*
X113315750Y-84950000D01*
X113905000Y-84953072D01*
X114029482Y-84940812D01*
X114149180Y-84904502D01*
X114259494Y-84845537D01*
X114356185Y-84766185D01*
X114435537Y-84669494D01*
X114494502Y-84559180D01*
X114530812Y-84439482D01*
X114543072Y-84315000D01*
X115326928Y-84315000D01*
X115339188Y-84439482D01*
X115375498Y-84559180D01*
X115434463Y-84669494D01*
X115513815Y-84766185D01*
X115610506Y-84845537D01*
X115720820Y-84904502D01*
X115840518Y-84940812D01*
X115965000Y-84953072D01*
X116554250Y-84950000D01*
X116713000Y-84791250D01*
X116713000Y-83817000D01*
X116967000Y-83817000D01*
X116967000Y-84791250D01*
X117125750Y-84950000D01*
X117715000Y-84953072D01*
X117839482Y-84940812D01*
X117959180Y-84904502D01*
X118069494Y-84845537D01*
X118166185Y-84766185D01*
X118245537Y-84669494D01*
X118304502Y-84559180D01*
X118340812Y-84439482D01*
X118353072Y-84315000D01*
X118350000Y-83975750D01*
X118191250Y-83817000D01*
X116967000Y-83817000D01*
X116713000Y-83817000D01*
X115488750Y-83817000D01*
X115330000Y-83975750D01*
X115326928Y-84315000D01*
X114543072Y-84315000D01*
X114540000Y-83975750D01*
X114381250Y-83817000D01*
X113157000Y-83817000D01*
X112903000Y-83817000D01*
X111678750Y-83817000D01*
X111520000Y-83975750D01*
X111516928Y-84315000D01*
X110096895Y-84315000D01*
X110095000Y-84105750D01*
X109936250Y-83947000D01*
X108712000Y-83947000D01*
X108458000Y-83947000D01*
X107233750Y-83947000D01*
X107075000Y-84105750D01*
X107071928Y-84445000D01*
X103168072Y-84445000D01*
X103168072Y-83195000D01*
X107071928Y-83195000D01*
X107075000Y-83534250D01*
X107233750Y-83693000D01*
X108458000Y-83693000D01*
X108458000Y-82718750D01*
X108712000Y-82718750D01*
X108712000Y-83693000D01*
X109936250Y-83693000D01*
X110095000Y-83534250D01*
X110098072Y-83195000D01*
X110085812Y-83070518D01*
X110084139Y-83065000D01*
X111516928Y-83065000D01*
X111520000Y-83404250D01*
X111678750Y-83563000D01*
X112903000Y-83563000D01*
X112903000Y-82588750D01*
X113157000Y-82588750D01*
X113157000Y-83563000D01*
X114381250Y-83563000D01*
X114540000Y-83404250D01*
X114543072Y-83065000D01*
X115326928Y-83065000D01*
X115330000Y-83404250D01*
X115488750Y-83563000D01*
X116713000Y-83563000D01*
X116713000Y-82588750D01*
X116967000Y-82588750D01*
X116967000Y-83563000D01*
X118191250Y-83563000D01*
X118350000Y-83404250D01*
X118353072Y-83065000D01*
X118340812Y-82940518D01*
X118304502Y-82820820D01*
X118245537Y-82710506D01*
X118166185Y-82613815D01*
X118069494Y-82534463D01*
X117959180Y-82475498D01*
X117839482Y-82439188D01*
X117715000Y-82426928D01*
X117125750Y-82430000D01*
X116967000Y-82588750D01*
X116713000Y-82588750D01*
X116554250Y-82430000D01*
X115965000Y-82426928D01*
X115840518Y-82439188D01*
X115720820Y-82475498D01*
X115610506Y-82534463D01*
X115513815Y-82613815D01*
X115434463Y-82710506D01*
X115375498Y-82820820D01*
X115339188Y-82940518D01*
X115326928Y-83065000D01*
X114543072Y-83065000D01*
X114530812Y-82940518D01*
X114494502Y-82820820D01*
X114435537Y-82710506D01*
X114356185Y-82613815D01*
X114259494Y-82534463D01*
X114149180Y-82475498D01*
X114029482Y-82439188D01*
X113905000Y-82426928D01*
X113315750Y-82430000D01*
X113157000Y-82588750D01*
X112903000Y-82588750D01*
X112744250Y-82430000D01*
X112155000Y-82426928D01*
X112030518Y-82439188D01*
X111910820Y-82475498D01*
X111800506Y-82534463D01*
X111703815Y-82613815D01*
X111624463Y-82710506D01*
X111565498Y-82820820D01*
X111529188Y-82940518D01*
X111516928Y-83065000D01*
X110084139Y-83065000D01*
X110049502Y-82950820D01*
X109990537Y-82840506D01*
X109911185Y-82743815D01*
X109814494Y-82664463D01*
X109704180Y-82605498D01*
X109584482Y-82569188D01*
X109460000Y-82556928D01*
X108870750Y-82560000D01*
X108712000Y-82718750D01*
X108458000Y-82718750D01*
X108299250Y-82560000D01*
X107710000Y-82556928D01*
X107585518Y-82569188D01*
X107465820Y-82605498D01*
X107355506Y-82664463D01*
X107258815Y-82743815D01*
X107179463Y-82840506D01*
X107120498Y-82950820D01*
X107084188Y-83070518D01*
X107071928Y-83195000D01*
X103168072Y-83195000D01*
X103168072Y-82900000D01*
X103155812Y-82775518D01*
X103119502Y-82655820D01*
X103060537Y-82545506D01*
X102981185Y-82448815D01*
X102884494Y-82369463D01*
X102774180Y-82310498D01*
X102654482Y-82274188D01*
X102530000Y-82261928D01*
X102490000Y-82261928D01*
X102490000Y-81431339D01*
X102598386Y-81373405D01*
X102732962Y-81262962D01*
X102843405Y-81128386D01*
X102925472Y-80974850D01*
X102976008Y-80808254D01*
X102993072Y-80635000D01*
X102993072Y-79385000D01*
X102976008Y-79211746D01*
X102925472Y-79045150D01*
X102843405Y-78891614D01*
X102732962Y-78757038D01*
X102598386Y-78646595D01*
X102444850Y-78564528D01*
X102278254Y-78513992D01*
X102105000Y-78496928D01*
X101355000Y-78496928D01*
X101181746Y-78513992D01*
X101015150Y-78564528D01*
X100861614Y-78646595D01*
X100727038Y-78757038D01*
X100616595Y-78891614D01*
X100534528Y-79045150D01*
X100483992Y-79211746D01*
X100466928Y-79385000D01*
X100193072Y-79385000D01*
X100176008Y-79211746D01*
X100125472Y-79045150D01*
X100043405Y-78891614D01*
X99932962Y-78757038D01*
X99798386Y-78646595D01*
X99644850Y-78564528D01*
X99478254Y-78513992D01*
X99305000Y-78496928D01*
X98555000Y-78496928D01*
X98381746Y-78513992D01*
X98215150Y-78564528D01*
X98061614Y-78646595D01*
X97927038Y-78757038D01*
X97816595Y-78891614D01*
X97734528Y-79045150D01*
X97683992Y-79211746D01*
X97666928Y-79385000D01*
X97666928Y-80635000D01*
X97683992Y-80808254D01*
X97734528Y-80974850D01*
X97816595Y-81128386D01*
X97927038Y-81262962D01*
X98061614Y-81373405D01*
X98215150Y-81455472D01*
X98381746Y-81506008D01*
X98486527Y-81516328D01*
X98935000Y-81964803D01*
X98935001Y-82301647D01*
X98844482Y-82274188D01*
X98720000Y-82261928D01*
X98130000Y-82261928D01*
X98005518Y-82274188D01*
X97885820Y-82310498D01*
X97775506Y-82369463D01*
X97678815Y-82448815D01*
X97599463Y-82545506D01*
X97540498Y-82655820D01*
X97504188Y-82775518D01*
X97491928Y-82900000D01*
X88309802Y-82900000D01*
X87448804Y-82039003D01*
X87425001Y-82009999D01*
X87309276Y-81915026D01*
X87177247Y-81844454D01*
X87033986Y-81800997D01*
X86922333Y-81790000D01*
X86922322Y-81790000D01*
X86885000Y-81786324D01*
X86847678Y-81790000D01*
X84535000Y-81790000D01*
X84569003Y-81677906D01*
X84580000Y-81566253D01*
X84580000Y-81566244D01*
X84583676Y-81528921D01*
X84580000Y-81491598D01*
X84580000Y-79476173D01*
X84613709Y-79465947D01*
X84766164Y-79384458D01*
X84899792Y-79274792D01*
X85009458Y-79141164D01*
X85090947Y-78988709D01*
X85141128Y-78823285D01*
X85158072Y-78651250D01*
X85158072Y-78225000D01*
X108976928Y-78225000D01*
X108989188Y-78349482D01*
X109025498Y-78469180D01*
X109084463Y-78579494D01*
X109163815Y-78676185D01*
X109260506Y-78755537D01*
X109370820Y-78814502D01*
X109490518Y-78850812D01*
X109615000Y-78863072D01*
X110204250Y-78860000D01*
X110363000Y-78701250D01*
X110363000Y-77727000D01*
X110617000Y-77727000D01*
X110617000Y-78701250D01*
X110775750Y-78860000D01*
X111365000Y-78863072D01*
X111489482Y-78850812D01*
X111609180Y-78814502D01*
X111719494Y-78755537D01*
X111816185Y-78676185D01*
X111895537Y-78579494D01*
X111954502Y-78469180D01*
X111990812Y-78349482D01*
X112003072Y-78225000D01*
X114056928Y-78225000D01*
X114069188Y-78349482D01*
X114105498Y-78469180D01*
X114164463Y-78579494D01*
X114243815Y-78676185D01*
X114340506Y-78755537D01*
X114450820Y-78814502D01*
X114570518Y-78850812D01*
X114695000Y-78863072D01*
X115284250Y-78860000D01*
X115443000Y-78701250D01*
X115443000Y-77727000D01*
X115697000Y-77727000D01*
X115697000Y-78701250D01*
X115855750Y-78860000D01*
X116445000Y-78863072D01*
X116569482Y-78850812D01*
X116689180Y-78814502D01*
X116799494Y-78755537D01*
X116896185Y-78676185D01*
X116975537Y-78579494D01*
X117034502Y-78469180D01*
X117070812Y-78349482D01*
X117083072Y-78225000D01*
X117080000Y-77885750D01*
X116921250Y-77727000D01*
X115697000Y-77727000D01*
X115443000Y-77727000D01*
X114218750Y-77727000D01*
X114060000Y-77885750D01*
X114056928Y-78225000D01*
X112003072Y-78225000D01*
X112000000Y-77885750D01*
X111841250Y-77727000D01*
X110617000Y-77727000D01*
X110363000Y-77727000D01*
X109138750Y-77727000D01*
X108980000Y-77885750D01*
X108976928Y-78225000D01*
X85158072Y-78225000D01*
X85158072Y-78163750D01*
X85141128Y-77991715D01*
X85090947Y-77826291D01*
X85009458Y-77673836D01*
X84899792Y-77540208D01*
X84814244Y-77470000D01*
X84899792Y-77399792D01*
X85009458Y-77266164D01*
X85090947Y-77113709D01*
X85141128Y-76948285D01*
X85158072Y-76776250D01*
X85158072Y-76288750D01*
X85141128Y-76116715D01*
X85090947Y-75951291D01*
X85009458Y-75798836D01*
X84899792Y-75665208D01*
X84766164Y-75555542D01*
X84613709Y-75474053D01*
X84448285Y-75423872D01*
X84276250Y-75406928D01*
X83363750Y-75406928D01*
X83191715Y-75423872D01*
X83026291Y-75474053D01*
X82873836Y-75555542D01*
X82740208Y-75665208D01*
X82652155Y-75772500D01*
X79907845Y-75772500D01*
X79819792Y-75665208D01*
X79686164Y-75555542D01*
X79533709Y-75474053D01*
X79368285Y-75423872D01*
X79196250Y-75406928D01*
X78283750Y-75406928D01*
X78111715Y-75423872D01*
X77946291Y-75474053D01*
X77793836Y-75555542D01*
X77660208Y-75665208D01*
X77572155Y-75772500D01*
X74634823Y-75772500D01*
X74597500Y-75768824D01*
X74560177Y-75772500D01*
X74560167Y-75772500D01*
X74448514Y-75783497D01*
X74305253Y-75826954D01*
X74173223Y-75897526D01*
X74107711Y-75951291D01*
X74057499Y-75992499D01*
X74033701Y-76021497D01*
X69535199Y-80520000D01*
X67095402Y-80520000D01*
X66867874Y-80292472D01*
X66954400Y-80292472D01*
X67078882Y-80280212D01*
X67198580Y-80243902D01*
X67308894Y-80184937D01*
X67310000Y-80184029D01*
X67311106Y-80184937D01*
X67421420Y-80243902D01*
X67541118Y-80280212D01*
X67665600Y-80292472D01*
X68224400Y-80292472D01*
X68348882Y-80280212D01*
X68468580Y-80243902D01*
X68578894Y-80184937D01*
X68675585Y-80105585D01*
X68754937Y-80008894D01*
X68813902Y-79898580D01*
X68850212Y-79778882D01*
X68862472Y-79654400D01*
X68862472Y-77673200D01*
X68850212Y-77548718D01*
X68813902Y-77429020D01*
X68754937Y-77318706D01*
X68675585Y-77222015D01*
X68578894Y-77142663D01*
X68468580Y-77083698D01*
X68348882Y-77047388D01*
X68224400Y-77035128D01*
X68137874Y-77035128D01*
X68213002Y-76960000D01*
X68542678Y-76960000D01*
X68580000Y-76963676D01*
X68617322Y-76960000D01*
X68617333Y-76960000D01*
X68728986Y-76949003D01*
X68872247Y-76905546D01*
X69004276Y-76834974D01*
X69120001Y-76740001D01*
X69143804Y-76710997D01*
X70361003Y-75493799D01*
X70390001Y-75470001D01*
X70484974Y-75354276D01*
X70555546Y-75222247D01*
X70599003Y-75078986D01*
X70610000Y-74967333D01*
X70610000Y-74967324D01*
X70613676Y-74930001D01*
X70610000Y-74892678D01*
X70610000Y-74777168D01*
X89016840Y-74777168D01*
X89016840Y-75052352D01*
X89070526Y-75322250D01*
X89175835Y-75576487D01*
X89328720Y-75805295D01*
X89403385Y-75879960D01*
X89359200Y-75924145D01*
X89206315Y-76152953D01*
X89101006Y-76407190D01*
X89047320Y-76677088D01*
X89047320Y-76952272D01*
X89101006Y-77222170D01*
X89206315Y-77476407D01*
X89359200Y-77705215D01*
X89553785Y-77899800D01*
X89782593Y-78052685D01*
X90036830Y-78157994D01*
X90306728Y-78211680D01*
X90581912Y-78211680D01*
X90851810Y-78157994D01*
X91106047Y-78052685D01*
X91334855Y-77899800D01*
X91529440Y-77705215D01*
X91682325Y-77476407D01*
X91787634Y-77222170D01*
X91836799Y-76975000D01*
X108976928Y-76975000D01*
X108980000Y-77314250D01*
X109138750Y-77473000D01*
X110363000Y-77473000D01*
X110363000Y-76498750D01*
X110617000Y-76498750D01*
X110617000Y-77473000D01*
X111841250Y-77473000D01*
X112000000Y-77314250D01*
X112003072Y-76975000D01*
X114056928Y-76975000D01*
X114060000Y-77314250D01*
X114218750Y-77473000D01*
X115443000Y-77473000D01*
X115443000Y-76498750D01*
X115697000Y-76498750D01*
X115697000Y-77473000D01*
X116921250Y-77473000D01*
X117080000Y-77314250D01*
X117083072Y-76975000D01*
X117070812Y-76850518D01*
X117034502Y-76730820D01*
X116975537Y-76620506D01*
X116896185Y-76523815D01*
X116799494Y-76444463D01*
X116689180Y-76385498D01*
X116569482Y-76349188D01*
X116445000Y-76336928D01*
X115855750Y-76340000D01*
X115697000Y-76498750D01*
X115443000Y-76498750D01*
X115284250Y-76340000D01*
X114695000Y-76336928D01*
X114570518Y-76349188D01*
X114450820Y-76385498D01*
X114340506Y-76444463D01*
X114243815Y-76523815D01*
X114164463Y-76620506D01*
X114105498Y-76730820D01*
X114069188Y-76850518D01*
X114056928Y-76975000D01*
X112003072Y-76975000D01*
X111990812Y-76850518D01*
X111954502Y-76730820D01*
X111895537Y-76620506D01*
X111816185Y-76523815D01*
X111719494Y-76444463D01*
X111609180Y-76385498D01*
X111489482Y-76349188D01*
X111365000Y-76336928D01*
X110775750Y-76340000D01*
X110617000Y-76498750D01*
X110363000Y-76498750D01*
X110204250Y-76340000D01*
X109615000Y-76336928D01*
X109490518Y-76349188D01*
X109370820Y-76385498D01*
X109260506Y-76444463D01*
X109163815Y-76523815D01*
X109084463Y-76620506D01*
X109025498Y-76730820D01*
X108989188Y-76850518D01*
X108976928Y-76975000D01*
X91836799Y-76975000D01*
X91841320Y-76952272D01*
X91841320Y-76677088D01*
X91787634Y-76407190D01*
X91682325Y-76152953D01*
X91529440Y-75924145D01*
X91454775Y-75849480D01*
X91498960Y-75805295D01*
X91651845Y-75576487D01*
X91757154Y-75322250D01*
X91810840Y-75052352D01*
X91810840Y-74777168D01*
X91757154Y-74507270D01*
X91723077Y-74425000D01*
X108976928Y-74425000D01*
X108976928Y-75175000D01*
X108993992Y-75348254D01*
X109044528Y-75514850D01*
X109126595Y-75668386D01*
X109237038Y-75802962D01*
X109371614Y-75913405D01*
X109525150Y-75995472D01*
X109691746Y-76046008D01*
X109865000Y-76063072D01*
X111115000Y-76063072D01*
X111288254Y-76046008D01*
X111454850Y-75995472D01*
X111608386Y-75913405D01*
X111742962Y-75802962D01*
X111853405Y-75668386D01*
X111911339Y-75560000D01*
X114148661Y-75560000D01*
X114206595Y-75668386D01*
X114317038Y-75802962D01*
X114451614Y-75913405D01*
X114605150Y-75995472D01*
X114771746Y-76046008D01*
X114945000Y-76063072D01*
X116195000Y-76063072D01*
X116368254Y-76046008D01*
X116534850Y-75995472D01*
X116688386Y-75913405D01*
X116822962Y-75802962D01*
X116933405Y-75668386D01*
X117015472Y-75514850D01*
X117066008Y-75348254D01*
X117083072Y-75175000D01*
X117083072Y-74425000D01*
X117066008Y-74251746D01*
X117015472Y-74085150D01*
X116933405Y-73931614D01*
X116822962Y-73797038D01*
X116688386Y-73686595D01*
X116534850Y-73604528D01*
X116368254Y-73553992D01*
X116195000Y-73536928D01*
X114945000Y-73536928D01*
X114771746Y-73553992D01*
X114605150Y-73604528D01*
X114451614Y-73686595D01*
X114317038Y-73797038D01*
X114206595Y-73931614D01*
X114148661Y-74040000D01*
X111911339Y-74040000D01*
X111853405Y-73931614D01*
X111742962Y-73797038D01*
X111608386Y-73686595D01*
X111454850Y-73604528D01*
X111288254Y-73553992D01*
X111115000Y-73536928D01*
X109865000Y-73536928D01*
X109691746Y-73553992D01*
X109525150Y-73604528D01*
X109371614Y-73686595D01*
X109237038Y-73797038D01*
X109126595Y-73931614D01*
X109044528Y-74085150D01*
X108993992Y-74251746D01*
X108976928Y-74425000D01*
X91723077Y-74425000D01*
X91651845Y-74253033D01*
X91498960Y-74024225D01*
X91304375Y-73829640D01*
X91075567Y-73676755D01*
X90821330Y-73571446D01*
X90551432Y-73517760D01*
X90276248Y-73517760D01*
X90006350Y-73571446D01*
X89752113Y-73676755D01*
X89523305Y-73829640D01*
X89328720Y-74024225D01*
X89175835Y-74253033D01*
X89070526Y-74507270D01*
X89016840Y-74777168D01*
X70610000Y-74777168D01*
X70610000Y-73823520D01*
X70613676Y-73786197D01*
X70610000Y-73748874D01*
X70610000Y-73748865D01*
X70599003Y-73637212D01*
X70555546Y-73493951D01*
X70484974Y-73361922D01*
X70390001Y-73246197D01*
X70361004Y-73222400D01*
X67747606Y-70609003D01*
X67723803Y-70579999D01*
X67608078Y-70485026D01*
X67476049Y-70414454D01*
X67332788Y-70370997D01*
X67221135Y-70360000D01*
X67221124Y-70360000D01*
X67183802Y-70356324D01*
X67146480Y-70360000D01*
X63537322Y-70360000D01*
X63499999Y-70356324D01*
X63462676Y-70360000D01*
X63462667Y-70360000D01*
X63351014Y-70370997D01*
X63207753Y-70414454D01*
X63075724Y-70485026D01*
X62959999Y-70579999D01*
X62936201Y-70608997D01*
X61718998Y-71826201D01*
X61690000Y-71849999D01*
X61666202Y-71878997D01*
X61666201Y-71878998D01*
X61595026Y-71965724D01*
X61524454Y-72097754D01*
X61480998Y-72241015D01*
X61466324Y-72390000D01*
X59817000Y-72390000D01*
X59817000Y-40767000D01*
X131953000Y-40767000D01*
X131953000Y-100203000D01*
G36*
X77660208Y-77399792D02*
G01*
X77666564Y-77405008D01*
X77588815Y-77468815D01*
X77509463Y-77565506D01*
X77450498Y-77675820D01*
X77414188Y-77795518D01*
X77401928Y-77920000D01*
X77405000Y-78121750D01*
X77563750Y-78280500D01*
X78613000Y-78280500D01*
X78613000Y-78260500D01*
X78867000Y-78260500D01*
X78867000Y-78280500D01*
X79916250Y-78280500D01*
X80075000Y-78121750D01*
X80078072Y-77920000D01*
X80065812Y-77795518D01*
X80029502Y-77675820D01*
X79970537Y-77565506D01*
X79891185Y-77468815D01*
X79813436Y-77405008D01*
X79819792Y-77399792D01*
X79907845Y-77292500D01*
X82652155Y-77292500D01*
X82740208Y-77399792D01*
X82825756Y-77470000D01*
X82740208Y-77540208D01*
X82630542Y-77673836D01*
X82549053Y-77826291D01*
X82498872Y-77991715D01*
X82481928Y-78163750D01*
X82481928Y-78651250D01*
X82498872Y-78823285D01*
X82549053Y-78988709D01*
X82630542Y-79141164D01*
X82740208Y-79274792D01*
X82873836Y-79384458D01*
X83026291Y-79465947D01*
X83060000Y-79476173D01*
X83060001Y-81214117D01*
X82287922Y-81986197D01*
X82258919Y-82009999D01*
X82235117Y-82039002D01*
X82163462Y-82110657D01*
X82163457Y-82110661D01*
X80814650Y-83459468D01*
X80660672Y-83428840D01*
X80385488Y-83428840D01*
X80115590Y-83482526D01*
X79861353Y-83587835D01*
X79632545Y-83740720D01*
X79437960Y-83935305D01*
X79285075Y-84164113D01*
X79216362Y-84330000D01*
X71229776Y-84330000D01*
X71226008Y-84291746D01*
X71175472Y-84125150D01*
X71093405Y-83971614D01*
X70982962Y-83837038D01*
X70848386Y-83726595D01*
X70694850Y-83644528D01*
X70528254Y-83593992D01*
X70355000Y-83576928D01*
X69605000Y-83576928D01*
X69431746Y-83593992D01*
X69265150Y-83644528D01*
X69111614Y-83726595D01*
X69086779Y-83746977D01*
X67379801Y-82040000D01*
X69812678Y-82040000D01*
X69850000Y-82043676D01*
X69887322Y-82040000D01*
X69887333Y-82040000D01*
X69998986Y-82029003D01*
X70142247Y-81985546D01*
X70274276Y-81914974D01*
X70390001Y-81820001D01*
X70413804Y-81790997D01*
X73309801Y-78895000D01*
X77401928Y-78895000D01*
X77414188Y-79019482D01*
X77450498Y-79139180D01*
X77509463Y-79249494D01*
X77588815Y-79346185D01*
X77685506Y-79425537D01*
X77795820Y-79484502D01*
X77915518Y-79520812D01*
X78040000Y-79533072D01*
X78454250Y-79530000D01*
X78613000Y-79371250D01*
X78613000Y-78534500D01*
X78867000Y-78534500D01*
X78867000Y-79371250D01*
X79025750Y-79530000D01*
X79440000Y-79533072D01*
X79564482Y-79520812D01*
X79684180Y-79484502D01*
X79794494Y-79425537D01*
X79891185Y-79346185D01*
X79970537Y-79249494D01*
X80029502Y-79139180D01*
X80065812Y-79019482D01*
X80078072Y-78895000D01*
X80075000Y-78693250D01*
X79916250Y-78534500D01*
X78867000Y-78534500D01*
X78613000Y-78534500D01*
X77563750Y-78534500D01*
X77405000Y-78693250D01*
X77401928Y-78895000D01*
X73309801Y-78895000D01*
X74912302Y-77292500D01*
X77572155Y-77292500D01*
X77660208Y-77399792D01*
G37*
X77660208Y-77399792D02*
X77666564Y-77405008D01*
X77588815Y-77468815D01*
X77509463Y-77565506D01*
X77450498Y-77675820D01*
X77414188Y-77795518D01*
X77401928Y-77920000D01*
X77405000Y-78121750D01*
X77563750Y-78280500D01*
X78613000Y-78280500D01*
X78613000Y-78260500D01*
X78867000Y-78260500D01*
X78867000Y-78280500D01*
X79916250Y-78280500D01*
X80075000Y-78121750D01*
X80078072Y-77920000D01*
X80065812Y-77795518D01*
X80029502Y-77675820D01*
X79970537Y-77565506D01*
X79891185Y-77468815D01*
X79813436Y-77405008D01*
X79819792Y-77399792D01*
X79907845Y-77292500D01*
X82652155Y-77292500D01*
X82740208Y-77399792D01*
X82825756Y-77470000D01*
X82740208Y-77540208D01*
X82630542Y-77673836D01*
X82549053Y-77826291D01*
X82498872Y-77991715D01*
X82481928Y-78163750D01*
X82481928Y-78651250D01*
X82498872Y-78823285D01*
X82549053Y-78988709D01*
X82630542Y-79141164D01*
X82740208Y-79274792D01*
X82873836Y-79384458D01*
X83026291Y-79465947D01*
X83060000Y-79476173D01*
X83060001Y-81214117D01*
X82287922Y-81986197D01*
X82258919Y-82009999D01*
X82235117Y-82039002D01*
X82163462Y-82110657D01*
X82163457Y-82110661D01*
X80814650Y-83459468D01*
X80660672Y-83428840D01*
X80385488Y-83428840D01*
X80115590Y-83482526D01*
X79861353Y-83587835D01*
X79632545Y-83740720D01*
X79437960Y-83935305D01*
X79285075Y-84164113D01*
X79216362Y-84330000D01*
X71229776Y-84330000D01*
X71226008Y-84291746D01*
X71175472Y-84125150D01*
X71093405Y-83971614D01*
X70982962Y-83837038D01*
X70848386Y-83726595D01*
X70694850Y-83644528D01*
X70528254Y-83593992D01*
X70355000Y-83576928D01*
X69605000Y-83576928D01*
X69431746Y-83593992D01*
X69265150Y-83644528D01*
X69111614Y-83726595D01*
X69086779Y-83746977D01*
X67379801Y-82040000D01*
X69812678Y-82040000D01*
X69850000Y-82043676D01*
X69887322Y-82040000D01*
X69887333Y-82040000D01*
X69998986Y-82029003D01*
X70142247Y-81985546D01*
X70274276Y-81914974D01*
X70390001Y-81820001D01*
X70413804Y-81790997D01*
X73309801Y-78895000D01*
X77401928Y-78895000D01*
X77414188Y-79019482D01*
X77450498Y-79139180D01*
X77509463Y-79249494D01*
X77588815Y-79346185D01*
X77685506Y-79425537D01*
X77795820Y-79484502D01*
X77915518Y-79520812D01*
X78040000Y-79533072D01*
X78454250Y-79530000D01*
X78613000Y-79371250D01*
X78613000Y-78534500D01*
X78867000Y-78534500D01*
X78867000Y-79371250D01*
X79025750Y-79530000D01*
X79440000Y-79533072D01*
X79564482Y-79520812D01*
X79684180Y-79484502D01*
X79794494Y-79425537D01*
X79891185Y-79346185D01*
X79970537Y-79249494D01*
X80029502Y-79139180D01*
X80065812Y-79019482D01*
X80078072Y-78895000D01*
X80075000Y-78693250D01*
X79916250Y-78534500D01*
X78867000Y-78534500D01*
X78613000Y-78534500D01*
X77563750Y-78534500D01*
X77405000Y-78693250D01*
X77401928Y-78895000D01*
X73309801Y-78895000D01*
X74912302Y-77292500D01*
X77572155Y-77292500D01*
X77660208Y-77399792D01*
G36*
X108013556Y-61696643D02*
G01*
X108005812Y-61618018D01*
X107969502Y-61498320D01*
X107910537Y-61388006D01*
X107831185Y-61291315D01*
X107734494Y-61211963D01*
X107624180Y-61152998D01*
X107504482Y-61116688D01*
X107380000Y-61104428D01*
X106965750Y-61107500D01*
X106807000Y-61266250D01*
X106807000Y-62103000D01*
X106827000Y-62103000D01*
X106827000Y-62357000D01*
X106807000Y-62357000D01*
X106807000Y-62377000D01*
X106553000Y-62377000D01*
X106553000Y-62357000D01*
X105503750Y-62357000D01*
X105345000Y-62515750D01*
X105341928Y-62717500D01*
X105354188Y-62841982D01*
X105390498Y-62961680D01*
X105449463Y-63071994D01*
X105528815Y-63168685D01*
X105606564Y-63232492D01*
X105600208Y-63237708D01*
X105512155Y-63345000D01*
X105392303Y-63345000D01*
X104206322Y-62159020D01*
X104208072Y-62141250D01*
X104208072Y-61742500D01*
X105341928Y-61742500D01*
X105345000Y-61944250D01*
X105503750Y-62103000D01*
X106553000Y-62103000D01*
X106553000Y-61266250D01*
X106394250Y-61107500D01*
X105980000Y-61104428D01*
X105855518Y-61116688D01*
X105735820Y-61152998D01*
X105625506Y-61211963D01*
X105528815Y-61291315D01*
X105449463Y-61388006D01*
X105390498Y-61498320D01*
X105354188Y-61618018D01*
X105341928Y-61742500D01*
X104208072Y-61742500D01*
X104208072Y-61653750D01*
X104191128Y-61481715D01*
X104140947Y-61316291D01*
X104059458Y-61163836D01*
X103949792Y-61030208D01*
X103864244Y-60960000D01*
X103949792Y-60889792D01*
X104059458Y-60756164D01*
X104140947Y-60603709D01*
X104191128Y-60438285D01*
X104208072Y-60266250D01*
X104208072Y-59815000D01*
X109895198Y-59815000D01*
X108013556Y-61696643D01*
G37*
X108013556Y-61696643D02*
X108005812Y-61618018D01*
X107969502Y-61498320D01*
X107910537Y-61388006D01*
X107831185Y-61291315D01*
X107734494Y-61211963D01*
X107624180Y-61152998D01*
X107504482Y-61116688D01*
X107380000Y-61104428D01*
X106965750Y-61107500D01*
X106807000Y-61266250D01*
X106807000Y-62103000D01*
X106827000Y-62103000D01*
X106827000Y-62357000D01*
X106807000Y-62357000D01*
X106807000Y-62377000D01*
X106553000Y-62377000D01*
X106553000Y-62357000D01*
X105503750Y-62357000D01*
X105345000Y-62515750D01*
X105341928Y-62717500D01*
X105354188Y-62841982D01*
X105390498Y-62961680D01*
X105449463Y-63071994D01*
X105528815Y-63168685D01*
X105606564Y-63232492D01*
X105600208Y-63237708D01*
X105512155Y-63345000D01*
X105392303Y-63345000D01*
X104206322Y-62159020D01*
X104208072Y-62141250D01*
X104208072Y-61742500D01*
X105341928Y-61742500D01*
X105345000Y-61944250D01*
X105503750Y-62103000D01*
X106553000Y-62103000D01*
X106553000Y-61266250D01*
X106394250Y-61107500D01*
X105980000Y-61104428D01*
X105855518Y-61116688D01*
X105735820Y-61152998D01*
X105625506Y-61211963D01*
X105528815Y-61291315D01*
X105449463Y-61388006D01*
X105390498Y-61498320D01*
X105354188Y-61618018D01*
X105341928Y-61742500D01*
X104208072Y-61742500D01*
X104208072Y-61653750D01*
X104191128Y-61481715D01*
X104140947Y-61316291D01*
X104059458Y-61163836D01*
X103949792Y-61030208D01*
X103864244Y-60960000D01*
X103949792Y-60889792D01*
X104059458Y-60756164D01*
X104140947Y-60603709D01*
X104191128Y-60438285D01*
X104208072Y-60266250D01*
X104208072Y-59815000D01*
X109895198Y-59815000D01*
X108013556Y-61696643D01*
M02*
